<svg xmlns="http://www.w3.org/2000/svg" xmlns:xlink="http://www.w3.org/1999/xlink" width="261.191" height="242.563" viewBox="0 0 261.191 242.563">
  <defs>
    <style>
      .cls-1 {
        fill: #b91165;
      }

      .cls-2, .cls-3 {
        fill: #fff;
      }

      .cls-3 {
        font-size: 24px;
        font-family: Kanit-SemiBold, Kanit;
        font-weight: 600;
      }

      .cls-4 {
        filter: url(#Path_26011);
      }
    </style>
    <filter id="Path_26011" x="0" y="0" width="261.191" height="242.563" filterUnits="userSpaceOnUse">
      <feOffset dy="6" input="SourceAlpha"/>
      <feGaussianBlur stdDeviation="10" result="blur"/>
      <feFlood flood-color="#28a745" flood-opacity="0.102"/>
      <feComposite operator="in" in2="blur"/>
      <feComposite in="SourceGraphic"/>
    </filter>
  </defs>
  <g id="Group_9513" data-name="Group 9513" transform="translate(18585 18846.869)">
    <g id="Group_226" data-name="Group 226" transform="translate(-18555 -18822.869)">
      <g id="Group_7724" data-name="Group 7724">
        <g class="cls-4" transform="matrix(1, 0, 0, 1, -30, -24)">
          <path id="Path_26011-2" data-name="Path 26011" class="cls-1" d="M5,0H196.192a5,5,0,0,1,5,5V177.563a5,5,0,0,1-5,5H5a5,5,0,0,1-5-5V5A5,5,0,0,1,5,0Z" transform="translate(30 24)"/>
        </g>
      </g>
    </g>
    <g id="Group_5920" data-name="Group 5920" transform="translate(-18494 -18797.18)">
      <path id="Path_1567" data-name="Path 1567" class="cls-2" d="M113.191,331.974A2.015,2.015,0,0,0,111.138,330H100.053A2.015,2.015,0,0,0,98,331.974v7.3a2.015,2.015,0,0,0,2.053,1.974h11.086a2.015,2.015,0,0,0,2.053-1.974Zm-11.086,1.974h6.98V337.3h-6.98Z" transform="translate(-91.227 -273.555)"/>
      <path id="Path_1568" data-name="Path 1568" class="cls-2" d="M314.191,331.974A2.015,2.015,0,0,0,312.138,330H301.053A2.015,2.015,0,0,0,299,331.974v7.3a2.015,2.015,0,0,0,2.053,1.974h11.086a2.015,2.015,0,0,0,2.053-1.974Zm-11.086,1.974h6.98V337.3h-6.98Z" transform="translate(-250.964 -273.555)"/>
      <path id="Path_1569" data-name="Path 1569" class="cls-2" d="M193.053,369.948h14.28a1.976,1.976,0,1,0,0-3.948h-14.28a1.976,1.976,0,1,0,0,3.948Z" transform="translate(-165.134 -302.448)"/>
      <path id="Path_1570" data-name="Path 1570" class="cls-2" d="M193.053,341.948h14.28a1.976,1.976,0,1,0,0-3.948h-14.28a1.976,1.976,0,1,0,0,3.948Z" transform="translate(-165.134 -279.976)"/>
      <path id="Path_1571" data-name="Path 1571" class="cls-2" d="M142.374,53.655l-18.2-9.34a2.1,2.1,0,0,0-1.942.012l-17.749,9.34a1.991,1.991,0,0,0-1.092,1.731V68.625a24.936,24.936,0,0,0,1.671,8.8H81.514a6.874,6.874,0,0,0-6.288,4.012l-5.06,11.347-2.053,1.874A8.547,8.547,0,0,0,65,101.291v19.986a6.554,6.554,0,0,0,6.616,6.493h3.933a6.6,6.6,0,0,0,6.694-6.493h0v-2.391h35.515v2.391a6.685,6.685,0,0,0,6.8,6.493h3.9a6.649,6.649,0,0,0,6.754-6.493v-20.5a8.615,8.615,0,0,0-2.8-6.3l-1.437-1.471-.936-1.994a26.059,26.059,0,0,0,13.389-22.636V55.4a1.925,1.925,0,0,0-1.045-1.743ZM111.94,87.7a28.027,28.027,0,0,0,6.3,4.333h-11.8A6.473,6.473,0,0,1,111.94,87.7ZM79,83.022a2.785,2.785,0,0,1,2.515-1.644h25.409a29.326,29.326,0,0,0,1.969,2.961,10.454,10.454,0,0,0-6.678,7.7H75ZM69.1,101.291a4.662,4.662,0,0,1,1.712-3.644c.023-.02.025-.014.047-.034l1.825-1.627h55.5l1.244,1.254c.029.03.068.045.1.073a4.7,4.7,0,0,1,1.566,3.463V112.5a2.528,2.528,0,0,1-2.648,2.44H71.648a2.445,2.445,0,0,1-2.544-2.331Zm9.033,19.986a2.56,2.56,0,0,1-2.578,2.545h-3.9a2.524,2.524,0,0,1-2.554-2.545V118.46a6.485,6.485,0,0,0,2.544.426h6.489Zm50.316,2.545h-3.9a2.651,2.651,0,0,1-2.689-2.545v-2.391h6.59a7.018,7.018,0,0,0,2.648-.426v2.817a2.619,2.619,0,0,1-2.648,2.545Zm10.86-55.446A22.332,22.332,0,0,1,125.095,89h0l-1.946.813-1.665-.687a22.426,22.426,0,0,1-13.99-20.5V56.567L123.165,48.3l16.148,8.291Z" transform="translate(-64.998 -44.083)"/>
    </g>
    <path id="Path_1572" data-name="Path 1572" class="cls-2" d="M306.306,145.5a2.111,2.111,0,0,0-2.9-.218,1.923,1.923,0,0,0-.227,2.785l4.794,5.4c.021.024.045.045.068.069l.078.079c.027.026.059.049.09.075s.055.047.084.067.064.043.1.065.057.039.088.057l.107.055.09.045.115.043.092.036.123.032a.51.51,0,0,1,.09.024c.031.006.088.014.131.02l.086.014h.427a.826.826,0,0,0,.14-.018l.057-.012.115-.024.068-.02.1-.03.076-.03a.829.829,0,0,0,.088-.035c.027-.01.051-.024.078-.036l.082-.041c.025-.016.049-.032.076-.045l.078-.049.072-.051c.019-.014.039-.026.058-.041L322,144.979a1.923,1.923,0,0,0,.3-2.778,2.109,2.109,0,0,0-2.888-.284l-9.607,7.518Z" transform="translate(-18747.895 -18919.426)"/>
    <text id="ประกันรถยนต์" class="cls-3" transform="translate(-18449 -18675.137)"><tspan x="-69.06" y="0">ประกันรถยนต์</tspan></text>
  </g>
</svg>
