<?xml version="1.0" encoding="utf-8"?>
<!-- Generator: Adobe Illustrator 22.0.0, SVG Export Plug-In . SVG Version: 6.00 Build 0)  -->
<svg version="1.1" id="Layer_1" xmlns="http://www.w3.org/2000/svg" xmlns:xlink="http://www.w3.org/1999/xlink" x="0px" y="0px"
	 viewBox="0 0 22.5 21.5" style="enable-background:new 0 0 22.5 21.5;" xml:space="preserve">
<style type="text/css">
	.st0{fill:#FFFFFF;}
	.st1{filter:url(#Adobe_OpacityMaskFilter);}
	.st2{opacity:0.44;mask:url(#SVGID_1_);}
	.st3{fill:#636363;}
	.st4{display:none;}
	.st5{display:inline;}
	.st6{display:inline;clip-path:url(#SVGID_3_);}
</style>
<g>
	<g>
		<path class="st0" d="M20,0L20,0H2.5h0c0,0-0.1,0-0.1,0C1.4,0.1,0.5,0.9,0.5,2v17.5c0,1.1,0.8,1.9,1.9,2c0,0,0.1,0,0.1,0h0H20h0
			c1.1,0,2-0.9,2-2V2C22,0.9,21.1,0,20,0z"/>
	</g>
	<defs>
		<filter id="Adobe_OpacityMaskFilter" filterUnits="userSpaceOnUse" x="0.5" y="0" width="21.5" height="21.5">
			
				<feColorMatrix  type="matrix" values="-1 0 0 0 1  0 -1 0 0 1  0 0 -1 0 1  0 0 0 1 0" color-interpolation-filters="sRGB" result="source"/>
		</filter>
	</defs>
	<mask maskUnits="userSpaceOnUse" x="0.5" y="0" width="21.5" height="21.5" id="SVGID_1_">
		<g class="st1">
			
				<image style="overflow:visible;" width="27" height="27" xlink:href="715CDA4D8707FA94.jpg"  transform="matrix(1 0 0 1 -2 -2.543)">
			</image>
		</g>
	</mask>
	<g class="st2">
		<path class="st3" d="M20,0L20,0H2.5h0c0,0-0.1,0-0.1,0C1.4,0.1,0.5,0.9,0.5,2v17.5c0,1.1,0.8,1.9,1.9,2c0,0,0.1,0,0.1,0h0H20h0
			c1.1,0,2-0.9,2-2V2C22,0.9,21.1,0,20,0z"/>
	</g>
</g>
<g class="st4">
	<defs>
		<rect id="SVGID_2_" x="2" y="1.5" width="18.6" height="18.3"/>
	</defs>
	<clipPath id="SVGID_3_" class="st5">
		<use xlink:href="#SVGID_2_"  style="overflow:visible;"/>
	</clipPath>
	<g id="Mask_Group_32" transform="translate(1.921 1.634)" class="st6">
		<path id="tick_mark-2" class="st0" d="M7,13.1c1.6-2.6,3.1-5.1,4.7-7.7c0.9-1.5,1.9-3.1,2.8-4.6c0.3-0.6,0.9-0.9,1.5-0.9
			c1,0,1.8,0.8,1.8,1.8c0,0.3-0.1,0.6-0.2,0.9c-0.5,0.8-1,1.6-1.4,2.4c-2.5,4.1-5,8.2-7.5,12.2c-0.3,0.6-1,1-1.7,1
			c-0.5,0-1-0.3-1.3-0.7c-1.5-2.1-3.1-4.1-4.6-6.2C0.7,10.7,0.7,9.9,1,9.3c0.3-0.6,1-1,1.7-1c0.5,0,1,0.3,1.3,0.8
			C5,10.4,6,11.7,6.9,13C7,13,7,13,7,13.1z"/>
	</g>
</g>
</svg>
