<svg id="Layer_1" data-name="Layer 1" xmlns="http://www.w3.org/2000/svg" viewBox="0 0 173.41 47.47"><defs><style>.cls-1{fill:#fff;}.cls-2{fill:#743a34;}.cls-3{fill:#f5a552;}.cls-4{fill:#713931;}.cls-5{fill:#ffe6c3;}.cls-6{fill:#7c3e32;}.cls-7{fill:none;}.cls-8{fill:#f5a849;}.cls-9{fill:#764137;}.cls-10{fill:#6d3521;}.cls-11{fill:#713830;}.cls-12{fill:#fcd58c;}.cls-13{fill:#fce4bd;}.cls-14{fill:#fbe5bf;}.cls-15{fill:#f6a943;}.cls-16{fill:#7c402e;}.cls-17{fill:#ea7f84;}.cls-18{fill:#ffe8c8;}.cls-19{fill:#212a58;}</style></defs><title>Logo_white</title><g id="Group_9521" data-name="Group 9521"><g id="Group_9517" data-name="Group 9517"><rect id="Rectangle_384" data-name="Rectangle 384" class="cls-1" x="91.54" y="40.03" width="6.33" height="6.33" rx="3.16" ry="3.16"/><rect id="Rectangle_385" data-name="Rectangle 385" class="cls-1" y="21.19" width="6.03" height="25.96"/><g id="Group_5743" data-name="Group 5743"><g id="Group_5742" data-name="Group 5742"><path id="Path_1695" data-name="Path 1695" class="cls-1" d="M29.24,31.75A7,7,0,0,0,28.43,28a3,3,0,0,0-2.72-1.23,8.34,8.34,0,0,0-4.08,1.07,12.43,12.43,0,0,0-3.47,2.82v17.8h-6v-26h5.38l.65,3.2A21.1,21.1,0,0,1,22,23.15,10.58,10.58,0,0,1,27.06,22,7.71,7.71,0,0,1,33,24.42q2.27,2.46,2.27,7v17h-6Z" transform="translate(-1 -1.33)"/><path id="Path_1696" data-name="Path 1696" class="cls-1" d="M13,19.28V14.73H28.73v-4.4H34.1v9Z" transform="translate(-1 -1.33)"/></g></g><path id="Path_1697" data-name="Path 1697" class="cls-1" d="M54.88,22h6v16a12.68,12.68,0,0,1-.69,4.31A8.47,8.47,0,0,1,58,45.57a10,10,0,0,1-3.85,2.15,18.63,18.63,0,0,1-5.7.77A16.52,16.52,0,0,1,44.17,48a9.54,9.54,0,0,1-3.36-1.63,7.39,7.39,0,0,1-2.2-2.73,8.7,8.7,0,0,1-.79-3.82A5.85,5.85,0,0,1,39.14,36a5.5,5.5,0,0,1,3.36-2,4.72,4.72,0,0,1-1.71-.77,7.39,7.39,0,0,1-1.51-1.39A6.34,6.34,0,0,1,38.21,30a6.12,6.12,0,0,1-.39-2.16,6,6,0,0,1,.49-2.43,5.57,5.57,0,0,1,1.39-2,6.58,6.58,0,0,1,2.22-1.32,8.72,8.72,0,0,1,3-.49,16,16,0,0,1,3.09.26,9.45,9.45,0,0,1,2.3.72l-.6,4.5a7.71,7.71,0,0,0-1.53-.47,7.3,7.3,0,0,0-1.4-.14,3.82,3.82,0,0,0-2.34.63,2,2,0,0,0-.81,1.69,2.36,2.36,0,0,0,1,2.06,3.8,3.8,0,0,0,2.23.72h3.52l.51,4.64H47.75a4.28,4.28,0,0,0-3,.93,3.22,3.22,0,0,0-1,2.55,3.46,3.46,0,0,0,1.39,2.94,5.62,5.62,0,0,0,3.48,1,6.35,6.35,0,0,0,4.68-1.57,5.74,5.74,0,0,0,1.58-4.22Z" transform="translate(-1 -1.33)"/><path id="Path_1698" data-name="Path 1698" class="cls-1" d="M81.21,42.21a6.18,6.18,0,0,1-8,0,5.66,5.66,0,0,1-1.44-4.15v-.59l-6-6.62v7.2q0,5.25,3,7.84t8.44,2.6q5.42,0,8.43-2.6c2-1.73,3-4.35,3-7.84V32L82.61,38.7A5.39,5.39,0,0,1,81.21,42.21Z" transform="translate(-1 -1.33)"/><path id="Path_1699" data-name="Path 1699" class="cls-1" d="M97.1,14.75h0a2,2,0,0,0-2.77-.18,1.53,1.53,0,0,0-.18.18l-7.9,8.68-4.68,5.13-3.79,4.16-4.63-5.07-2.54-2.79a1.94,1.94,0,0,0-2.13-.53,2,2,0,0,0-.82.53,2.46,2.46,0,0,0,0,3.24l.82.9,4.67,5.14,3.12,3.42a2,2,0,0,0,1.11.63,2,2,0,0,0,1.89-.62l2.26-2.48,4.71-5.17L97.1,18A2.47,2.47,0,0,0,97.1,14.75Z" transform="translate(-1 -1.33)"/><path id="Path_1700" data-name="Path 1700" class="cls-1" d="M109.2,47.39a10.51,10.51,0,0,1-4.1-3.92,11.48,11.48,0,0,1,0-11.32,10.49,10.49,0,0,1,4.1-3.91A13,13,0,0,1,120,27.8a9.85,9.85,0,0,1,3.72,2.79L120.6,33.5A6.71,6.71,0,0,0,115.3,31a6.91,6.91,0,0,0-3.5.86,6,6,0,0,0-2.39,2.42,7.61,7.61,0,0,0,0,7,6.09,6.09,0,0,0,2.39,2.41,7,7,0,0,0,3.49.87,6.68,6.68,0,0,0,5.3-2.52L123.73,45A9.72,9.72,0,0,1,120,47.83a12.94,12.94,0,0,1-10.79-.44Z" transform="translate(-1 -1.33)"/><path id="Path_1701" data-name="Path 1701" class="cls-1" d="M169.64,48.8l0-13.28-6.45,10.94h-2.29L154.45,35.8v13h-4.76V26.67h4.2l8.21,13.75,8.08-13.75h4.17l.06,22.13Z" transform="translate(-1 -1.33)"/><path id="Path_1702" data-name="Path 1702" class="cls-1" d="M147.1,30.61a11.79,11.79,0,0,0-4.59-4.3,14.55,14.55,0,0,0-13.14,0,11.82,11.82,0,0,0,0,20.93,14.61,14.61,0,0,0,13.14,0,11.86,11.86,0,0,0,4.59-4.3,12.2,12.2,0,0,0,0-12.33ZM143.27,41.2a7.78,7.78,0,0,1-3,3,9.06,9.06,0,0,1-8.61,0,7.85,7.85,0,0,1-3-3,9.51,9.51,0,0,1,0-8.86,7.85,7.85,0,0,1,3-3,9.06,9.06,0,0,1,8.61,0,7.78,7.78,0,0,1,3,3A9.51,9.51,0,0,1,143.27,41.2Z" transform="translate(-1 -1.33)"/><g id="Group_5810" data-name="Group 5810"><g id="Group_5793" data-name="Group 5793"><g id="Group_5744" data-name="Group 5744"><path id="Path_1703" data-name="Path 1703" class="cls-2" d="M142.29,34.64h0l0,0,.45-.17h0C142.54,34.37,142.41,34.47,142.29,34.64Z" transform="translate(-1 -1.33)"/></g><g id="Group_5745" data-name="Group 5745"><path id="Path_1704" data-name="Path 1704" class="cls-3" d="M142.28,34.67c-.07.3.13.5.27.72a4.59,4.59,0,0,1,.78,2.1.47.47,0,0,1,.17,0h0a5.81,5.81,0,0,0-1.19-2.86h0Z" transform="translate(-1 -1.33)"/></g><g id="Group_5791" data-name="Group 5791"><g id="Group_5746" data-name="Group 5746"><path id="Path_1705" data-name="Path 1705" class="cls-4" d="M143.12,41a.94.94,0,0,1,.11-.59,4.76,4.76,0,0,0-.48-6l-.44.17a5.77,5.77,0,0,1,1.19,2.86h0a3.64,3.64,0,0,1-1.72,3.58c-.2.14-.64.22-.41.57s.47,0,.7-.14.33-.2.56-.35a14.19,14.19,0,0,1,0,1.6c.19-.17.37-.36.55-.55C143.15,41.84,143.15,41.44,143.12,41Z" transform="translate(-1 -1.33)"/></g><g id="Group_5747" data-name="Group 5747"><path id="Path_1706" data-name="Path 1706" class="cls-2" d="M141,29.65a6.64,6.64,0,0,1,.69,4.22c-.1.54.24.63.56.78h0c.11-.18.25-.28.46-.15a1.82,1.82,0,0,1-.43-1.5,6,6,0,0,0-1-3.72C141.41,29.57,141.26,29.64,141,29.65Z" transform="translate(-1 -1.33)"/></g><g id="Group_5748" data-name="Group 5748"><path id="Path_1707" data-name="Path 1707" class="cls-5" d="M139.43,37.78a3,3,0,0,0-1.49-.19v.06c.37.47.15.9-.15,1.3-.13.19-.36.36-.2.59s.41.12.63.09c.57-.06.71-.48.77-1,0-.2,0-.48.29-.44s.24.33.2.5a13.7,13.7,0,0,1-.69,2.45,1.42,1.42,0,0,1-2.55.11,1,1,0,0,0-.64-.53,1.73,1.73,0,0,1-.64-.38c-.18-.13-.42-.33-.25-.56s.39,0,.55.14a1.08,1.08,0,0,0,1.49.1c.41-.3.39-.56-.08-.79s-.83-.48-.8-1.07a4.2,4.2,0,0,0-1.19.9,2.26,2.26,0,0,1-2.27.77c-.37-.08-.76-.12-1.14-.17a1.3,1.3,0,0,0-1.18.39c0,.07,0,.13.07.2a3,3,0,0,0,2.34,2.43c.26,0,.49.2.45.51s-.33.33-.58.35a2.47,2.47,0,0,0,.73,1.43,11.18,11.18,0,0,0,3,.31A10.25,10.25,0,0,0,141,44a9.41,9.41,0,0,0,1.37-1,10.81,10.81,0,0,0,.09-1.39c-.28,0-.43.2-.64.27s-.42.1-.55-.13a.44.44,0,0,1,.12-.56,2.79,2.79,0,0,1,.38-.3,3.51,3.51,0,0,0,1.57-3.27A4.87,4.87,0,0,1,139.43,37.78Zm-.79,5.47a2.23,2.23,0,0,1-1,.26.33.33,0,0,1-.14,0c-.31-.1-.89.12-.87-.38s.52-.12.79-.15a2.54,2.54,0,0,0,1.05-.22c.18-.1.41-.24.54,0s-.14.38-.33.49Z" transform="translate(-1 -1.33)"/></g><g id="Group_5749" data-name="Group 5749"><path id="Path_1708" data-name="Path 1708" class="cls-3" d="M143.33,37.49a.49.49,0,0,0-.23,0,5.46,5.46,0,0,1-3.94,0,1.52,1.52,0,0,0-1.2,0s0,.07,0,.1a3.24,3.24,0,0,1,1.48.19,4.83,4.83,0,0,0,3.92-.17v-.05A.14.14,0,0,0,143.33,37.49Z" transform="translate(-1 -1.33)"/></g><g id="Group_5790" data-name="Group 5790"><g id="Group_5750" data-name="Group 5750"><path id="Path_1709" data-name="Path 1709" class="cls-3" d="M141.13,29.79h.07l0-.07a.15.15,0,0,0,0,.06Z" transform="translate(-1 -1.33)"/></g><g id="Group_5751" data-name="Group 5751"><path id="Path_1710" data-name="Path 1710" class="cls-6" d="M133.4,37.74a.22.22,0,0,1-.18,0,.25.25,0,0,1-.14-.3s0,0,0,0c.11-.26.54-.3.95-.34a5,5,0,0,1,.77,0h0s.39,0,.31.41a.31.31,0,0,1-.09.11.45.45,0,0,1-.39.06Z" transform="translate(-1 -1.33)"/></g><g id="Group_5752" data-name="Group 5752"><path id="Path_1711" data-name="Path 1711" class="cls-7" d="M137.93,37.65v-.07h-.05A.21.21,0,0,1,137.93,37.65Z" transform="translate(-1 -1.33)"/></g><g id="Group_5753" data-name="Group 5753"><path id="Path_1712" data-name="Path 1712" class="cls-5" d="M142.07,41.54c-.23.12-.5.46-.7.14s.21-.43.41-.57a3.68,3.68,0,0,0,1.75-3.36,1.64,1.64,0,0,1,0-.22l-.16.07a3.51,3.51,0,0,1-1.57,3.27,2.79,2.79,0,0,0-.38.3.44.44,0,0,0-.12.56c.13.23.33.19.55.13s.36-.28.64-.27a10.81,10.81,0,0,1-.09,1.39l.21-.18a14.25,14.25,0,0,0,0-1.6C142.4,41.34,142.24,41.45,142.07,41.54Z" transform="translate(-1 -1.33)"/></g><g id="Group_5754" data-name="Group 5754"><path id="Path_1713" data-name="Path 1713" class="cls-5" d="M132.93,43.22c0-.3-.18-.46-.44-.51a3,3,0,0,1-2.34-2.43,1.18,1.18,0,0,1-.07-.2l-.13.16h0c.43,1.32,1,2.47,2.58,2.65.16,0,.34.07.33.28,0,.37-.33.2-.52.26,0,0,0,.09,0,.14C132.61,43.55,132.89,43.55,132.93,43.22Z" transform="translate(-1 -1.33)"/></g><g id="Group_5755" data-name="Group 5755"><path id="Path_1714" data-name="Path 1714" class="cls-3" d="M129.91,39.25a10.16,10.16,0,0,0-.08-1.23,1.28,1.28,0,0,0-.11-.2l-.06,0v0h0l0,.14a1.6,1.6,0,0,1,.05,1.37h0a2.42,2.42,0,0,0,.21.92A.89.89,0,0,1,130,40,4.23,4.23,0,0,1,129.91,39.25Z" transform="translate(-1 -1.33)"/></g><g id="Group_5756" data-name="Group 5756"><path id="Path_1715" data-name="Path 1715" class="cls-3" d="M142.28,34.67h0Z" transform="translate(-1 -1.33)"/></g><g id="Group_5757" data-name="Group 5757"><path id="Path_1716" data-name="Path 1716" class="cls-3" d="M131.26,39.69c.38.05.77.09,1.14.17a2.26,2.26,0,0,0,2.27-.77,4.2,4.2,0,0,1,1.19-.9h0l0,0a2.13,2.13,0,0,0-1.28.82,2.26,2.26,0,0,1-2.23.7,4,4,0,0,0-1.49-.11,1,1,0,0,0-.78.41l0,.12A1.3,1.3,0,0,1,131.26,39.69Z" transform="translate(-1 -1.33)"/></g><g id="Group_5758" data-name="Group 5758"><path id="Path_1717" data-name="Path 1717" class="cls-3" d="M143.34,37.49v.11l.16-.07h0A.32.32,0,0,0,143.34,37.49Z" transform="translate(-1 -1.33)"/></g><g id="Group_5759" data-name="Group 5759"><path id="Path_1718" data-name="Path 1718" class="cls-3" d="M130.08,40.09c0-.05,0-.09,0-.13a.75.75,0,0,0-.09.29h0A1,1,0,0,1,130.08,40.09Z" transform="translate(-1 -1.33)"/></g><g id="Group_5760" data-name="Group 5760"><path id="Path_1719" data-name="Path 1719" class="cls-3" d="M132.76,44.91a2.67,2.67,0,0,1-.45-.85.66.66,0,0,1-.07-.51,2.85,2.85,0,0,1-1.39-.6c-.29-.23-.47-.25-.72.07-.11.15-.23.3-.34.46a10.41,10.41,0,0,0,1.28.78A9.36,9.36,0,0,0,132.76,44.91Z" transform="translate(-1 -1.33)"/></g><g id="Group_5761" data-name="Group 5761"><path id="Path_1720" data-name="Path 1720" class="cls-3" d="M130.13,43c.25-.32.43-.3.72-.07a3,3,0,0,0,1.39.61.45.45,0,0,1,.1-.13,3,3,0,0,1-1.62-.81c-.28-.3-.41-.11-.57.1s-.34.43-.5.66l.14.1Z" transform="translate(-1 -1.33)"/></g><g id="Group_5762" data-name="Group 5762"><path id="Path_1721" data-name="Path 1721" class="cls-3" d="M132.31,44.06a2.67,2.67,0,0,0,.45.85c.11,0,.22.06.33.09a2.38,2.38,0,0,1-.73-1.43h-.12A.67.67,0,0,0,132.31,44.06Z" transform="translate(-1 -1.33)"/></g><g id="Group_5763" data-name="Group 5763"><path id="Path_1722" data-name="Path 1722" class="cls-3" d="M132.24,43.56h.12s0-.09,0-.14A.45.45,0,0,0,132.24,43.56Z" transform="translate(-1 -1.33)"/></g><g id="Group_5764" data-name="Group 5764"><path id="Path_1723" data-name="Path 1723" class="cls-8" d="M129.74,39.33a3.51,3.51,0,0,0-.05-1.37A4.21,4.21,0,0,0,129.74,39.33Z" transform="translate(-1 -1.33)"/></g><g id="Group_5765" data-name="Group 5765"><path id="Path_1724" data-name="Path 1724" class="cls-8" d="M129.74,39.33a1.6,1.6,0,0,0-.05-1.37A3.33,3.33,0,0,1,129.74,39.33Z" transform="translate(-1 -1.33)"/></g><g id="Group_5766" data-name="Group 5766"><path id="Path_1725" data-name="Path 1725" class="cls-4" d="M137.89,37.59c-.67.21-1.33.44-2,.6a3.31,3.31,0,0,0,.93,1c.47.28.43.75,0,1.05A1.56,1.56,0,0,1,135,40a1.17,1.17,0,0,0,.61.55,1.65,1.65,0,0,1,.79.64,1.09,1.09,0,0,0,1.2.59,1.3,1.3,0,0,0,1.14-1c.13-.72.44-1.39.51-2.12-.16.2-.21.46-.37.67a1,1,0,0,1-1,.4c-.35,0-.56-.32-.38-.57a3.46,3.46,0,0,0,.47-1.56l-.05-.06Zm-.19,3.47c.21,0,.17-.24.18-.4s-.16-.44.19-.47c.13,0,.32,0,.38.05s0,.4-.06.57a1,1,0,0,1-.76.65.86.86,0,0,1-1-.52c-.12-.28.2-.3.34-.42s.4-.14.44.18S137.43,41.11,137.7,41.06Z" transform="translate(-1 -1.33)"/></g><g id="Group_5767" data-name="Group 5767"><path id="Path_1726" data-name="Path 1726" class="cls-4" d="M137.85,39.78a1,1,0,0,0,1-.41c.16-.2.2-.46.37-.67-.07.74-.38,1.4-.51,2.12a1.31,1.31,0,0,1-1.14,1,1.09,1.09,0,0,1-1.2-.6,1.63,1.63,0,0,0-.79-.63A1.17,1.17,0,0,1,135,40a1.57,1.57,0,0,0,1.78.19c.46-.3.5-.78,0-1.05a3.44,3.44,0,0,1-.93-1h0c0,.58.35.85.8,1.07s.49.48.08.78a1.09,1.09,0,0,1-1.49-.09c-.16-.15-.34-.42-.55-.14s.07.42.25.56a1.58,1.58,0,0,0,.64.37,1,1,0,0,1,.64.54,1.43,1.43,0,0,0,1.93.56,1.49,1.49,0,0,0,.62-.67,15.14,15.14,0,0,0,.69-2.45c0-.18.08-.47-.2-.5s-.27.24-.29.43c-.06.49-.2.91-.77,1-.22,0-.49.13-.63-.09s.07-.4.2-.59c.3-.41.52-.84.15-1.31a3.29,3.29,0,0,1-.46,1.56C137.29,39.46,137.5,39.73,137.85,39.78Z" transform="translate(-1 -1.33)"/></g><g id="Group_5768" data-name="Group 5768"><path id="Path_1727" data-name="Path 1727" class="cls-4" d="M137.89,37.59h0a2.82,2.82,0,0,0-2,.59h0C136.56,38,137.22,37.8,137.89,37.59Z" transform="translate(-1 -1.33)"/></g><g id="Group_5769" data-name="Group 5769"><path id="Path_1728" data-name="Path 1728" class="cls-4" d="M135.87,38.19h0Z" transform="translate(-1 -1.33)"/></g><g id="Group_5770" data-name="Group 5770"><path id="Path_1729" data-name="Path 1729" class="cls-9" d="M138.43,42.76a2.5,2.5,0,0,1-1.05.22c-.27,0-.76-.33-.78.15s.55.28.86.38a.33.33,0,0,0,.14,0,2.23,2.23,0,0,0,1-.26c.19-.1.48-.21.33-.49S138.62,42.66,138.43,42.76Z" transform="translate(-1 -1.33)"/></g><g id="Group_5771" data-name="Group 5771"><path id="Path_1730" data-name="Path 1730" class="cls-10" d="M133.91,37.27h0Z" transform="translate(-1 -1.33)"/></g><g id="Group_5772" data-name="Group 5772"><path id="Path_1731" data-name="Path 1731" class="cls-6" d="M133.36,37.28Z" transform="translate(-1 -1.33)"/></g><g id="Group_5773" data-name="Group 5773"><path id="Path_1732" data-name="Path 1732" class="cls-6" d="M133.36,37.28Z" transform="translate(-1 -1.33)"/></g><g id="Group_5781" data-name="Group 5781"><g id="Group_5774" data-name="Group 5774"><path id="Path_1733" data-name="Path 1733" class="cls-3" d="M142.55,35.39c-.14-.22-.34-.42-.27-.72v0c-.32-.15-.66-.24-.56-.78a6.57,6.57,0,0,0-.68-4.22.24.24,0,0,0,0-.14l-.06,0c-.63-.73-.87-.71-1.6.06a11.34,11.34,0,0,0-1.57,2.25c-.11.2-.2.47-.49.35a4.53,4.53,0,0,0-3.06.11,2.59,2.59,0,0,0-1.6.84c-.28.42-.45.3-.76.17a16.73,16.73,0,0,0-1.95-.82c-.54-.17-1.19-.58-1.67-.07s-.21,1.18-.1,1.78a10.68,10.68,0,0,0,1.41,3.09h0c.26.14.28.32.1.55l.05,0a.45.45,0,0,1,.11.19,10.19,10.19,0,0,1,.08,1.24,4.34,4.34,0,0,0,.14.7,1,1,0,0,1,.79-.4,3.88,3.88,0,0,1,1.48.11,2.26,2.26,0,0,0,2.23-.7,2.17,2.17,0,0,1,1.28-.83l0,0a2.83,2.83,0,0,1,2-.59h.06a.52.52,0,0,1,0-.11,1.52,1.52,0,0,1,1.2.05,5.46,5.46,0,0,0,3.94,0,.45.45,0,0,1,.23,0A4.74,4.74,0,0,0,142.55,35.39Zm-11.75-.61c-.17.27-.32.55-.47.83s-.26.57-.45,1a9.07,9.07,0,0,1-1.11-2.6c-.17-.63,0-.84.65-.87a2,2,0,0,1,.92.17c1,.49,1.06.53.46,1.5ZM133.45,33a.18.18,0,0,1,.23.08c0,.1,0,.13-.1.13a1.05,1.05,0,0,1-.24-.06S133.4,33.07,133.45,33Zm1.6,4.54c-.08.1-.22.07-.66,0a2.4,2.4,0,0,0-.66,0c-.26.07-.4.22-.52.15a.25.25,0,0,1-.11-.18.31.31,0,0,1,.05-.21.4.4,0,0,1,.24-.16,2.38,2.38,0,0,1,.37-.06c.26,0,.29,0,.56,0s.56-.1.69,0a.4.4,0,0,1,.1.18.36.36,0,0,1-.06.25Zm-.4-1.17A.52.52,0,0,1,134,36h0c-.06-.34.22-.4.63-.44a.44.44,0,0,1,.47.4v0c.05.32-.21.43-.48.44Zm2.89-1.29a.57.57,0,0,1,.53-.6h0c.28,0,.42.13.43.43a.6.6,0,0,1-.59.53.3.3,0,0,1-.37-.23.57.57,0,0,1,0-.13Zm2.2.86c-.16.2-.42.21-.64.3s-.65.7-.88.34.37-.54.65-.75a1.76,1.76,0,0,1,.55-.27c.33-.09.4.09.32.38Zm-.88-3.78c-.2-.05-.32-.15-.21-.4a3.94,3.94,0,0,1,.9-1.44c.53-.53.86-.45,1.18.24a8.41,8.41,0,0,1,.53,2.85,11.17,11.17,0,0,0-2.4-1.25Z" transform="translate(-1 -1.33)"/></g><g id="Group_5775" data-name="Group 5775"><path id="Path_1734" data-name="Path 1734" class="cls-11" d="M139.26,29a8.14,8.14,0,0,0-1.61,2.12.67.67,0,0,1-.76.38,6.65,6.65,0,0,0-4.42,1.09.66.66,0,0,1-.8,0,9.85,9.85,0,0,0-2.1-.79c-1.53-.37-2.2.19-2,1.77a6.67,6.67,0,0,0,1.71,3.89h0l-.06.68a6.09,6.09,0,0,0,.71,3.32.75.75,0,0,1-.1,1c-.18.21-.35.44-.52.66.13.11.26.22.4.32l.5-.66c.17-.21.29-.4.57-.1a3.08,3.08,0,0,0,1.63.81c.18-.06.5.11.52-.26a.28.28,0,0,0,0-.13.36.36,0,0,0-.3-.14,4.26,4.26,0,0,1-2.39-2,5,5,0,0,1-.34-1.06,6,6,0,0,1-.13-1,5.81,5.81,0,0,1,0-.59.72.72,0,0,0,.16-.81.66.66,0,0,0-.33-.27,7.51,7.51,0,0,1-1.37-2.93c-.13-.64-.26-1.4.1-1.78s1.14-.1,1.68.06a20.65,20.65,0,0,1,1.95.82c.31.14.48.26.75-.16a2.6,2.6,0,0,1,1.6-.85,4.53,4.53,0,0,1,3.06-.11c.3.13.38-.15.49-.35a11.28,11.28,0,0,1,1.57-2.24c.45-.48.65-.62.86-.59a1.09,1.09,0,0,1,.52.32,1.81,1.81,0,0,1,.28.34l.09.17.4-.27c0-.1-.4-1-1.12-1.09A1.49,1.49,0,0,0,139.26,29Z" transform="translate(-1 -1.33)"/></g><g id="Group_5776" data-name="Group 5776"><path id="Path_1735" data-name="Path 1735" class="cls-12" d="M138.85,32.2a11.24,11.24,0,0,1,2.41,1.25,8.66,8.66,0,0,0-.53-2.85c-.33-.69-.65-.77-1.19-.24a4.22,4.22,0,0,0-.9,1.44C138.54,32.05,138.66,32.15,138.85,32.2Z" transform="translate(-1 -1.33)"/></g><g id="Group_5777" data-name="Group 5777"><path id="Path_1736" data-name="Path 1736" class="cls-12" d="M130.8,34.78c.6-1,.59-1-.46-1.5a1.85,1.85,0,0,0-.92-.18c-.64,0-.81.24-.65.87a9.07,9.07,0,0,0,1.11,2.6c.19-.4.31-.69.45-1S130.63,35.05,130.8,34.78Z" transform="translate(-1 -1.33)"/></g><g id="Group_5778" data-name="Group 5778"><path id="Path_1737" data-name="Path 1737" class="cls-13" d="M134.66,36.41c.27,0,.53-.11.49-.44a.44.44,0,0,0-.46-.41h0c-.4,0-.68.09-.63.43a.52.52,0,0,0,.61.42Z" transform="translate(-1 -1.33)"/></g><g id="Group_5779" data-name="Group 5779"><path id="Path_1738" data-name="Path 1738" class="cls-14" d="M137.92,35.49a.59.59,0,0,0,.59-.54c0-.3-.14-.46-.42-.43a.57.57,0,0,0-.55.59h0a.32.32,0,0,0,.25.37Z" transform="translate(-1 -1.33)"/></g><g id="Group_5780" data-name="Group 5780"><path id="Path_1739" data-name="Path 1739" class="cls-15" d="M133.68,33.12a.18.18,0,0,0-.23-.08,1,1,0,0,0-.11.15,1.05,1.05,0,0,0,.24.06C133.64,33.25,133.72,33.22,133.68,33.12Z" transform="translate(-1 -1.33)"/></g></g><g id="Group_5782" data-name="Group 5782"><path id="Path_1740" data-name="Path 1740" class="cls-16" d="M139.42,35.6a1.88,1.88,0,0,0-.55.27c-.28.21-.92.33-.65.75s.58-.18.88-.33.48-.1.64-.3a.36.36,0,0,0,0-.36S139.63,35.55,139.42,35.6Z" transform="translate(-1 -1.33)"/></g><g id="Group_5783" data-name="Group 5783"><path id="Path_1741" data-name="Path 1741" class="cls-6" d="M133.91,37.27Z" transform="translate(-1 -1.33)"/></g><g id="Group_5784" data-name="Group 5784"><path id="Path_1742" data-name="Path 1742" class="cls-6" d="M133.91,37.27Z" transform="translate(-1 -1.33)"/></g><g id="Group_5785" data-name="Group 5785"><path id="Path_1743" data-name="Path 1743" class="cls-6" d="M133.36,37.28Z" transform="translate(-1 -1.33)"/></g><g id="Group_5786" data-name="Group 5786"><path id="Path_1744" data-name="Path 1744" class="cls-6" d="M133.36,37.28Z" transform="translate(-1 -1.33)"/></g><g id="Group_5787" data-name="Group 5787"><path id="Path_1745" data-name="Path 1745" class="cls-6" d="M133.36,37.28Z" transform="translate(-1 -1.33)"/></g><g id="Group_5788" data-name="Group 5788"><path id="Path_1746" data-name="Path 1746" class="cls-6" d="M133.36,37.28Z" transform="translate(-1 -1.33)"/></g><g id="Group_5789" data-name="Group 5789"><path id="Path_1747" data-name="Path 1747" class="cls-17" d="M137,40.52c-.14.12-.46.14-.34.42a.84.84,0,0,0,1,.52,1,1,0,0,0,.76-.65c.08-.18.22-.39.06-.57s-.25-.06-.38-.05c-.35,0-.18.3-.19.47s0,.36-.18.4-.26-.18-.28-.36S137.24,40.29,137,40.52Z" transform="translate(-1 -1.33)"/></g></g></g><g id="Group_5792" data-name="Group 5792"><path id="Path_1748" data-name="Path 1748" class="cls-5" d="M142.49,43.81" transform="translate(-1 -1.33)"/></g></g><g id="Group_5801" data-name="Group 5801"><g id="Group_5794" data-name="Group 5794"><path id="Path_1749" data-name="Path 1749" class="cls-11" d="M130.83,48.48h-.05a1.34,1.34,0,0,1-.7-.22l-.26-.08a2.41,2.41,0,0,1-.95-.53.56.56,0,0,1-.11-.2,8.13,8.13,0,0,1-.28-3.18,2.67,2.67,0,0,1,1.17-2l0,0a2.05,2.05,0,0,1,.41-.16,2.3,2.3,0,0,1,1.55.16,2.33,2.33,0,0,1,.84.62,2.14,2.14,0,0,1,.3.44,11.4,11.4,0,0,1,.88,2.84v0a1.28,1.28,0,0,1-.9,1.46l-.09.07a1.06,1.06,0,0,1-1.09.57l-.08,0A1.39,1.39,0,0,1,130.83,48.48ZM129.77,47a3,3,0,0,0,.41.18l.25.08a.54.54,0,0,1,.2.1.31.31,0,0,0,.19.06.25.25,0,0,0,.19,0,.5.5,0,0,1,.2-.08l.19-.05a.34.34,0,0,0,.5-.26,1.12,1.12,0,0,0,.2-.18.57.57,0,0,1,.3-.15l.11,0a.38.38,0,0,0,.08-.27,14.76,14.76,0,0,0-.52-2,.54.54,0,0,1-.49-.58.48.48,0,0,1,.07-.23,1.47,1.47,0,0,0-.46-.32,1.22,1.22,0,0,0-.82-.1.85.85,0,0,0-.17.06,1.52,1.52,0,0,0-.6,1,.56.56,0,0,1,0,.49l-.08.1a7.48,7.48,0,0,0,.26,2.21Z" transform="translate(-1 -1.33)"/></g><g id="Group_5800" data-name="Group 5800"><g id="Group_5795" data-name="Group 5795"><path id="Path_1750" data-name="Path 1750" class="cls-18" d="M132.24,43.64a.86.86,0,0,1-.31.37s-2,.51-2.34.54a.87.87,0,0,1-.54-.15,7.34,7.34,0,0,0,.27,2.87,2.27,2.27,0,0,0,.69.36,2.81,2.81,0,0,1-.09-1.22.12.12,0,0,1,.15-.09.11.11,0,0,1,.09.13,2.22,2.22,0,0,0,.13,1.22.06.06,0,0,1,0,0,.86.86,0,0,0,1,0,2.2,2.2,0,0,1-.22-.7q-.06-.34-.09-.69a.13.13,0,0,1,.11-.13.12.12,0,0,1,.13.11,6.62,6.62,0,0,0,.08.66,2,2,0,0,0,.2.63l0,0a.51.51,0,0,0,.4,0,.5.5,0,0,0,.25-.3v0a2,2,0,0,0-.2-1.13A.12.12,0,0,1,132,46h0a.12.12,0,0,1,.16,0,2.13,2.13,0,0,1,.24,1,.73.73,0,0,0,.35-.15.88.88,0,0,0,.27-.73A10.75,10.75,0,0,0,132.24,43.64Z" transform="translate(-1 -1.33)"/></g><g id="Group_5796" data-name="Group 5796"><path id="Path_1751" data-name="Path 1751" class="cls-3" d="M130.16,46.45a.11.11,0,0,0-.11-.13.1.1,0,0,0-.12.09,2.65,2.65,0,0,0,.08,1.22l.3.08a.08.08,0,0,0,0,0A2.31,2.31,0,0,1,130.16,46.45Z" transform="translate(-1 -1.33)"/></g><g id="Group_5797" data-name="Group 5797"><path id="Path_1752" data-name="Path 1752" class="cls-3" d="M132.19,46.08A.12.12,0,0,0,132,46a.12.12,0,0,0-.05.16h0a2.13,2.13,0,0,1,.2,1.14v0l.25-.22a2.35,2.35,0,0,0-.24-1.05Z" transform="translate(-1 -1.33)"/></g><g id="Group_5798" data-name="Group 5798"><path id="Path_1753" data-name="Path 1753" class="cls-3" d="M131.3,47q-.06-.33-.09-.66a.11.11,0,0,0-.13-.11.12.12,0,0,0-.11.13c0,.23.05.46.09.68a.4.4,0,0,0,.47.64l0-.06A1.66,1.66,0,0,1,131.3,47Z" transform="translate(-1 -1.33)"/></g><g id="Group_5799" data-name="Group 5799"><path id="Path_1754" data-name="Path 1754" class="cls-3" d="M129.57,44.64a2.92,2.92,0,0,0,2.36-.63l.14-.11a1.2,1.2,0,0,0,.18-.26,1.94,1.94,0,0,0-.23-.33,1.83,1.83,0,0,0-.63-.47,1.7,1.7,0,0,0-1.15-.12,1.21,1.21,0,0,0-.3.11,2.09,2.09,0,0,0-.88,1.57A2.17,2.17,0,0,0,129.57,44.64Z" transform="translate(-1 -1.33)"/></g></g></g><g id="Group_5809" data-name="Group 5809"><g id="Group_5802" data-name="Group 5802"><path id="Path_1755" data-name="Path 1755" class="cls-11" d="M141.86,47a1.44,1.44,0,0,1-.64-.16l-.06,0a1,1,0,0,1-1-.54l-.06-.06a1.21,1.21,0,0,1-.42-.22,1.32,1.32,0,0,1-.44-1.17v0a10.64,10.64,0,0,1,.82-2.64,1.92,1.92,0,0,1,.28-.42,2.35,2.35,0,0,1,.8-.59,2.16,2.16,0,0,1,1.46-.15l.39.15,0,0a2.52,2.52,0,0,1,1.1,1.88,7.6,7.6,0,0,1-.26,3,.54.54,0,0,1-.1.2,2.59,2.59,0,0,1-.9.51l-.24.07a1.42,1.42,0,0,1-.67.2Zm-.67-1.27a.45.45,0,0,1,.16,0l.17,0a.5.5,0,0,1,.2.08.28.28,0,0,0,.15,0,.3.3,0,0,0,.16,0,.47.47,0,0,1,.2-.1,2.67,2.67,0,0,0,.59-.23,7,7,0,0,0,.23-2,.52.52,0,0,1-.09-.6,1.35,1.35,0,0,0-.53-.86l-.15-.06a1.12,1.12,0,0,0-.74.1,1.25,1.25,0,0,0-.39.27.53.53,0,0,1-.23.72.58.58,0,0,1-.17.06,11,11,0,0,0-.47,1.77.3.3,0,0,0,.05.21h0l.08,0a.55.55,0,0,1,.3.16l.19.16a.66.66,0,0,1,.17.23Zm-.1,0Zm-.06,0Z" transform="translate(-1 -1.33)"/></g><g id="Group_5808" data-name="Group 5808"><g id="Group_5803" data-name="Group 5803"><path id="Path_1756" data-name="Path 1756" class="cls-18" d="M140.56,42.45a.85.85,0,0,0,.29.34s1.82.47,2.17.5a.76.76,0,0,0,.5-.15,6.87,6.87,0,0,1-.25,2.67,2.43,2.43,0,0,1-.64.33,2.55,2.55,0,0,0,.08-1.13.11.11,0,0,0-.14-.08.11.11,0,0,0-.08.11,2.07,2.07,0,0,1-.12,1.13.09.09,0,0,0,0,0,.8.8,0,0,1-.91,0,1.85,1.85,0,0,0,.21-.64c0-.22.06-.43.08-.64a.11.11,0,0,0-.11-.11.1.1,0,0,0-.11.09c0,.21,0,.41-.08.62a1.9,1.9,0,0,1-.18.57l0,0a.48.48,0,0,1-.37,0,.49.49,0,0,1-.23-.28v0a1.89,1.89,0,0,1,.18-1.05.11.11,0,0,0,0-.15h0a.1.1,0,0,0-.15.05,1.94,1.94,0,0,0-.22,1,.58.58,0,0,1-.33-.14.77.77,0,0,1-.25-.67A9.93,9.93,0,0,1,140.56,42.45Z" transform="translate(-1 -1.33)"/></g><g id="Group_5804" data-name="Group 5804"><path id="Path_1757" data-name="Path 1757" class="cls-3" d="M142.49,45.05a.11.11,0,0,1,.1-.12.12.12,0,0,1,.12.08,2.54,2.54,0,0,1-.08,1.13l-.28.08s0,0,0,0A2.08,2.08,0,0,0,142.49,45.05Z" transform="translate(-1 -1.33)"/></g><g id="Group_5805" data-name="Group 5805"><path id="Path_1758" data-name="Path 1758" class="cls-3" d="M140.61,44.7a.11.11,0,1,1,.2.1h0a1.83,1.83,0,0,0-.19,1.05v0l-.23-.2a2,2,0,0,1,.22-1Z" transform="translate(-1 -1.33)"/></g><g id="Group_5806" data-name="Group 5806"><path id="Path_1759" data-name="Path 1759" class="cls-3" d="M141.44,45.56c0-.2.06-.4.08-.61a.1.1,0,0,1,.12-.09.1.1,0,0,1,.1.11c0,.21-.05.42-.08.63a1.84,1.84,0,0,1-.21.65l-.23-.06a.09.09,0,0,0,0,0A1.65,1.65,0,0,0,141.44,45.56Z" transform="translate(-1 -1.33)"/></g><g id="Group_5807" data-name="Group 5807"><path id="Path_1760" data-name="Path 1760" class="cls-3" d="M143,43.37a2.74,2.74,0,0,1-2.19-.58.69.69,0,0,1-.13-.11,1.19,1.19,0,0,1-.16-.23,1.11,1.11,0,0,1,.21-.32,1.76,1.76,0,0,1,.58-.43,1.59,1.59,0,0,1,1.07-.11,1,1,0,0,1,.27.1,1.92,1.92,0,0,1,.82,1.45A1.58,1.58,0,0,1,143,43.37Z" transform="translate(-1 -1.33)"/></g></g></g></g><g id="Group_5811" data-name="Group 5811"><path id="Path_1761" data-name="Path 1761" class="cls-1" d="M43.07,15.42a1.86,1.86,0,0,1,.7.14,1.84,1.84,0,0,1,.57.38,2,2,0,0,1,.38.57,1.68,1.68,0,0,1,.13.7,1.43,1.43,0,0,1-.14.68,1.77,1.77,0,0,1-2.32.94,1.63,1.63,0,0,1-.55-.39,1.79,1.79,0,0,1-.38-.56,1.55,1.55,0,0,1-.14-.67V7.67h1.3v7.81A1.74,1.74,0,0,1,43.07,15.42Zm0,2.38a.66.66,0,0,0,.44-.17.53.53,0,0,0,.18-.42.62.62,0,0,0-.62-.62h0a.51.51,0,0,0-.42.18.56.56,0,0,0-.17.44.52.52,0,0,0,.17.42A.59.59,0,0,0,43.07,17.8Z" transform="translate(-1 -1.33)"/><path id="Path_1762" data-name="Path 1762" class="cls-1" d="M56,2.07V18.84h-7.9V11A1.63,1.63,0,0,1,46.91,11a1.79,1.79,0,0,1-.56-.38A1.76,1.76,0,0,1,46,10a1.56,1.56,0,0,1-.14-.68A1.81,1.81,0,0,1,46,8.65a1.74,1.74,0,0,1,.92-1,1.65,1.65,0,0,1,.69-.15,1.86,1.86,0,0,1,.7.14,1.8,1.8,0,0,1,1,1,1.86,1.86,0,0,1,.14.7v8.2h5.27V2.07ZM47.59,9.93A.6.6,0,0,0,48,9.77a.55.55,0,0,0,.18-.43A.55.55,0,0,0,48,8.9a.62.62,0,0,0-.44-.18.54.54,0,0,0-.42.18.57.57,0,0,0-.17.44.58.58,0,0,0,.59.59Z" transform="translate(-1 -1.33)"/><path id="Path_1763" data-name="Path 1763" class="cls-1" d="M61.63,7.53A3.76,3.76,0,0,1,63,7.77a4.13,4.13,0,0,1,1.15.67,4.63,4.63,0,0,1,.88,1,4,4,0,0,1,.5,1.3l-1.28.36a2.84,2.84,0,0,0-.91-1.67A2.66,2.66,0,0,0,62.52,9a2.31,2.31,0,0,0-.89-.17,2.36,2.36,0,0,0-.87.17,3,3,0,0,0-.76.46,2.91,2.91,0,0,0-.58.68,2.38,2.38,0,0,0-.35.8l2.24.19,2.23.18v5.87a1.64,1.64,0,0,1-.15.68,1.93,1.93,0,0,1-.37.57,1.82,1.82,0,0,1-.56.39,1.6,1.6,0,0,1-.68.15,1.65,1.65,0,0,1-.69-.15,1.81,1.81,0,0,1-.57-.39,1.79,1.79,0,0,1-.38-.56,1.74,1.74,0,0,1,0-1.38,1.84,1.84,0,0,1,.38-.57,2.22,2.22,0,0,1,.57-.39,1.63,1.63,0,0,1,1.13-.08V12.5L60,12.32l-2.2-.17c0-.12,0-.22,0-.29a.88.88,0,0,1,0-.16v-.48a3.66,3.66,0,0,1,.1-.74,3.43,3.43,0,0,1,.25-.7A4.13,4.13,0,0,1,59,8.6a4,4,0,0,1,1.22-.78,3.64,3.64,0,0,1,.71-.22A3.81,3.81,0,0,1,61.63,7.53Zm.15,10.27a.53.53,0,0,0,.42-.18.56.56,0,0,0,.17-.44.62.62,0,0,0-.59-.63.64.64,0,0,0-.24.05.7.7,0,0,0-.34.34.62.62,0,0,0,.13.68.59.59,0,0,0,.45.18Z" transform="translate(-1 -1.33)"/><path id="Path_1764" data-name="Path 1764" class="cls-1" d="M65.29,1.33V6.05h-9c.06-.21.1-.39.15-.54a2.53,2.53,0,0,1,.12-.36l.1-.28a4.11,4.11,0,0,1,.69-1.09,4.53,4.53,0,0,1,1-.83,4.74,4.74,0,0,1,1.17-.52,4.56,4.56,0,0,1,3.09.18,4.67,4.67,0,0,1,1.5,1V1.33ZM63.37,4.74a3.72,3.72,0,0,0-1.14-.87,3.41,3.41,0,0,0-.68-.23,3,3,0,0,0-.72-.09,3.3,3.3,0,0,0-2.51,1.19Z" transform="translate(-1 -1.33)"/><path id="Path_1765" data-name="Path 1765" class="cls-1" d="M75.34,7.65V18.84H67.47V14.55a1.71,1.71,0,0,1,.27-.93h0a1.74,1.74,0,0,1,.11-.18l.15-.17a3.09,3.09,0,0,1-.87-1,3.18,3.18,0,0,1-.34-2.18,3,3,0,0,1,.18-.6,3.2,3.2,0,0,1,.68-1,3.62,3.62,0,0,1,1-.69,3,3,0,0,1,.58-.18,2.79,2.79,0,0,1,.64-.07,1.86,1.86,0,0,1,.7.14,1.7,1.7,0,0,1,.57.39,1.73,1.73,0,0,1,.38.57,1.86,1.86,0,0,1,.14.7,1.64,1.64,0,0,1-.15.68,1.76,1.76,0,0,1-1.63,1.06,1.6,1.6,0,0,1-.53-.09,1.47,1.47,0,0,1-.48-.25,2,2,0,0,1-.4-.37,1.83,1.83,0,0,1-.25-.48,1.92,1.92,0,0,0-.19.85,1.85,1.85,0,0,0,1.84,1.84h1.78v1.34H69.31a.4.4,0,0,0-.15,0,.66.66,0,0,0-.17.12.8.8,0,0,0-.15.21.77.77,0,0,0-.06.3v2.93H74V7.64ZM69.45,8.9a.58.58,0,0,0-.17.45.57.57,0,0,0,.6.58.61.61,0,0,0,.43-.17.48.48,0,0,0,.19-.41.53.53,0,0,0,0-.25.56.56,0,0,0-.14-.2.67.67,0,0,0-.19-.14.69.69,0,0,0-.24,0A.57.57,0,0,0,69.45,8.9Z" transform="translate(-1 -1.33)"/><path id="Path_1766" data-name="Path 1766" class="cls-1" d="M87.44,7.61V18.84H79.55V11a1.53,1.53,0,0,1-.47.07,1.5,1.5,0,0,1-.69-.14,1.78,1.78,0,0,1-.93-.94,1.85,1.85,0,0,1-.14-.69,1.81,1.81,0,0,1,.14-.69,2.06,2.06,0,0,1,.38-.56,1.79,1.79,0,0,1,.56-.38,1.72,1.72,0,0,1,.68-.14,1.77,1.77,0,0,1,1.26.52,1.75,1.75,0,0,1,.52,1.24v8.23h5.27V7.61ZM79.08,9.93a.52.52,0,0,0,.24,0,.66.66,0,0,0,.2-.14.61.61,0,0,0,.19-.43.56.56,0,0,0-.19-.43.59.59,0,0,0-.44-.16.57.57,0,0,0-.6.55v.05a.63.63,0,0,0,.17.43.55.55,0,0,0,.43.18Z" transform="translate(-1 -1.33)"/></g><g id="Group_5812" data-name="Group 5812"><path id="Path_1767" data-name="Path 1767" class="cls-19" d="M96.63,46.69a.8.8,0,0,1-.45-.14.64.64,0,0,0-.33-.1,1.14,1.14,0,0,0-.41,0,.71.71,0,0,0-.18.08.84.84,0,0,1-.53.13.75.75,0,0,1-.3-.09.44.44,0,0,1-.16-.5.85.85,0,0,1,.15-.3,5,5,0,0,1,.5-.73,2.85,2.85,0,0,1,.23-.26.84.84,0,0,1,.48-.19,1.12,1.12,0,0,1,.48.07.66.66,0,0,1,.2.14,5.26,5.26,0,0,1,.64.85,3.24,3.24,0,0,1,.2.36.43.43,0,0,1-.19.59.44.44,0,0,1-.15.05Z" transform="translate(-1 -1.33)"/><path id="Path_1768" data-name="Path 1768" class="cls-19" d="M95.91,42.68a.49.49,0,0,1,.25-.24.38.38,0,0,1,.45.07.83.83,0,0,1,.26.45,1.34,1.34,0,0,1,0,.77.76.76,0,0,1-.27.41.41.41,0,0,1-.54,0,1,1,0,0,1-.26-.47.45.45,0,0,0,0-.08A1.23,1.23,0,0,1,95.91,42.68Z" transform="translate(-1 -1.33)"/><path id="Path_1769" data-name="Path 1769" class="cls-19" d="M95.38,44a.58.58,0,0,1-.25.24.42.42,0,0,1-.46-.08.81.81,0,0,1-.25-.45,1.35,1.35,0,0,1,0-.77.8.8,0,0,1,.27-.41.41.41,0,0,1,.54,0,1,1,0,0,1,.26.47.45.45,0,0,0,0,.08A1.26,1.26,0,0,1,95.38,44Z" transform="translate(-1 -1.33)"/><path id="Path_1770" data-name="Path 1770" class="cls-19" d="M97.75,44.23a1.11,1.11,0,0,1-.44.82.52.52,0,0,1-.23.1.34.34,0,0,1-.36-.22.72.72,0,0,1,0-.41,1.07,1.07,0,0,1,.37-.65.53.53,0,0,1,.21-.11.33.33,0,0,1,.43.21v0l0,.1A.62.62,0,0,0,97.75,44.23Z" transform="translate(-1 -1.33)"/><path id="Path_1771" data-name="Path 1771" class="cls-19" d="M94.58,44.89a.33.33,0,0,1-.49.22.73.73,0,0,1-.3-.25,1,1,0,0,1-.24-.68.6.6,0,0,1,.08-.29.35.35,0,0,1,.45-.12.86.86,0,0,1,.36.32,1.14,1.14,0,0,1,.16.38A.67.67,0,0,1,94.58,44.89Z" transform="translate(-1 -1.33)"/></g></g></g></svg>