<?xml version="1.0" encoding="utf-8"?>
<!-- Generator: Adobe Illustrator 22.0.0, SVG Export Plug-In . SVG Version: 6.00 Build 0)  -->
<svg version="1.1" id="Layer_1" xmlns="http://www.w3.org/2000/svg" xmlns:xlink="http://www.w3.org/1999/xlink" x="0px" y="0px"
	 viewBox="0 0 179.6 325.1" style="enable-background:new 0 0 179.6 325.1;" xml:space="preserve">
<style type="text/css">
	.st0{opacity:0.5;fill:#C4D0F5;enable-background:new    ;}
</style>
<path id="Intersection_1" class="st0" d="M3.2,321.3c-4.5-4.8-4.2-12.3,0.6-16.7c4.8-4.5,12.3-4.2,16.7,0.6
	c4.5,4.8,4.2,12.3-0.6,16.7c-2.2,2-5.1,3.2-8.1,3.2C8.6,325.1,5.4,323.7,3.2,321.3z M55.2,272.8c-4.5-4.8-4.2-12.3,0.6-16.7
	c4.8-4.5,12.3-4.2,16.7,0.6c4.5,4.8,4.2,12.3-0.6,16.7c-2.2,2-5.1,3.2-8.1,3.2C60.5,276.6,57.4,275.2,55.2,272.8L55.2,272.8z
	 M107.1,224.3c-4.5-4.8-4.2-12.3,0.6-16.7c4.8-4.5,12.3-4.2,16.7,0.6s4.2,12.3-0.6,16.7c-2.2,2-5.1,3.2-8.1,3.2
	C112.5,228.1,109.4,226.7,107.1,224.3L107.1,224.3z M6.7,220.8c-4.5-4.8-4.2-12.3,0.6-16.7c4.8-4.5,12.3-4.2,16.7,0.6
	c4.5,4.8,4.2,12.3-0.6,16.7c-2.2,2-5.1,3.2-8.1,3.2C12.1,224.6,8.9,223.2,6.7,220.8L6.7,220.8z M159.1,175.9
	c-4.5-4.8-4.2-12.3,0.6-16.7s12.3-4.2,16.7,0.6s4.2,12.3-0.6,16.7c-2.2,2-5.1,3.2-8.1,3.2C164.5,179.6,161.4,178.3,159.1,175.9
	L159.1,175.9z M58.7,172.4c-4.5-4.8-4.2-12.3,0.6-16.7s12.3-4.2,16.7,0.6c4.5,4.8,4.2,12.3-0.6,16.7c-2.2,2-5.1,3.2-8.1,3.2
	C64.1,176.1,60.9,174.8,58.7,172.4L58.7,172.4z M110.7,123.9c-4.5-4.8-4.2-12.3,0.6-16.7c4.8-4.5,12.3-4.2,16.7,0.6
	c4.5,4.8,4.2,12.3-0.6,16.7c-2.2,2-5.1,3.2-8.1,3.2C116,127.7,112.9,126.3,110.7,123.9z M10.2,120.4c-4.5-4.8-4.2-12.3,0.6-16.7
	c4.8-4.5,12.3-4.2,16.7,0.6c4.5,4.8,4.2,12.3-0.6,16.7c-2.2,2-5.1,3.2-8.1,3.2C15.6,124.1,12.4,122.8,10.2,120.4z M62.2,71.9
	c-4.5-4.8-4.2-12.3,0.6-16.7c4.8-4.5,12.3-4.2,16.7,0.6c4.5,4.8,4.2,12.3-0.6,16.7c-2.2,2-5.1,3.2-8.1,3.2
	C67.6,75.7,64.4,74.3,62.2,71.9z M13.7,19.9C9.2,15.1,9.5,7.6,14.3,3.2C19.1-1.3,26.6-1,31,3.8s4.2,12.3-0.6,16.7
	c-2.2,2-5.1,3.2-8.1,3.2C19.1,23.7,15.9,22.3,13.7,19.9z"/>
</svg>
