<svg xmlns="http://www.w3.org/2000/svg" xmlns:xlink="http://www.w3.org/1999/xlink" width="548.516" height="277.938" viewBox="0 0 548.516 277.938">
  <defs>
    <linearGradient id="linear-gradient" y1="0.5" x2="1" y2="0.5" gradientUnits="objectBoundingBox">
      <stop offset="0.035" stop-color="#f0efef" stop-opacity="0.502"/>
      <stop offset="0.299" stop-color="#e9eced" stop-opacity="0.502"/>
      <stop offset="0.499" stop-color="#d6e6e9" stop-opacity="0.502"/>
      <stop offset="0.678" stop-color="#b6dbe3" stop-opacity="0.502"/>
      <stop offset="0.844" stop-color="#88cbd9" stop-opacity="0.502"/>
      <stop offset="0.986" stop-color="#54bacf" stop-opacity="0.502"/>
    </linearGradient>
  </defs>
  <g id="Group_9526" data-name="Group 9526" transform="translate(-908 -933.021)">
    <g id="Group_8292" data-name="Group 8292" transform="translate(1068.624 9.084)">
      <ellipse id="Ellipse_194" data-name="Ellipse 194" cx="274.258" cy="29.399" rx="274.258" ry="29.399" transform="translate(-160.624 1132.247)" opacity="0.23" fill="url(#linear-gradient)"/>
      <path id="Path_26713" data-name="Path 26713" d="M387.189,1156.644c-.758,6.354-51.282-3.374-111.495,21.169-22.1,9.009-24.53,14.085-46.326,20.24-33.07,9.34-63.99,7.967-81.071,7.084a310.084,310.084,0,0,1-36.85-4.048c-50.559-8.9-64.279-25.335-97.917-21.252a52.035,52.035,0,0,0-9.944,2.018,79.086,79.086,0,0,0-8.305,3.165c-8.4,3.941-31.955,8.532-40.138,9.354-31.259,3.14-86.294-23.791-83.22-39.468,1.276-6.507,13.007-13.338,55.831-16.192l361.628-8.465C369.828,1145.523,387.645,1152.823,387.189,1156.644Z" transform="translate(-24.062 -3.894)" fill="#2f922c" opacity="0.13"/>
      <path id="Path_26714" data-name="Path 26714" d="M445.165,1149.283c-.621,5.364-42.025-2.848-91.37,17.87-18.113,7.605-20.1,11.89-37.964,17.086-27.1,7.884-52.44,6.725-66.438,5.98a247,247,0,0,1-30.2-3.417c-41.433-7.51-52.676-21.386-80.243-17.94a41.564,41.564,0,0,0-8.149,1.7,63.666,63.666,0,0,0-6.806,2.671c-6.881,3.327-26.188,7.2-32.893,7.9-25.616,2.65-70.718-20.083-68.2-33.317,1.046-5.493,10.659-11.259,45.754-13.669L365.011,1127C430.938,1139.9,445.538,1146.058,445.165,1149.283Z" transform="translate(-136.128 -1.484)" fill="#2f922c" opacity="0.55"/>
      <path id="Path_26715" data-name="Path 26715" d="M516.6,1143.678c-.555,4.5-37.592-2.387-81.73,14.979-16.2,6.375-17.982,9.966-33.959,14.321-24.242,6.609-46.908,5.637-59.428,5.012a235.23,235.23,0,0,1-27.013-2.864c-37.062-6.295-47.119-17.926-71.777-15.037a39.328,39.328,0,0,0-7.289,1.428,59.249,59.249,0,0,0-6.088,2.239c-6.155,2.789-23.425,6.037-29.423,6.619-22.914,2.222-63.257-16.834-61-27.927.935-4.6,9.535-9.438,40.926-11.457L444.908,1125C503.879,1135.81,516.939,1140.975,516.6,1143.678Z" transform="translate(-222.217)" fill="#2f922c" opacity="0.55"/>
      <path id="Path_26716" data-name="Path 26716" d="M607.535,1143.915c-.494,3.775-33.42-2-72.661,12.577-14.4,5.352-15.987,8.368-30.191,12.025-21.552,5.549-41.7,4.733-52.834,4.208a220.85,220.85,0,0,1-24.016-2.4c-32.95-5.286-41.891-15.052-63.812-12.626-10.233,1.132-8.311,3.263-18.526,4.209-25.453,2.357-52.282-9.491-51.784-17.988.149-2.55,2.824-5.895,13.583-9.537l236.5-6.144C596.221,1137.308,607.832,1141.645,607.535,1143.915Z" transform="translate(-337.176 -2.399)" fill="#2f922c" opacity="0.75"/>
    </g>
    <g id="Group_8340" data-name="Group 8340" transform="translate(-195.92 1015.644)">
      <path id="Path_26807" data-name="Path 26807" d="M1488.442,479.974c-.126,3.609-19.418,5.957-40.111,8.4-29.89,3.523-36.225,2.308-64.906,4.725-39.284,3.31-49.455,7.447-70.727,2.815-2.518-.548-29.255-6.5-28.771-12.943.791-10.524,73.658-14.019,102.054-15.381a356.852,356.852,0,0,1,66.327,2.99C1460.825,471.76,1488.594,475.624,1488.442,479.974Z" transform="translate(0 -352.829)" fill="#122245" opacity="0.45"/>
      <g id="Group_8336" data-name="Group 8336" transform="translate(1298.297 -82.623)">
        <ellipse id="Ellipse_195" data-name="Ellipse 195" cx="66.596" cy="8.605" rx="66.596" ry="8.605" transform="translate(18.49 196.104)" fill="#040506" opacity="0.4"/>
        <g id="Group_8335" data-name="Group 8335" transform="translate(0)">
          <g id="Group_8316" data-name="Group 8316" transform="translate(124.716 143.221)">
            <path id="Path_26808" data-name="Path 26808" d="M1678.457,346.371s12.505,28.493,35.16,17.367,17.588-32.274,14.352-36.947-25.714-6.648-23.891,9.012-17.291-1.1-17.291-1.1" transform="translate(-1676.208 -321.185)" fill="#f99c4b"/>
            <path id="Path_26809" data-name="Path 26809" d="M1699.311,364.542a25.469,25.469,0,0,0,11.269-2.812c11.735-5.763,16.027-14.006,17.56-19.907,2.333-8.976-.2-17.238-2.351-20.338-2.823-4.076-13.067-5.651-19.928-3.063-5.948,2.244-8.805,7.08-8.044,13.615.33,2.838-.186,3.9-.505,4.072-1.766.929-8.357-3-13.071-7.124a2.248,2.248,0,0,0-2.964,3.382c2.884,2.53,12.718,10.562,18.124,7.724,2.426-1.274,3.4-4.158,2.882-8.574-.52-4.473,1.169-7.38,5.166-8.888,6.029-2.274,13.57-.135,14.644,1.416,1.372,1.981,3.7,8.922,1.7,16.647-1.886,7.258-7,12.978-15.191,17-5.309,2.607-10.442,3.038-15.256,1.278-10.785-3.941-16.794-17.394-16.854-17.53a2.248,2.248,0,0,0-4.118,1.807c.275.624,6.86,15.354,19.429,19.947A21.749,21.749,0,0,0,1699.311,364.542Z" transform="translate(-1672.18 -317.16)" fill="#552b26"/>
          </g>
          <g id="Group_8317" data-name="Group 8317" transform="translate(13.803 92.975)">
            <path id="Path_26810" data-name="Path 26810" d="M1432.973,273.483l12.468,9.716,32.218,1.279,24.057-9.23c3.808-44.825-31.662-75.118-31.662-75.118l-27.815-7.316-68.862-9.633-4.52.352" transform="translate(-1366.608 -180.933)" fill="#f99c4b"/>
            <path id="Path_26811" data-name="Path 26811" d="M1473.631,282.7a2.246,2.246,0,0,0,.805-.149l24.056-9.23a2.248,2.248,0,0,0,1.435-1.909c2.02-23.781-6.9-43.452-14.747-55.766a102.131,102.131,0,0,0-17.7-21.252,2.244,2.244,0,0,0-.888-.464l-27.815-7.316a2.308,2.308,0,0,0-.26-.053l-68.862-9.633a2.245,2.245,0,0,0-.486-.015l-4.521.352a2.248,2.248,0,1,0,.35,4.483l4.276-.333,68.488,9.581,27.168,7.146a101.944,101.944,0,0,1,16.531,20.043c7.277,11.461,15.539,29.6,14.087,51.449l-22.3,8.554-31.033-1.232-11.9-9.271a2.249,2.249,0,0,0-2.764,3.547l12.467,9.716a2.249,2.249,0,0,0,1.293.473l32.217,1.279Z" transform="translate(-1362.58 -176.905)" fill="#552b26"/>
          </g>
          <path id="Path_26812" data-name="Path 26812" d="M1388.979,351.16a77.625,77.625,0,0,0,2.748,24.47c3.622,12.149-1.749,22.279,4,22.279s21.871,5.087,19.928-11.578-4.742-16.164-4.742-16.164" transform="translate(-1365.659 -195.758)" fill="#f99c4b"/>
          <g id="Group_8318" data-name="Group 8318" transform="translate(27.216 187.858)">
            <path id="Path_26813" data-name="Path 26813" d="M1402.869,456.05c-4.42,0-2.264-6-2.682-14.293,2.141,1.44,4.369,2.327,6.179,1.676,3.128-1.124,10.459-.509,16.469,1.414C1424.491,461.056,1408.571,456.05,1402.869,456.05Z" transform="translate(-1400.02 -441.757)" fill="#fee3bc"/>
          </g>
          <path id="Path_26814" data-name="Path 26814" d="M1401.179,396.866c3.586,0,7.224-.668,9.8-3.254,2.506-2.515,3.471-6.407,2.87-11.566-1.566-13.431-3.692-16.431-5.156-17.519a2.839,2.839,0,0,0-2.215-.6,2.248,2.248,0,0,0-.383,4.323c.443.608,2.022,3.46,3.288,14.314.435,3.73-.1,6.379-1.589,7.872-2.592,2.6-8.187,1.968-12.273,1.508a36.472,36.472,0,0,0-3.834-.311,1.415,1.415,0,0,1-.332-.03c-.383-.638-.261-3.263-.172-5.191.185-4.006.439-9.492-1.338-15.452a75.711,75.711,0,0,1-2.66-23.669,2.248,2.248,0,1,0-4.485-.318,79.187,79.187,0,0,0,2.836,25.271c1.559,5.228,1.336,10.069,1.155,13.96s-.31,6.713,1.433,8.538a4.715,4.715,0,0,0,3.563,1.387c.826,0,2.042.137,3.33.283A54.94,54.94,0,0,0,1401.179,396.866Z" transform="translate(-1361.623 -191.731)" fill="#552b26"/>
          <path id="Path_26815" data-name="Path 26815" d="M1356.849,203.928l-.655-.425s-.035.23-.085.665c-.479,4.017-2.5,25.521,6.266,44.007,9.717,20.489,18.836,41.813,34.074,49.372,12.76,6.335,41.309,2.5,41.309,2.5s28.464,6.63,41.638-2.523h.005a16.634,16.634,0,0,0,2.139-1.769c11.891-11.721,0-11.082,0-11.082" transform="translate(-1344.276 -100.999)" fill="#f99c4b"/>
          <g id="Group_8319" data-name="Group 8319" transform="translate(11.291 98.172)">
            <path id="Path_26816" data-name="Path 26816" d="M1362.375,240.415c9.717,20.489,18.836,41.813,34.074,49.372,12.76,6.335,41.309,2.5,41.309,2.5s28.464,6.63,41.638-2.523c-16.373-6.989-38.356.37-38.356.37s-7.994,3-21.734-14.984c-11.391-14.9-2.353-25.876,9.328-32.5a61.133,61.133,0,0,1,7.409-3.542c14.489-5.806,13.24-27.919,13.24-27.919l-77.691-19.78-14.744,4.756-.74.24C1355.63,200.425,1353.607,221.929,1362.375,240.415Z" transform="translate(-1355.567 -191.412)" fill="#fee3bc"/>
          </g>
          <path id="Path_26817" data-name="Path 26817" d="M1349.45,204.636c.125-2.228.3-3.876.4-4.751.056-.485.095-.742.095-.742a2.25,2.25,0,0,1,3.446-1.552l.655.425a2.249,2.249,0,0,1,.131,3.682c-.586,6.063-1.606,25.025,6.2,41.488q1.067,2.247,2.124,4.5c8.6,18.27,17.494,37.161,30.919,43.821,11.994,5.955,39.731,2.32,40.01,2.283a2.247,2.247,0,0,1,.809.039c.275.063,27.632,6.3,39.845-2.18.028-.02.056-.038.084-.056a14.244,14.244,0,0,0,1.764-1.468c4.958-4.887,4.609-6.579,4.6-6.594a4.593,4.593,0,0,0-2.9-.642,2.248,2.248,0,1,1-.241-4.49c.577-.032,5.7-.2,7.258,3.314,1.692,3.83-2.362,8.462-5.56,11.614a18.86,18.86,0,0,1-2.428,2.009c-.035.024-.07.047-.105.07-5.843,4.01-14.239,5.187-22.091,5.187a104.578,104.578,0,0,1-20.841-2.3c-3.71.467-29.672,3.455-42.2-2.765-14.827-7.355-24.06-26.967-32.988-45.933q-1.056-2.246-2.118-4.489c-6.908-14.564-7.324-30.869-6.914-39.6A2.02,2.02,0,0,0,1349.45,204.636Z" transform="translate(-1340.251 -96.974)" fill="#552b26"/>
          <path id="Path_26818" data-name="Path 26818" d="M1695.781,363.67s14.486,19.772,2.559,34.511c0,0,1.812,9.541-10.179,9.541s-11.664-2.249-12.14-24.256" transform="translate(-1549.929 -203.787)" fill="#f99c4b"/>
          <g id="Group_8320" data-name="Group 8320" transform="translate(126.903 192.51)">
            <path id="Path_26819" data-name="Path 26819" d="M1689.612,466.167c-7.685,0-10.31-.924-11.33-7.381a15.264,15.264,0,0,1,5.845-3.063,22.144,22.144,0,0,1,15.663.9S1701.6,466.167,1689.612,466.167Z" transform="translate(-1678.282 -454.741)" fill="#fee3bc"/>
          </g>
          <path id="Path_26820" data-name="Path 26820" d="M1684.134,405.942c4.678,0,8.142-1.32,10.3-3.924a10.5,10.5,0,0,0,2.206-7.192c11.835-15.768-1.948-35.632-2.549-36.483a2.248,2.248,0,0,0-3.672,2.6c.176.251,12.828,18.6,2.148,31.8a2.249,2.249,0,0,0-.461,1.834,6.278,6.278,0,0,1-1.159,4.607c-1.265,1.5-3.557,2.266-6.811,2.266-9.427,0-9.427,0-9.851-20.112l-.041-1.945a2.248,2.248,0,1,0-4.5.1l.041,1.942C1670.215,401.72,1670.3,405.942,1684.134,405.942Z" transform="translate(-1545.901 -199.758)" fill="#552b26"/>
          <path id="Path_26821" data-name="Path 26821" d="M1559.351,395.757l-5.92,30.773s-.437,5.483-12.865,5.483-14.432,3.057-17.458-36.256" transform="translate(-1451.796 -224.378)" fill="#f99c4b"/>
          <g id="Group_8321" data-name="Group 8321" transform="translate(72.967 189.192)">
            <path id="Path_26822" data-name="Path 26822" d="M1527.727,445.481c4.781,3.257,10.946,5.224,16.467,3.554,4.93-1.491,9.971-.721,13.915.5l-1.713,8.9s-.437,5.483-12.865,5.483C1533.412,463.923,1530.2,465.947,1527.727,445.481Z" transform="translate(-1527.727 -445.481)" fill="#fee3bc"/>
          </g>
          <path id="Path_26823" data-name="Path 26823" d="M1532.18,430.286c.621,0,1.255-.012,1.9-.024.771-.015,1.589-.03,2.459-.03,13.348,0,14.906-6.078,15.087-7.381l5.906-30.7a2.248,2.248,0,1,0-4.416-.849l-5.92,30.772c-.026.138-.036.1-.035.181-.15.449-1.5,3.479-10.622,3.479-.9,0-1.747.016-2.543.03-5.3.1-6.743,0-8.176-3.081-2.105-4.519-3.244-14.836-4.5-31.13a2.248,2.248,0,1,0-4.483.345c1.528,19.843,2.765,28.09,4.905,32.683C1524.13,429.708,1527.837,430.286,1532.18,430.286Z" transform="translate(-1447.769 -220.349)" fill="#552b26"/>
          <path id="Path_26824" data-name="Path 26824" d="M1351.171,80.019c-22.216-11.43-20.818-31.782-20.818-31.782,1.5-33.9,36.524-49.748,36.524-49.748s56.958-23.08,80.822,26.7c0,0,16.994,18.148,3.717,48.7-6.834,17.655-22.147,17.655-22.147,17.655" transform="translate(-1328.084 33.998)" fill="#fee3bc"/>
          <g id="Group_8322" data-name="Group 8322" transform="translate(2.753 27.144)">
            <path id="Path_26825" data-name="Path 26825" d="M1367.776-1.511s56.958-23.08,80.822,26.7c0,0,14.819,15.83,5.963,42.813-1.5-2.764-4.25-5.879-7.58-6.92-8.327-2.6-22.816,9.418-35.973-4.6-11.362-12.109-33.1-14.077-42.135-9.659-7.3,3.572-27.393,6.146-37.137-3.61C1336.227,12.764,1367.776-1.511,1367.776-1.511Z" transform="translate(-1331.736 6.854)" fill="#f99c4b"/>
          </g>
          <path id="Path_26826" data-name="Path 26826" d="M1425.237,89.765c.688,0,16.913-.216,24.227-19.049,7.113-16.4,5.66-29.349,3.188-37.33a38.781,38.781,0,0,0-7.1-13.487c-12.839-26.493-34.909-32.576-51.191-33A88.6,88.6,0,0,0,1362-7.623l-.082.035a76.936,76.936,0,0,0-18.293,12.551c-12.143,11.133-18.9,24.661-19.55,39.124-.08,1.272-1,22.052,22.034,33.9a2.249,2.249,0,0,0,2.057-4c-20.661-10.629-19.616-29.439-19.6-29.628,0-.018,0-.037,0-.055,1.4-31.645,33.818-47.152,35.164-47.78a85.71,85.71,0,0,1,30.655-5.134c21.873.617,37.772,10.958,47.254,30.735a2.247,2.247,0,0,0,.386.565,34.035,34.035,0,0,1,6.4,12.248c3.186,10.5,2.142,21.951-3.1,34.024-.012.028-.024.056-.035.085-6.206,16.033-19.912,16.218-20.05,16.218a2.248,2.248,0,1,0,0,4.5Z" transform="translate(-1324.051 38.026)" fill="#552b26"/>
          <g id="Group_8323" data-name="Group 8323" transform="translate(13.781)">
            <path id="Path_26827" data-name="Path 26827" d="M1410.444-48.932s-14.852-25.852-24.937-27.362-19.325,29.866-13.706,48.527" transform="translate(-1367.382 78.595)" fill="#f99c4b"/>
            <path id="Path_26828" data-name="Path 26828" d="M1366.438-30.545a2.257,2.257,0,0,0,.649-.1,2.248,2.248,0,0,0,1.5-2.8c-4.066-13.5.554-34.439,7.188-42.1,1.13-1.3,2.829-2.807,4.531-2.552,6.563.983,17.787,16.628,23.32,26.258a2.248,2.248,0,0,0,3.07.829,2.249,2.249,0,0,0,.829-3.069c-1.576-2.742-15.707-26.841-26.554-28.465-2.053-.307-5.213.147-8.6,4.056-7.565,8.739-12.748,30.887-8.094,46.343A2.249,2.249,0,0,0,1366.438-30.545Z" transform="translate(-1362.52 82.623)" fill="#552b26"/>
          </g>
          <g id="Group_8324" data-name="Group 8324" transform="translate(23.242 13.922)">
            <path id="Path_26829" data-name="Path 26829" d="M1388.929-13.366s14.56-11.551,23.834-12.512c0,0-6.095-16.4-14.426-17.836S1388.929-13.366,1388.929-13.366Z" transform="translate(-1388.929 43.762)" fill="#ffd084"/>
          </g>
          <g id="Group_8325" data-name="Group 8325" transform="translate(99.37 25.046)">
            <path id="Path_26830" data-name="Path 26830" d="M1607.7,5.431s25.735-15.053,35.237-11.352,2.859,34.9-11.291,48.3" transform="translate(-1605.457 8.729)" fill="#f99c4b"/>
            <path id="Path_26831" data-name="Path 26831" d="M1627.624,40.648a2.24,2.24,0,0,0,1.545-.616c11.72-11.1,18.227-32.9,16.006-44.239-.994-5.074-3.509-7.038-5.445-7.792-10.22-3.978-34.458,9.909-37.188,11.507a2.248,2.248,0,1,0,2.27,3.881c9.591-5.607,27.109-13.606,33.286-11.2,1.6.624,2.333,2.773,2.664,4.466,1.949,9.949-4.445,30.411-14.685,40.109a2.248,2.248,0,0,0,1.547,3.881Z" transform="translate(-1601.429 12.711)" fill="#552b26"/>
          </g>
          <g id="Group_8326" data-name="Group 8326" transform="translate(109.029 37.132)">
            <path id="Path_26832" data-name="Path 26832" d="M1642.855,52.515s-6.895-17.259-14.465-22.7c0,0,13.438-11.2,21.383-8.309S1642.855,52.515,1642.855,52.515Z" transform="translate(-1628.39 -21.026)" fill="#ffd084"/>
          </g>
          <g id="Group_8327" data-name="Group 8327" transform="translate(40.84 82.977)">
            <path id="Path_26833" data-name="Path 26833" d="M1481.918,165.476s-9.336,12.866-21.43-.773c-1.076.06-7.7.318-12.552-4.728a15.566,15.566,0,0,1-3.96-7.635" transform="translate(-1441.854 -151.142)" fill="#fee3bc"/>
            <path id="Path_26834" data-name="Path 26834" d="M1466.108,171.365q.541.019,1.082-.007c6.852-.335,11.155-6.16,11.335-6.408a2.248,2.248,0,0,0-3.634-2.648c-.037.05-3.269,4.356-7.952,4.567-3.261.148-6.613-1.706-9.981-5.5a3.305,3.305,0,0,0-2.275-.677,4.38,4.38,0,0,0-2.017.656c-1.957.954-5.289-.9-7.029-2.353-4.524-3.789-4.467-10.11-6.3-9.993a1.168,1.168,0,0,0-.8.5c-1.374,1.728.36,6.71,3.13,10.214a14.236,14.236,0,0,0,6.167,4.814,13.727,13.727,0,0,0,6.667.8C1457.034,167.969,1461.074,171.183,1466.108,171.365Z" transform="translate(-1438.051 -148.996)" fill="#552b26"/>
          </g>
          <g id="Group_8328" data-name="Group 8328" transform="translate(35.602 61.547)">
            <path id="Path_26835" data-name="Path 26835" d="M1437.482,99.491a2.248,2.248,0,0,0,1.4-4.011c-.264-.209-6.53-5.127-12.8-6.266a2.248,2.248,0,1,0-.8,4.424c5.175.94,10.756,5.322,10.811,5.367A2.242,2.242,0,0,0,1437.482,99.491Z" transform="translate(-1423.43 -89.178)" fill="#552b26"/>
          </g>
          <g id="Group_8329" data-name="Group 8329" transform="translate(50.402 77.669)">
            <path id="Path_26836" data-name="Path 26836" d="M1464.861,137.14c-.776,3.5,2.252,10.734,7.7,11.94s11.245-4.069,12.021-7.572-3.441-5.368-8.886-6.575S1465.636,133.638,1464.861,137.14Z" transform="translate(-1464.74 -134.178)" fill="#552b26"/>
          </g>
          <g id="Group_8330" data-name="Group 8330" transform="translate(77.501 73.527)">
            <path id="Path_26837" data-name="Path 26837" d="M1556.785,128.235a2.249,2.249,0,0,0,.682-4.391c-5.984-1.907-14.7-1.031-15.068-.992a2.248,2.248,0,0,0,.463,4.473c.081-.009,8.157-.815,13.24.8A2.248,2.248,0,0,0,1556.785,128.235Z" transform="translate(-1540.383 -122.618)" fill="#552b26"/>
          </g>
          <g id="Group_8331" data-name="Group 8331" transform="translate(55.245 87.762)">
            <path id="Path_26838" data-name="Path 26838" d="M1480.512,172.387a2.25,2.25,0,0,0,2.211-1.855c.689-3.87.865-5.639.873-5.712a2.248,2.248,0,0,0-4.475-.44h0c0,.017-.173,1.7-.825,5.364a2.249,2.249,0,0,0,1.82,2.608A2.3,2.3,0,0,0,1480.512,172.387Z" transform="translate(-1478.261 -162.353)" fill="#552b26"/>
          </g>
          <g id="Group_8332" data-name="Group 8332" transform="translate(45.494 122.324)">
            <path id="Path_26839" data-name="Path 26839" d="M1463.446,266.2a29.873,29.873,0,0,0,7.667-1,2.248,2.248,0,0,0-1.255-4.318h0c-.094.027-9.422,2.643-15.238-1.623a2.248,2.248,0,1,0-2.659,3.626A19.309,19.309,0,0,0,1463.446,266.2Z" transform="translate(-1451.042 -258.827)" fill="#552b26"/>
          </g>
          <g id="Group_8333" data-name="Group 8333" transform="translate(45.647 50.204)">
            <ellipse id="Ellipse_196" data-name="Ellipse 196" cx="3.891" cy="5.084" rx="3.891" ry="5.084" transform="matrix(0.622, -0.783, 0.783, 0.622, 0, 6.095)" fill="#fee3bc"/>
          </g>
          <g id="Group_8334" data-name="Group 8334" transform="translate(76.781 59.353)">
            <ellipse id="Ellipse_197" data-name="Ellipse 197" cx="5.084" cy="3.891" rx="5.084" ry="3.891" transform="translate(0 1.162) rotate(-6.564)" fill="#fee3bc"/>
          </g>
        </g>
      </g>
      <g id="Group_8339" data-name="Group 8339" transform="translate(1310.3 30.788)">
        <path id="Path_26840" data-name="Path 26840" d="M1365.3,245.355c-4.1-6.043-5.657-11.753-6.937-11.39-1.517.43-.593,8.81.24,13.466a44.9,44.9,0,0,0,2.495,9.5c3.8,8.84,4.478,12.016,9.455,21.05,7.028,12.756,16.086,20.163,30.3,26.67,8.051-11.7,22.589-22.712,30.5-31.04,7.075-7.446,3.216-3.031,6.6-7.691,2.3-3.169,1.518-2.964,3.312-4.706a9.963,9.963,0,0,1,3.1-1.91,90.19,90.19,0,0,0,8.034-4.475c2.261-1.353,2.617-.888,4.551-2.322,1.623-1.2,6.269-5.52,5.875-7.725-.1-.535-.081-.44-1.193.1-13.013,6.3-33.918,12.841-46.24,17.455-9.895,3.705-15.907,3.4-23.4,1.651A46.313,46.313,0,0,1,1365.3,245.355Z" transform="translate(-1357.557 -233.949)" fill="#003b79" stroke="#331f13" stroke-linecap="round" stroke-linejoin="round" stroke-width="2"/>
        <g id="Group_8337" data-name="Group 8337" transform="translate(58.849 17.948)">
          <path id="Path_26841" data-name="Path 26841" d="M1549.593,289.31c-.632.223-.595.214-1.422.531s-2.272.906-3.393,1.375c-.56.234-1.5.643-2.24.973s-1.666.739-2.491,1.151-1.79.9-2.659,1.346-1.8.943-2.67,1.413-1.757.98-2.586,1.484-1.709,1.066-2.48,1.566-1.519,1.02-2.208,1.5-1.331.959-1.92,1.416-1.057.888-1.566,1.313c-.254.213-.459.389-.639.556s-.413.4-.509.49c-.385.369-.631.611-.985.951.384-.312.653-.533,1.07-.872.1-.084.356-.3.549-.447s.414-.314.685-.5c.545-.379,1.039-.782,1.67-1.178s1.308-.822,2.031-1.239,1.515-.871,2.322-1.3,1.722-.918,2.584-1.352,1.795-.87,2.692-1.262,1.847-.8,2.74-1.173,1.9-.786,2.744-1.125,1.818-.67,2.562-.936,1.712-.6,2.26-.776c1.1-.359,2.7-.85,3.443-1.066s1.063-.3,1.35-.382.08-.023.083-.025c3.428-1.914,8.465-6.759,11.7-7.658.255-.071.4,0,.289.236-.263.538-.6.62-1.6.993C1557.564,286.584,1553.259,288.016,1549.593,289.31Z" transform="translate(-1521.825 -284.047)" fill="#331f13"/>
        </g>
        <g id="Group_8338" data-name="Group 8338" transform="translate(3.399 8.243)">
          <path id="Path_26842" data-name="Path 26842" d="M1381.62,277.763c.1.089,2.16,1.8,2.709,2.325.176.168,1,.887,1.332,1.2s.869.761,1.257,1.109c.774.695,1.756,1.466,2.512,2.14s1.554,1.441,2.191,2.078,1.243,1.315,1.726,1.868.882,1.1,1.2,1.536.51.732.7,1.015.116.179.266.409c-.136-.239-.068-.129-.235-.424s-.335-.606-.622-1.06-.648-1.031-1.1-1.617-1.007-1.3-1.6-1.988-1.339-1.5-2.059-2.232-1.617-1.532-2.371-2.3c-.377-.387-.784-.808-1.192-1.2s-.839-.861-1.264-1.255c-.85-.789-1.78-1.876-2.717-2.636a72.11,72.11,0,0,1-8.695-9.652c-1.878-2.694-4.929-9.265-6.344-10.066-.468-.265-.189.575-.141.917.484,3.413,2.867,6.511,4.971,9.127C1375.277,270.952,1377.672,274.333,1381.62,277.763Z" transform="translate(-1367.044 -256.957)" fill="#331f13"/>
        </g>
      </g>
      <path id="Path_26843" data-name="Path 26843" d="M1646.045,270.307c-1.485-.024,10.441,11.637,21.818,10.09C1667.863,280.4,1662.1,270.563,1646.045,270.307Z" transform="translate(-232.314 -226.494)" fill="#003b79" stroke="#331f13" stroke-miterlimit="10" stroke-width="2"/>
      <path id="Path_26844" data-name="Path 26844" d="M1647.592,271.3c-.931-.732.291,12.438,8.365,16.949C1655.957,288.251,1657.655,279.217,1647.592,271.3Z" transform="translate(-233.217 -227.114)" fill="#003b79" stroke="#331f13" stroke-miterlimit="10" stroke-width="2"/>
      <path id="Path_26845" data-name="Path 26845" d="M1643.786,259.16c2.709,3.748,5.819,5.66,7.473,4.922,1.464-.654,1.575-3.291,1.622-4.414.05-1.179.214-5.094-2.169-5.941-1.513-.538-3.58.329-5.107,2.009Z" transform="translate(-230.945 -215.752)" fill="#003b79" stroke="#331f13" stroke-miterlimit="10" stroke-width="2"/>
    </g>
  </g>
</svg>
