<svg id="Layer_1" data-name="Layer 1" xmlns="http://www.w3.org/2000/svg" viewBox="0 0 151.5 127.4"><defs><style>.cls-1{fill:#1d4989;opacity:0.94;isolation:isolate;}.cls-2{fill:#743a34;}.cls-3{fill:#f5a552;}.cls-4{fill:#713931;}.cls-5{fill:#ffe6c3;}.cls-6{fill:#7c3e32;}.cls-7{fill:none;}.cls-8{fill:#f5a849;}.cls-9{fill:#764137;}.cls-10{fill:#6d3521;}.cls-11{fill:#713830;}.cls-12{fill:#fcd58c;}.cls-13{fill:#fce4bd;}.cls-14{fill:#fbe5bf;}.cls-15{fill:#f6a943;}.cls-16{fill:#7c402e;}.cls-17{fill:#ea7f84;}.cls-18{fill:#ffe8c8;}</style></defs><title>ShibaInu_Smile1</title><ellipse id="Ellipse_79" data-name="Ellipse 79" class="cls-1" cx="75.75" cy="95.46" rx="75.75" ry="12.52"/><g id="Group_5939" data-name="Group 5939"><path id="Path_2624" data-name="Path 2624" class="cls-2" d="M116,41a.13.13,0,0,1,0,.06l.16.08L119.07,40h0C117.69,39.19,116.77,39.83,116,41Z" transform="translate(0 0)"/></g><g id="Group_5940" data-name="Group 5940"><path id="Path_2625" data-name="Path 2625" class="cls-3" d="M116,41.14c-.48,2,.83,3.31,1.77,4.77a31.39,31.39,0,0,1,5.18,13.91,3,3,0,0,1,1.13.26h0c-.33-7.3-4.23-13.08-7.9-19h0Z" transform="translate(0 0)"/></g><g id="Group_5941" data-name="Group 5941"><path id="Path_2626" data-name="Path 2626" class="cls-4" d="M121.48,83.37a6.27,6.27,0,0,1,.73-3.89c8.22-14.08,7.16-26.93-3.14-39.45l-2.93,1.09c3.68,5.88,7.58,11.66,7.9,19h0c1.27,10.4-3.32,17.91-11.43,23.75-1.3.93-4.24,1.49-2.74,3.79,1.38,2.12,3.16-.18,4.65-.93,1.16-.58,2.23-1.36,3.76-2.32A94.35,94.35,0,0,1,118,95c1.27-1.16,2.48-2.38,3.65-3.64A78.91,78.91,0,0,0,121.48,83.37Z" transform="translate(0 0)"/></g><g id="Group_5942" data-name="Group 5942"><path id="Path_2627" data-name="Path 2627" class="cls-2" d="M107.72,7.86c4.32,8.85,6.4,18.15,4.55,28C111.6,39.45,113.85,40,116,41a.13.13,0,0,0,0-.06c.78-1.15,1.7-1.79,3.08-.95-2.8-2.78-3-6.14-2.88-10,.25-8.76-1.23-17.23-6.34-24.67C110.16,7.33,109.15,7.82,107.72,7.86Z" transform="translate(0 0)"/></g><path id="Path_2628" data-name="Path 2628" class="cls-5" d="M97,61.72a20.47,20.47,0,0,0-9.83-1.26l-.06.41c2.44,3.11,1,6-1,8.65-.9,1.24-2.39,2.34-1.37,3.91s2.77.74,4.18.58c3.76-.43,4.75-3.22,5.11-6.47.15-1.29-.15-3.16,1.91-2.87,1.88.26,1.62,2.15,1.33,3.33-1.36,5.47-2.24,11.21-4.59,16.24-3.37,7.26-12.56,7.4-16.84.72-1.1-1.72-2.07-3.08-4.28-3.53a11.3,11.3,0,0,1-4.24-2.49c-1.16-.9-2.79-2.2-1.66-3.73,1.38-1.86,2.6,0,3.65.94,3.14,2.86,6.47,3.06,9.88.62,2.75-2,2.56-3.7-.5-5.2s-5.52-3.22-5.35-7.09a26.7,26.7,0,0,0-7.85,6c-4.09,4.36-9,6.43-15,5.1-2.48-.55-5-.82-7.56-1.12-3.09-.37-5.78.32-7.82,2.56.15.45.29.89.45,1.33,2.51,8,6.51,14.44,15.5,16.09,1.75.32,3.23,1.36,3,3.41s-2.14,2.18-3.8,2.28A16.08,16.08,0,0,0,55,109.59a72.38,72.38,0,0,0,19.83,2,67.65,67.65,0,0,0,32.67-9,63.34,63.34,0,0,0,9.06-6.45A73,73,0,0,0,117.2,87c-1.87,0-2.87,1.38-4.29,1.8s-2.73.64-3.6-.85-.27-2.63.79-3.69a19,19,0,0,1,2.49-2c7.5-5.29,11-12.5,10.4-21.67A32.34,32.34,0,0,1,97,61.72ZM91.82,98a15.72,15.72,0,0,1-6.92,1.74,3,3,0,0,1-.9,0c-2.07-.66-5.9.74-5.74-2.53s3.41-.81,5.23-1c2.4-.23,4.79-.25,7-1.48,1.21-.68,2.7-1.58,3.54,0C95,96.61,93.09,97.3,91.82,98Z" transform="translate(0 0)"/><g id="Group_5944" data-name="Group 5944"><path id="Path_2629" data-name="Path 2629" class="cls-3" d="M122.92,59.82a3.51,3.51,0,0,0-1.53.26C112.67,63.64,104,63,95.27,60c-2.53-.85-5.26-1.6-8-.29,0,.24-.07.48-.11.72A20.47,20.47,0,0,1,97,61.72a32.33,32.33,0,0,0,26-1.13c0-.12,0-.24,0-.36S122.94,60,122.92,59.82Z" transform="translate(0 0)"/></g><g id="Group_5945" data-name="Group 5945"><path id="Path_2630" data-name="Path 2630" class="cls-3" d="M108.3,8.81l.47,0c-.07-.17-.14-.33-.22-.5a1.74,1.74,0,0,0-.34.42Z" transform="translate(0 0)"/></g><g id="Group_5946" data-name="Group 5946"><path id="Path_2631" data-name="Path 2631" class="cls-6" d="M57.12,61.46a1.5,1.5,0,0,1-1.2.18,1.76,1.76,0,0,1-1-2,1.17,1.17,0,0,1,.09-.24c.72-1.7,3.58-2,6.26-2.22a31.51,31.51,0,0,1,5.14,0h0c0,.1,2.6-.21,2,2.73a2.29,2.29,0,0,1-.58.73,3,3,0,0,1-2.59.41Z" transform="translate(0 0)"/></g><g id="Group_5947" data-name="Group 5947"><path id="Path_2632" data-name="Path 2632" class="cls-7" d="M87.14,60.87l.06-.41-.36,0Z" transform="translate(0 0)"/></g><g id="Group_5948" data-name="Group 5948"><path id="Path_2633" data-name="Path 2633" class="cls-5" d="M114.52,86.69c-1.49.74-3.27,3-4.65.93-1.5-2.3,1.44-2.86,2.74-3.8,7.72-5.55,12.24-12.61,11.58-22.25,0-.49-.08-1-.15-1.5l-1.05.52c.6,9.17-2.9,16.37-10.39,21.66a19.22,19.22,0,0,0-2.49,2c-1.06,1.06-1.63,2.26-.8,3.69s2.19,1.28,3.6.86,2.43-1.85,4.3-1.8a73,73,0,0,1-.62,9.22c.47-.4.94-.8,1.39-1.21a94.35,94.35,0,0,0,.3-10.63C116.75,85.33,115.68,86.11,114.52,86.69Z" transform="translate(0 0)"/></g><g id="Group_5949" data-name="Group 5949"><path id="Path_2634" data-name="Path 2634" class="cls-5" d="M54,97.83c.28-2-1.2-3.09-3-3.41-9-1.65-13-8.11-15.49-16.09-.17-.44-.31-.88-.45-1.33a9.4,9.4,0,0,0-.84,1.07h0c2.8,8.72,6.7,16.32,17.06,17.56,1,.12,2.27.43,2.2,1.81-.13,2.46-2.23,1.3-3.46,1.75,0,.32.09.62.14.93C51.87,100,53.71,100,54,97.83Z" transform="translate(0 0)"/></g><g id="Group_5950" data-name="Group 5950"><path id="Path_2635" data-name="Path 2635" class="cls-3" d="M34,71.48c-.23-2.72,0-5.47-.54-8.17A3.48,3.48,0,0,0,32.67,62a2.17,2.17,0,0,0-.35-.15l-.08.11h0l.3.94c1.07,3,2,6,.32,9.1h0c-.23,2.18.83,4,1.4,6a5.34,5.34,0,0,1,.6-1.9A23.91,23.91,0,0,1,34,71.48Z" transform="translate(0 0)"/></g><g id="Group_5951" data-name="Group 5951"><path id="Path_2636" data-name="Path 2636" class="cls-3" d="M116,41.14l.18,0h0L116,41S116,41.11,116,41.14Z" transform="translate(0 0)"/></g><g id="Group_5952" data-name="Group 5952"><path id="Path_2637" data-name="Path 2637" class="cls-3" d="M42.92,74.45c2.53.3,5.08.56,7.57,1.11,6,1.33,10.94-.74,15-5.09a26.54,26.54,0,0,1,7.85-6l.06,0-.24-.33c-3.79.33-6,3.1-8.51,5.49-4.18,4.06-8.89,6-14.77,4.63a26.13,26.13,0,0,0-9.84-.77c-2.15.33-4.21.85-5.22,2.71.08.28.17.56.26.84C37.15,74.76,39.83,74.08,42.92,74.45Z" transform="translate(0 0)"/></g><g id="Group_5953" data-name="Group 5953"><path id="Path_2638" data-name="Path 2638" class="cls-3" d="M122.92,59.82c0,.14,0,.27,0,.42s0,.23,0,.35l1.06-.51h0A3,3,0,0,0,122.92,59.82Z" transform="translate(0 0)"/></g><g id="Group_5954" data-name="Group 5954"><path id="Path_2639" data-name="Path 2639" class="cls-3" d="M35.11,77c-.09-.28-.17-.56-.26-.84a5.53,5.53,0,0,0-.59,1.9h0A10.78,10.78,0,0,1,35.11,77Z" transform="translate(0 0)"/></g><g id="Group_5955" data-name="Group 5955"><path id="Path_2640" data-name="Path 2640" class="cls-3" d="M52.83,109a18.59,18.59,0,0,1-3-5.65c-.36-1.1-.94-2.26-.42-3.36a18.57,18.57,0,0,1-9.2-4c-1.92-1.52-3.14-1.66-4.79.5-.77,1-1.51,2-2.24,3.05A62.38,62.38,0,0,0,52.83,109Z" transform="translate(0 0)"/></g><g id="Group_5956" data-name="Group 5956"><path id="Path_2641" data-name="Path 2641" class="cls-3" d="M35.43,96.49c1.65-2.16,2.88-2,4.79-.5a18.57,18.57,0,0,0,9.2,4,2.67,2.67,0,0,1,.65-.84c-4-.94-7.88-2.28-10.77-5.36-1.85-2-2.7-.73-3.78.66s-2.22,2.88-3.29,4.35l1,.7C33.92,98.51,34.66,97.49,35.43,96.49Z" transform="translate(0 0)"/></g><g id="Group_5957" data-name="Group 5957"><path id="Path_2642" data-name="Path 2642" class="cls-3" d="M49.84,103.38a18.47,18.47,0,0,0,3,5.65c.73.21,1.47.39,2.2.57a16.15,16.15,0,0,1-4.82-9.48h-.07c-.24,0-.48-.06-.72-.1C48.9,101.12,49.48,102.28,49.84,103.38Z" transform="translate(0 0)"/></g><g id="Group_5958" data-name="Group 5958"><path id="Path_2643" data-name="Path 2643" class="cls-3" d="M49.42,100c.24,0,.48.08.72.1h.07c-.06-.31-.1-.61-.14-.94A2.51,2.51,0,0,0,49.42,100Z" transform="translate(0 0)"/></g><g id="Group_5959" data-name="Group 5959"><path id="Path_2644" data-name="Path 2644" class="cls-8" d="M32.86,72a23.62,23.62,0,0,0-.33-9.1,26.75,26.75,0,0,0,.33,9.1Z" transform="translate(0 0)"/></g><g id="Group_5960" data-name="Group 5960"><path id="Path_2645" data-name="Path 2645" class="cls-8" d="M32.86,72c1.63-3.1.75-6.1-.33-9.1A23.62,23.62,0,0,1,32.86,72Z" transform="translate(0 0)"/></g><polygon class="cls-4" points="86.83 60.51 86.83 60.51 86.84 60.5 86.83 60.51"/><path class="cls-4" d="M96,64.67c-2.06-.29-1.76,1.58-1.91,2.87-.36,3.25-1.35,6-5.11,6.48-1.41.16-3.22.9-4.18-.58s.46-2.68,1.36-3.91c2-2.69,3.45-5.55,1-8.66h0c-.1-.12-.18-.24-.3-.36h0a18.36,18.36,0,0,0-13.4,3.94v0h0l-.08,0c-.17,3.86,2.37,5.62,5.35,7.08s3.25,3.23.5,5.2c-3.41,2.44-6.73,2.24-9.87-.62-1.06-1-2.27-2.79-3.65-.94-1.13,1.53.5,2.83,1.65,3.73a11.45,11.45,0,0,0,4.24,2.49c2.22.46,3.19,1.82,4.29,3.53,4.27,6.69,13.46,6.54,16.84-.71,2.34-5,3.23-10.78,4.59-16.25C97.6,66.82,97.86,64.94,96,64.67ZM90.19,81.86a6.83,6.83,0,0,1-5.1,4.27c-4,.36-5.57-1.28-6.51-3.42-.82-1.86,1.33-2,2.24-2.82,1.7-1.5,2.64-.87,2.89,1.21.14,1.22.11,2.69,1.88,2.38,1.36-.24,1.1-1.56,1.18-2.61s-1-3,1.27-3.16c.86-.08,2.12-.16,2.54.33C91.61,79.25,90.69,80.66,90.19,81.86Z" transform="translate(0 0)"/><g id="Group_5964" data-name="Group 5964"><path id="Path_2649" data-name="Path 2649" class="cls-4" d="M73.44,64.44l-.07,0,.08,0Z" transform="translate(0 0)"/></g><g id="Group_5965" data-name="Group 5965"><path id="Path_2650" data-name="Path 2650" class="cls-9" d="M90.44,94.75c-2.16,1.23-4.55,1.24-7,1.48-1.82.18-5.07-2.2-5.23,1s3.67,1.87,5.74,2.53a3,3,0,0,0,.9,0A15.72,15.72,0,0,0,91.82,98C93.09,97.3,95,96.61,94,94.73,93.14,93.17,91.65,94.07,90.44,94.75Z" transform="translate(0 0)"/></g><g id="Group_5966" data-name="Group 5966"><path id="Path_2651" data-name="Path 2651" class="cls-10" d="M60.45,58.38h-.27v0l0,0Z" transform="translate(0 0)"/></g><g id="Group_5967" data-name="Group 5967"><path id="Path_2652" data-name="Path 2652" class="cls-6" d="M56.83,58.45Z" transform="translate(0 0)"/></g><g id="Group_5968" data-name="Group 5968"><path id="Path_2653" data-name="Path 2653" class="cls-6" d="M56.82,58.45h0Z" transform="translate(0 0)"/></g><g id="Group_5976" data-name="Group 5976"><g id="Group_5969" data-name="Group 5969"><path id="Path_2654" data-name="Path 2654" class="cls-3" d="M117.73,45.91c-.93-1.46-2.25-2.79-1.77-4.77,0,0,0-.06,0-.1-2.13-1-4.38-1.59-3.71-5.2,1.84-9.83-.23-19.13-4.55-28a1.16,1.16,0,0,0-.35-.88,1,1,0,0,0-.4-.21c-4.17-4.83-5.72-4.7-10.54.39A75.29,75.29,0,0,0,86,22.05c-.75,1.3-1.28,3.16-3.25,2.31-6.9-2.95-13.59-1-20.27.73-4,1-8.33,2.23-10.59,5.62-1.84,2.75-3,2-5,1.09a119,119,0,0,0-12.93-5.44c-3.58-1.12-7.92-3.81-11.09-.46-3,3.19-1.38,7.8-.64,11.83,1.38,7.62,5.75,13.85,9.34,20.45l.11.07c1.78.92,1.92,2.14.66,3.62a2.17,2.17,0,0,1,.35.15,3.78,3.78,0,0,1,.74,1.29c.56,2.7.31,5.45.54,8.17a24.65,24.65,0,0,0,.9,4.68c1-1.85,3.07-2.37,5.22-2.7a26.13,26.13,0,0,1,9.84.77c5.88,1.39,10.59-.57,14.77-4.63,2.46-2.39,4.72-5.17,8.51-5.49l.24.33A18.64,18.64,0,0,1,86.84,60.5h0l.36,0c0-.24.07-.48.11-.72,2.7-1.31,5.43-.56,8,.29,8.74,2.94,17.4,3.62,26.12,0a3.48,3.48,0,0,1,1.53-.26A31.28,31.28,0,0,0,117.73,45.91Zm-77.86-4c-1.12,1.79-2.15,3.64-3.11,5.52s-1.76,3.78-3,6.43A59.71,59.71,0,0,1,26.4,36.55c-1.09-4.21.08-5.59,4.29-5.79a12.64,12.64,0,0,1,6.11,1.18c6.94,3.21,7.06,3.51,3.07,9.92Zm17.58-11.5A1.15,1.15,0,0,1,59,30.9c.24.67-.26.86-.68.84a8.15,8.15,0,0,1-1.6-.4c.25-.34.43-.82.77-1ZM68,60.42c-.54.65-1.48.5-4.38.25a19.89,19.89,0,0,0-4.36-.18c-1.74.44-2.62,1.48-3.49,1a1.67,1.67,0,0,1-.74-1.15,1.94,1.94,0,0,1,.37-1.4A2.62,2.62,0,0,1,57,57.87a17,17,0,0,1,2.45-.42c1.69-.16,1.91.07,3.73,0,2.65-.07,3.66-.63,4.53.13a2.26,2.26,0,0,1,.68,1.22,2,2,0,0,1-.37,1.6Zm-2.62-7.74c-2,.1-3.77-.72-4.09-2.79-.35-2.26,1.5-2.64,4.19-2.88a2.9,2.9,0,0,1,3.13,2.65.41.41,0,0,1,0,.11C68.92,51.9,67.24,52.59,65.42,52.68Zm19.14-8.56a3.74,3.74,0,0,1,3.52-3.95h.07C90,40,90.94,41,91,43a3.91,3.91,0,0,1-3.92,3.53A2.06,2.06,0,0,1,84.57,45a2,2,0,0,1,0-.91Zm14.56,5.73c-1.11,1.35-2.82,1.4-4.27,2-1.95,1-4.3,4.62-5.84,2.22-1.77-2.78,2.5-3.56,4.34-5A11,11,0,0,1,97,47.33c2.22-.62,2.66.6,2.14,2.52ZM93.25,24.79c-1.28-.34-2.07-1-1.39-2.66a27.66,27.66,0,0,1,6-9.56c3.57-3.48,5.7-3,7.83,1.6,2.67,5.73,2.87,11.93,3.56,18.91C103.45,29.81,98.86,26.28,93.25,24.79Z" transform="translate(0 0)"/></g><g id="Group_5970" data-name="Group 5970"><path id="Path_2655" data-name="Path 2655" class="cls-11" d="M96,3.48A54.06,54.06,0,0,0,85.22,17.53c-1.24,2.23-2.6,2.74-5,2.54-10.51-.88-20.43,1.2-29.25,7.24-2,1.34-3.38,1.14-5.27.18a64.9,64.9,0,0,0-13.94-5.23C21.57,19.82,17.17,23.53,18.37,34c1.12,9.71,4.66,18.5,11.37,25.79h0c-.15,1.49-.29,3-.44,4.48-.72,7.84,1.3,15.13,4.73,22,1.24,2.51,1.2,4.08-.68,6.33C32.15,94,31,95.51,29.92,97c.85.72,1.73,1.43,2.63,2.1,1.07-1.47,2.17-2.91,3.29-4.35s1.93-2.63,3.78-.66c2.89,3.08,6.76,4.43,10.77,5.37,1.23-.45,3.33.71,3.46-1.75a1.55,1.55,0,0,0-.19-.9c-.48-.8-1.75-.89-2-.91-2.37-.23-11.82-5.26-15.84-13.54a30.08,30.08,0,0,1-2.24-7,39.26,39.26,0,0,1-.9-6.92,38,38,0,0,1,0-3.85,4.74,4.74,0,0,0,1-5.41,4.1,4.1,0,0,0-2.2-1.77,49.43,49.43,0,0,1-9-19.43c-.9-4.24-1.79-9.25.65-11.82,3.16-3.35,7.5-.67,11.08.46a116.21,116.21,0,0,1,12.93,5.43c2,.92,3.17,1.66,5-1.09,2.27-3.39,6.64-4.58,10.6-5.61,6.67-1.74,13.36-3.69,20.26-.74,2,.85,2.51-1,3.25-2.31A75.51,75.51,0,0,1,96.75,7.45c3-3.15,4.34-4.13,5.73-3.92A7.6,7.6,0,0,1,106,5.66,11.14,11.14,0,0,1,107.76,8l.62,1.1L111,7.25c-.26-.68-2.67-6.6-7.41-7.2C100.54-.34,98,1.61,96,3.48Z" transform="translate(0 0)"/></g><g id="Group_5971" data-name="Group 5971"><path id="Path_2656" data-name="Path 2656" class="cls-12" d="M93.25,24.79c5.61,1.49,10.2,5,16,8.29-.69-7-.89-13.18-3.56-18.91-2.13-4.57-4.26-5.08-7.83-1.6a27.66,27.66,0,0,0-6,9.56C91.18,23.78,92,24.45,93.25,24.79Z" transform="translate(0 0)"/></g><g id="Group_5972" data-name="Group 5972"><path id="Path_2657" data-name="Path 2657" class="cls-12" d="M39.87,41.86c4-6.4,3.87-6.7-3.07-9.93a12.75,12.75,0,0,0-6.11-1.17c-4.21.2-5.38,1.58-4.29,5.79a59.71,59.71,0,0,0,7.39,17.26c1.21-2.65,2-4.58,3-6.43S38.75,43.65,39.87,41.86Z" transform="translate(0 0)"/></g><g id="Group_5973" data-name="Group 5973"><path id="Path_2658" data-name="Path 2658" class="cls-13" d="M65.42,52.68c1.82-.09,3.5-.78,3.24-2.91a2.91,2.91,0,0,0-3-2.77h-.11c-2.68.24-4.54.62-4.19,2.88C61.65,52,63.4,52.78,65.42,52.68Z" transform="translate(0 0)"/></g><g id="Group_5974" data-name="Group 5974"><path id="Path_2659" data-name="Path 2659" class="cls-14" d="M87.05,46.55A3.91,3.91,0,0,0,91,43c0-2-1-3.05-2.83-2.86a3.75,3.75,0,0,0-3.6,3.89v.07a2.05,2.05,0,0,0,1.59,2.44A2,2,0,0,0,87.05,46.55Z" transform="translate(0 0)"/></g><g id="Group_5975" data-name="Group 5975"><path id="Path_2660" data-name="Path 2660" class="cls-15" d="M59,30.9a1.15,1.15,0,0,0-1.51-.54c-.34.16-.52.64-.77,1a7.5,7.5,0,0,0,1.6.4C58.7,31.76,59.2,31.57,59,30.9Z" transform="translate(0 0)"/></g></g><g id="Group_5977" data-name="Group 5977"><path id="Path_2661" data-name="Path 2661" class="cls-16" d="M97,47.33a11,11,0,0,0-3.63,1.78c-1.84,1.41-6.11,2.19-4.34,5,1.54,2.4,3.89-1.18,5.84-2.22,1.46-.6,3.17-.65,4.27-2A2.21,2.21,0,0,0,99,47.48C98.79,47.33,98.34,47,97,47.33Z" transform="translate(0 0)"/></g><g id="Group_5978" data-name="Group 5978"><path id="Path_2662" data-name="Path 2662" class="cls-6" d="M60.49,58.38h0Z" transform="translate(0 0)"/></g><g id="Group_5979" data-name="Group 5979"><path id="Path_2663" data-name="Path 2663" class="cls-6" d="M60.49,58.38h0Z" transform="translate(0 0)"/></g><g id="Group_5980" data-name="Group 5980"><path id="Path_2664" data-name="Path 2664" class="cls-6" d="M56.82,58.45Z" transform="translate(0 0)"/></g><g id="Group_5981" data-name="Group 5981"><path id="Path_2665" data-name="Path 2665" class="cls-6" d="M56.83,58.45Z" transform="translate(0 0)"/></g><g id="Group_5982" data-name="Group 5982"><path id="Path_2666" data-name="Path 2666" class="cls-6" d="M56.83,58.45Z" transform="translate(0 0)"/></g><g id="Group_5983" data-name="Group 5983"><path id="Path_2667" data-name="Path 2667" class="cls-6" d="M56.83,58.45h0Z" transform="translate(0 0)"/></g><g id="Group_5984" data-name="Group 5984"><path id="Path_2668" data-name="Path 2668" class="cls-17" d="M80.82,79.89c-.91.81-3.06,1-2.24,2.82.94,2.14,2.56,3.78,6.51,3.41a6.8,6.8,0,0,0,5.1-4.26c.5-1.2,1.43-2.61.39-3.82-.42-.49-1.68-.41-2.54-.33-2.3.21-1.18,2-1.27,3.16s.18,2.37-1.18,2.61c-1.77.31-1.74-1.16-1.88-2.38C83.46,79,82.52,78.39,80.82,79.89Z" transform="translate(0 0)"/></g><g id="Group_5987" data-name="Group 5987"><path id="Path_2669" data-name="Path 2669" class="cls-5" d="M117.29,101.68" transform="translate(0 0)"/></g><g id="Group_5989" data-name="Group 5989"><path id="Path_2670" data-name="Path 2670" class="cls-11" d="M39.67,127.4h-.33A9.45,9.45,0,0,1,34.67,126c-.57-.15-1.14-.33-1.71-.52-2.39-.84-5.32-2.33-6.32-3.57a3.71,3.71,0,0,1-.67-1.33c-2.14-8.26-2.78-15.35-1.89-21.06,1.27-8.15,5.39-11.76,7.73-13.2l.24-.13a14.35,14.35,0,0,1,2.71-1.05A15.19,15.19,0,0,1,45,86.16a16.14,16.14,0,0,1,5.6,4.12,15.26,15.26,0,0,1,2,2.94c3.69,6.76,5.74,18.32,5.83,18.81l0,.19a9.31,9.31,0,0,1-3.08,8.11,8.57,8.57,0,0,1-2.93,1.57l-.54.48a7.13,7.13,0,0,1-7.22,3.77l-.52.13A9.6,9.6,0,0,1,39.67,127.4Zm-7.06-9.92a17.93,17.93,0,0,0,2.72,1.22c.55.19,1.11.35,1.67.49a3.56,3.56,0,0,1,1.35.63,2.18,2.18,0,0,0,1.25.44,2.1,2.1,0,0,0,1.29-.35,3.66,3.66,0,0,1,1.3-.52,10.7,10.7,0,0,0,1.24-.31,3.55,3.55,0,0,1,2.14,0,3.38,3.38,0,0,1,1.18-1.74,12.43,12.43,0,0,0,1.33-1.19,3.63,3.63,0,0,1,2-1,1.52,1.52,0,0,0,.7-.28,2.33,2.33,0,0,0,.52-1.74,85.12,85.12,0,0,0-3.45-12.94,3.57,3.57,0,0,1-3.24-3.87,3.63,3.63,0,0,1,.47-1.47,9.1,9.1,0,0,0-3-2.16A8.29,8.29,0,0,0,36.63,92a6.76,6.76,0,0,0-1.16.44c-1.15.74-3,2.5-3.95,6.47a3.52,3.52,0,0,1-.58,3.94,49.89,49.89,0,0,0,1.67,14.64Z" transform="translate(0 0)"/></g><g id="Group_5995" data-name="Group 5995"><g id="Group_5990" data-name="Group 5990"><path id="Path_2671" data-name="Path 2671" class="cls-18" d="M49,95.35A6.3,6.3,0,0,1,47,97.8s-13,3.37-15.55,3.58a5.57,5.57,0,0,1-3.51-1c-.69,4.42-.44,10.55,1.76,19a15,15,0,0,0,4.56,2.36c-1.33-3.42-.6-7.87-.56-8.08a.78.78,0,0,1,.91-.64.79.79,0,0,1,.65.91s-.85,5.1.87,8.08a1,1,0,0,1,.1.3,5.68,5.68,0,0,0,6.48.24A13.45,13.45,0,0,1,41.19,118a40.72,40.72,0,0,1-.59-4.55.79.79,0,0,1,1.58-.11,43,43,0,0,0,.56,4.38,12,12,0,0,0,1.3,4.12l.24.37a3.54,3.54,0,0,0,2.67-.27,3.48,3.48,0,0,0,1.64-2,1.11,1.11,0,0,1,0-.19,13.2,13.2,0,0,0-1.32-7.54.78.78,0,0,1,.35-1h0a.8.8,0,0,1,1.07.35,14.65,14.65,0,0,1,1.57,7,4.94,4.94,0,0,0,2.35-1,5.64,5.64,0,0,0,1.75-4.8S52.39,101.49,49,95.35Z" transform="translate(0 0)"/></g><g id="Group_5991" data-name="Group 5991"><path id="Path_2672" data-name="Path 2672" class="cls-3" d="M35.22,114a.79.79,0,0,0-.65-.91.78.78,0,0,0-.91.65c0,.2-.78,4.65.56,8.07a19.09,19.09,0,0,0,2,.57.63.63,0,0,0-.1-.3C34.37,119.05,35.21,114,35.22,114Z" transform="translate(0 0)"/></g><g id="Group_5992" data-name="Group 5992"><path id="Path_2673" data-name="Path 2673" class="cls-3" d="M48.66,111.47a.79.79,0,0,0-1.42.7h0a13.26,13.26,0,0,1,1.32,7.54.62.62,0,0,0,0,.19,16.35,16.35,0,0,0,1.65-1.47,14.69,14.69,0,0,0-1.58-7Z" transform="translate(0 0)"/></g><g id="Group_5993" data-name="Group 5993"><path id="Path_2674" data-name="Path 2674" class="cls-3" d="M42.74,117.67a40.34,40.34,0,0,1-.56-4.38.79.79,0,0,0-1.58.11,43.71,43.71,0,0,0,.58,4.56,13.46,13.46,0,0,0,1.48,4.61,14.73,14.73,0,0,0,1.62-.4c-.08-.12-.17-.24-.24-.37A11.73,11.73,0,0,1,42.74,117.67Z" transform="translate(0 0)"/></g><g id="Group_5994" data-name="Group 5994"><path id="Path_2675" data-name="Path 2675" class="cls-3" d="M31.31,102S38.25,104,47,97.8a8,8,0,0,0,.89-.75A6.59,6.59,0,0,0,49,95.36a10.72,10.72,0,0,0-1.49-2.23,12.11,12.11,0,0,0-4.21-3.08,11.48,11.48,0,0,0-7.61-.84,9.73,9.73,0,0,0-1.94.75c-1.89,1.15-4.88,4-5.88,10.4A12.94,12.94,0,0,0,31.31,102Z" transform="translate(0 0)"/></g></g><g id="Group_5997" data-name="Group 5997"><path id="Path_2676" data-name="Path 2676" class="cls-11" d="M112.79,117.38a9.13,9.13,0,0,1-4.25-1.06l-.41-.1a6.87,6.87,0,0,1-6.88-3.59l-.43-.39a8.31,8.31,0,0,1-2.75-1.47A8.82,8.82,0,0,1,95.13,103l0-.2c.08-.46,2-11.21,5.43-17.51a14.17,14.17,0,0,1,1.87-2.79,15.05,15.05,0,0,1,5.27-3.87,14.21,14.21,0,0,1,9.68-1,13.09,13.09,0,0,1,2.57,1l.23.14c2.21,1.35,6.09,4.76,7.29,12.41.83,5.33.24,11.93-1.76,19.62a3.39,3.39,0,0,1-.67,1.34c-1,1.19-3.73,2.6-6,3.38-.52.19-1,.35-1.57.49a9.12,9.12,0,0,1-4.43,1.35ZM108.31,109a3.56,3.56,0,0,1,1.07.16,11,11,0,0,0,1.13.28,3.66,3.66,0,0,1,1.3.52,2.07,2.07,0,0,0,1,.28,1.87,1.87,0,0,0,1-.35,3.54,3.54,0,0,1,1.34-.64,15.66,15.66,0,0,0,3.9-1.5,46,46,0,0,0,1.53-13.21,3.33,3.33,0,0,1-.49-.69,3.54,3.54,0,0,1-.09-3.26c-.88-3.45-2.48-5-3.49-5.66a6.26,6.26,0,0,0-1-.38,7.37,7.37,0,0,0-4.86.62A8.11,8.11,0,0,0,108.1,87a3.54,3.54,0,0,1-.67,4.15,3.66,3.66,0,0,1-2,1,78.45,78.45,0,0,0-3.13,11.79,1.93,1.93,0,0,0,.4,1.37h0a1.19,1.19,0,0,0,.52.21,3.6,3.6,0,0,1,2,1,12.34,12.34,0,0,0,1.21,1.07,3.58,3.58,0,0,1,1.14,1.5,4.13,4.13,0,0,1,.78-.08Zm-.69.34h0Zm-.35-.2h0Z" transform="translate(0 0)"/></g><g id="Group_6003" data-name="Group 6003"><g id="Group_5998" data-name="Group 5998"><path id="Path_2677" data-name="Path 2677" class="cls-18" d="M104.12,87.42A5.88,5.88,0,0,0,106,89.68s12,3.13,14.42,3.32a5.14,5.14,0,0,0,3.26-1c.63,4.1.4,9.78-1.64,17.65a13.74,13.74,0,0,1-4.23,2.19,16.24,16.24,0,0,0,.52-7.49.73.73,0,1,0-1.44.25h0s.78,4.73-.8,7.49a.67.67,0,0,0-.1.28,5.25,5.25,0,0,1-6,.22,12.41,12.41,0,0,0,1.37-4.28,39.58,39.58,0,0,0,.55-4.22.74.74,0,0,0-.71-.76.74.74,0,0,0-.76.66,36.93,36.93,0,0,1-.52,4.06,10.86,10.86,0,0,1-1.2,3.82l-.22.35a3.34,3.34,0,0,1-2.48-.25,3.24,3.24,0,0,1-1.51-1.84,1.09,1.09,0,0,0,0-.18,12.25,12.25,0,0,1,1.23-7,.74.74,0,0,0-.32-1h0a.75.75,0,0,0-1,.33,13.53,13.53,0,0,0-1.45,6.46,4.56,4.56,0,0,1-2.19-1,5.29,5.29,0,0,1-1.62-4.45S101,93.09,104.12,87.42Z" transform="translate(0 0)"/></g><g id="Group_5999" data-name="Group 5999"><path id="Path_2678" data-name="Path 2678" class="cls-3" d="M116.92,104.65a.72.72,0,0,1,.59-.84.74.74,0,0,1,.85.59,16.23,16.23,0,0,1-.52,7.49,15.86,15.86,0,0,1-1.82.53.66.66,0,0,1,.09-.28C117.7,109.38,116.92,104.7,116.92,104.65Z" transform="translate(0 0)"/></g><g id="Group_6000" data-name="Group 6000"><path id="Path_2679" data-name="Path 2679" class="cls-3" d="M104.45,102.36a.74.74,0,0,1,1-.33.72.72,0,0,1,.33,1h0a12.25,12.25,0,0,0-1.23,7,.91.91,0,0,1,0,.17,16.53,16.53,0,0,1-1.54-1.35A13.66,13.66,0,0,1,104.45,102.36Z" transform="translate(0 0)"/></g><g id="Group_6001" data-name="Group 6001"><path id="Path_2680" data-name="Path 2680" class="cls-3" d="M110,108.1a36.93,36.93,0,0,0,.52-4.06.74.74,0,0,1,.8-.66.73.73,0,0,1,.66.76,37.16,37.16,0,0,1-.54,4.22,12.41,12.41,0,0,1-1.37,4.28,12.67,12.67,0,0,1-1.5-.38l.22-.34A10.8,10.8,0,0,0,110,108.1Z" transform="translate(0 0)"/></g><g id="Group_6002" data-name="Group 6002"><path id="Path_2681" data-name="Path 2681" class="cls-3" d="M120.54,93.52s-6.43,1.9-14.51-3.84a6,6,0,0,1-1.92-2.26,10.37,10.37,0,0,1,1.38-2.07,11.34,11.34,0,0,1,3.9-2.85,10.62,10.62,0,0,1,7.06-.78,9.83,9.83,0,0,1,1.8.69c1.75,1.07,4.52,3.67,5.45,9.64A11.82,11.82,0,0,1,120.54,93.52Z" transform="translate(0 0)"/></g></g></svg>