<?xml version="1.0" encoding="utf-8"?>
<!-- Generator: Adobe Illustrator 22.0.0, SVG Export Plug-In . SVG Version: 6.00 Build 0)  -->
<svg version="1.1" id="Layer_1" xmlns="http://www.w3.org/2000/svg" xmlns:xlink="http://www.w3.org/1999/xlink" x="0px" y="0px"
	 viewBox="0 0 82.9 82.4" style="enable-background:new 0 0 82.9 82.4;" xml:space="preserve">
<style type="text/css">
	.st0{fill:#B91165;}
	.st1{opacity:8.000000e-02;fill:#3399FF;}
</style>
<g id="Group_9552" transform="translate(22565 21076)">
	<g id="Group_9543" transform="translate(25)">
		<g id="Group_9542" transform="translate(-22581 -21070)">
			<g id="Group_6657" transform="translate(23.281 22.117)">
				<path id="Path_6279" class="st0" d="M29.8,13.9c-0.4,0-0.4-0.1-0.4-0.4c0-1.9,0-3.9,0-5.8c0-0.7-0.3-1.3-0.8-1.8
					c-0.3-0.3-0.5-0.7-0.4-1.2c0-1-0.7-2-1.7-2.2c-0.3-0.1-0.7-0.1-1-0.1c0.6-0.9,1.2-1.8,1.8-2.7C28-1.1,27.9-2.4,27-3.2
					c-0.1-0.1-0.2-0.2-0.3-0.2c-4.2-2.9-8.5-5.8-12.7-8.7c-0.9-0.8-2.2-0.7-3,0.2c-0.1,0.1-0.2,0.2-0.3,0.4C7-6.1,3.4-0.7-0.3,4.6
					C-0.4,4.9-0.6,5-0.9,5c-0.8,0-1.6,0-2.4,0c-0.3,0-0.3-0.1-0.3-0.4c0.2-2.4,0.5-4.8,0.7-7.1C-2.9-2.8-2.8-3-2.6-3
					c0.7-0.3,1.4-0.8,1.8-1.4c0.3-0.4,0.8-0.6,1.3-0.5C2-4.8,3.4-4.6,4.8-4.5C5.1-4.4,5.4-4.7,5.5-5c0,0,0,0,0,0
					c0-0.4-0.3-0.7-0.6-0.7c0,0,0,0,0,0C3.3-5.9,1.8-6.1,0.2-6.2C-0.5-6.4-1.2-6-1.6-5.4c-0.4,0.6-0.9,1-1.5,1.2
					C-3.8-4-4.2-3.3-4.2-2.6c-0.2,2.4-0.5,4.8-0.7,7.2C-5,5.2-5.4,4.9-5.6,5c-0.3,0-0.2-0.2-0.2-0.4c0.1-1.4,0.3-2.9,0.4-4.3
					c0.2-2.5,0.5-5,0.7-7.4c0-0.4,0.4-0.8,0.8-0.8c0,0,0.1,0,0.1,0C-2.4-7.8-1.2-7.7,0-7.6C2.1-7.4,4.1-7.2,6.2-7
					C6.7-6.9,7-7.2,7-7.6c0-0.4-0.3-0.7-0.7-0.7C3-8.6-0.3-8.9-3.6-9.2c-1.1-0.1-2.2,0.7-2.3,1.8c0,0,0,0,0,0
					c-0.3,3.2-0.6,6.3-0.9,9.5c0,0.3-0.1,0.4-0.4,0.4c-0.4,0-0.7,0-1.1,0c-1.2-0.1-2.3,0.8-2.4,2c0,0.1,0,0.2,0,0.3
					c0,0.2,0,0.4-0.2,0.5c-1,0.5-1.5,1.6-1.5,2.7c0,7.2,0,14.3,0,21.5c-0.1,1.7,1.3,3.1,2.9,3.2c0.1,0,0.2,0,0.2,0
					c11.8,0,23.6,0,35.4,0c1.6,0.1,3-1,3.1-2.6c0-0.2,0-0.3,0-0.5c0-1.8,0-3.6,0-5.3c0-0.4,0.1-0.5,0.5-0.5c0.8,0.1,1.5-0.4,1.7-1.2
					c0-0.1,0-0.3,0-0.4c0-2.1,0-4.3,0-6.4C31.5,14.4,31,13.9,29.8,13.9z M26.1,3.8c0.5,0.1,0.8,0.5,0.8,1c0,0.2,0,0.2-0.2,0.2
					c-0.9,0-1.7,0-2.6,0c-0.1,0-0.1,0-0.2,0c0-0.1,0-0.1,0-0.1C24.6,3.7,24.8,3.6,26.1,3.8z M5-0.8l6.7-9.9c0.5-0.7,0.8-0.8,1.5-0.3
					c4.2,2.9,8.4,5.7,12.7,8.6c0.7,0.5,0.7,0.8,0.3,1.4c-1.3,1.9-2.6,3.7-3.8,5.6c-0.3,0.5-0.7,0.1-1.1,0.2c0.4-0.5,0.7-1.1,1.1-1.6
					c0.3-0.4,0.6-0.9,0.9-1.3c0.3-0.5,0.4-1.1,0.1-1.6c-0.4-0.7-0.5-1.5-0.4-2.3C23-2.4,22.7-3,22.2-3.3c-2.3-1.6-4.5-3.1-6.8-4.6
					c-0.4-0.3-1-0.4-1.5-0.1c-0.8,0.4-1.6,0.5-2.4,0.4c-0.6,0-1.2,0.3-1.4,0.8C8.3-4.2,6.5-1.5,4.7,1.1C3.9,2.2,3.2,3.2,2.5,4.4
					C2.2,4.9,1.6,5.1,1.1,4.9L5-0.8z M12,0C9.4,0.1,7.3,2,6.9,4.6C6.9,4.9,6.8,5,6.5,5c-0.9,0-1.9,0-2.9,0C4.8,3.3,5.8,1.6,6.9,0
					c1.3-2,2.7-3.9,4-5.9c0.2-0.3,0.5-0.5,0.9-0.5c0.8,0.1,1.6-0.1,2.3-0.5c0.3-0.2,0.6-0.1,0.8,0.1c2.1,1.4,4.2,2.9,6.3,4.3
					c0.2,0.1,0.3,0.3,0.3,0.5c-0.1,0.9,0.1,1.8,0.5,2.6C22.2,1,22.2,1.3,22,1.5c-0.7,1.1-1.5,2.1-2.2,3.2C19.7,4.9,19.5,5,19.3,5
					c-0.5,0-0.9,0-1.4,0c-0.3,0-0.4-0.1-0.5-0.4C17,1.9,14.7-0.1,12,0z M15.8,5c-1.2,0-2.4,0-3.7,0c-1.2,0-2.4,0-3.6,0
					C8.2,5,8.2,4.9,8.2,4.6c0.4-2.2,2.5-3.6,4.7-3.2c1.7,0.3,3,1.6,3.2,3.3C16.2,5,16.1,5,15.8,5z M-9.4,4.5c0-0.4,0.4-0.8,0.8-0.8
					c0.4,0,0.9,0,1.3,0C-7,3.7-7,3.8-7,4C-7,5-7,5-7.9,5h-0.3c-0.3,0-0.5,0-0.8,0C-9.4,5-9.4,4.8-9.4,4.5L-9.4,4.5z M-11,9.1
					c0-0.5,0-0.9,0-1.4c0-0.8,0.7-1.5,1.5-1.5c0.2,0,0.3,0,0.5,0c11.7,0,23.5,0,35.2,0c0.9-0.1,1.8,0.5,1.9,1.5c0,0.2,0,0.3,0,0.5
					c0,0.3,0,0.6,0,1c0,0.4-0.1,0.4-0.5,0.4c-6.4,0-12.7,0-19.1,0c-6.4,0-12.7,0-19.1,0C-10.9,9.6-11.1,9.5-11,9.1L-11,9.1z
					 M28.1,28.5c0,0.4,0,0.9,0,1.3c0,0.8-0.7,1.5-1.5,1.5c-0.2,0-0.3,0-0.5,0H-9.1c-0.3,0-0.6,0-0.8-0.1c-0.6-0.2-1.1-0.7-1.1-1.4
					c0-0.5,0-1,0-1.5c0-0.3,0.1-0.4,0.4-0.4c1,0,2,0,2.9,0c0.5,0,0.8-0.2,0.8-0.6s-0.3-0.7-0.8-0.7c-1,0-2,0-2.9,0
					c-0.3,0-0.4,0-0.4-0.4c0-5,0-10.1,0-15.1c0-0.4,0.2-0.4,0.5-0.4c6.4,0,12.8,0,19.1,0c6.3,0,12.7,0,19,0c0.4,0,0.5,0.1,0.5,0.5
					c0,0.7,0,1.4,0,2.2c0,0.3-0.1,0.4-0.4,0.4c-1.9,0-3.7,0-5.6,0c-2.7-0.1-4.9,2.1-5,4.8c-0.1,2.6,1.9,4.7,4.4,5c2,0.1,4.1,0,6.1,0
					c0.4,0,0.5,0.1,0.4,0.5c0,0.8,0,1.5,0,2.3c0,0.2-0.1,0.3-0.3,0.3c-0.1,0-0.2,0-0.3,0c-10.2,0-35-0.1-35.2,0
					c-0.3,0.1-3.6,0.2-3.6,0.6c0,0.3,2.8,0.7,3.1,0.7c0.1,0,25.5,0,35.7,0C28,28,28.1,28,28.1,28.5L28.1,28.5z M29.8,22.4
					c-1.4,0-2.7,0-4.1,0v0c-1.3,0-2.6,0.1-4,0c-1.9-0.1-3.4-1.7-3.4-3.6c0-2,1.6-3.6,3.6-3.6c2.6,0,5.2,0,7.9,0
					c0.3,0,0.4,0.1,0.4,0.4c0,2.1,0,4.3,0,6.4C30.2,22.3,30.1,22.4,29.8,22.4L29.8,22.4z"/>
				<path id="Path_6280" class="st0" d="M22.1,16.2c-1.4,0-2.6,1.1-2.6,2.6c0,0,0,0.1,0,0.1c0,1.4,1.2,2.6,2.7,2.6
					c1.4,0,2.6-1.2,2.6-2.7C24.7,17.3,23.5,16.2,22.1,16.2z M22.1,20.1c-0.7,0-1.3-0.6-1.3-1.3c0-0.7,0.6-1.3,1.3-1.3c0,0,0,0,0,0
					c0.7,0,1.3,0.6,1.3,1.3C23.4,19.5,22.8,20.1,22.1,20.1z"/>
			</g>
		</g>
		<circle class="st1" cx="-22547.8" cy="-21034.3" r="41.1"/>
	</g>
</g>
</svg>
