<?xml version="1.0" encoding="utf-8"?>
<!-- Generator: Adobe Illustrator 22.0.0, SVG Export Plug-In . SVG Version: 6.00 Build 0)  -->
<svg version="1.1" id="Group_5813" xmlns="http://www.w3.org/2000/svg" xmlns:xlink="http://www.w3.org/1999/xlink" x="0px" y="0px"
	 viewBox="0 0 203.2 55.6" style="enable-background:new 0 0 203.2 55.6;" xml:space="preserve">
<style type="text/css">
	.st0{fill:#FFFFFF;}
	.st1{fill:#7C402E;}
	.st2{fill:#713830;}
	.st3{fill:#F5A552;}
	.st4{fill:#FFE8C8;}
	.st5{fill:#764137;}
	.st6{fill:#713931;}
	.st7{fill:#EA7F84;}
	.st8{fill:#FCD58C;}
	.st9{fill:#FBE5BF;}
</style>
<g>
	<rect x="0.3" y="24.7" class="st0" width="7.1" height="29.1"/>
	<g>
		<path class="st0" d="M33.4,35.1c0-1.9-0.3-3.3-0.9-4.2c-0.6-0.9-1.7-1.4-3.2-1.4c-1.7,0-3.3,0.4-4.8,1.2c-1.5,0.8-2.9,1.9-4.1,3.2
			v19.9h-7.1V24.7h6.3l0.8,3.6c1.3-1,2.8-2,4.5-2.9c1.7-0.9,3.7-1.3,5.9-1.3c2.9,0,5.2,0.9,6.9,2.8c1.8,1.8,2.7,4.5,2.7,7.9v19.1
			h-7.1V35.1z"/>
		<path class="st0" d="M14.4,21.1V16h18.4v-4.9h6.3v10H14.4z"/>
	</g>
	<g>
		<path class="st0" d="M63.4,24.1h7.1V42c0,1.8-0.3,3.4-0.8,4.8c-0.5,1.5-1.4,2.7-2.6,3.7c-1.2,1-2.7,1.8-4.5,2.4
			c-1.8,0.6-4.1,0.9-6.7,0.9c-1.8,0-3.5-0.2-5-0.6c-1.5-0.4-2.8-1-3.9-1.8c-1.1-0.8-2-1.8-2.6-3.1c-0.6-1.2-0.9-2.7-0.9-4.3
			c0-1.7,0.5-3.1,1.5-4.3c1-1.2,2.3-1.9,3.9-2.2c-0.7-0.1-1.4-0.4-2-0.9c-0.7-0.4-1.2-1-1.8-1.6c-0.5-0.6-0.9-1.3-1.2-2.1
			c-0.3-0.8-0.5-1.6-0.5-2.4c0-1,0.2-1.9,0.6-2.7c0.4-0.8,0.9-1.6,1.6-2.2c0.7-0.6,1.6-1.1,2.6-1.5c1-0.4,2.2-0.5,3.5-0.5
			c1.4,0,2.6,0.1,3.6,0.3c1,0.2,1.9,0.5,2.7,0.8l-0.7,5c-0.6-0.2-1.2-0.4-1.8-0.5c-0.6-0.1-1.1-0.2-1.6-0.2c-1.2,0-2.1,0.2-2.7,0.7
			c-0.6,0.5-0.9,1.1-0.9,1.9c0,1,0.4,1.8,1.2,2.3c0.8,0.5,1.7,0.8,2.6,0.8h4.1l0.6,5.2H55c-1.5,0-2.6,0.3-3.4,1
			c-0.8,0.7-1.2,1.6-1.2,2.9c0,1.4,0.5,2.5,1.6,3.3c1.1,0.8,2.4,1.2,4.1,1.2c2.4,0,4.3-0.6,5.5-1.8c1.2-1.2,1.8-2.8,1.8-4.7V24.1z"
			/>
	</g>
	<path class="st0" d="M94.2,46.8c-1.1,1.1-2.7,1.6-4.7,1.6s-3.5-0.5-4.7-1.6c-1.1-1.1-1.7-2.6-1.7-4.6v-0.7l-7.1-7.4v8.1
		c0,3.9,1.2,6.8,3.5,8.8c2.4,1.9,5.6,2.9,9.9,2.9s7.5-1,9.9-2.9c2.4-1.9,3.5-4.9,3.5-8.8v-6.7l-7.1,7.5
		C95.7,44.5,95.2,45.8,94.2,46.8z"/>
	<path class="st0" d="M112.8,16L112.8,16c-1-1-2.5-1-3.5,0l-9.3,9.7l-5.5,5.7l-4.4,4.7l-5.4-5.7l-3-3.1c-0.7-0.7-1.6-0.9-2.5-0.6
		c-0.3,0.1-0.7,0.3-1,0.6c-1,1-1,2.6,0,3.6l1,1l5.5,5.7l3.7,3.8c0.4,0.4,0.8,0.6,1.3,0.7c0.8,0.2,1.6-0.1,2.2-0.7l2.6-2.8l5.5-5.8
		l12.7-13.3C113.8,18.7,113.8,17,112.8,16z"/>
	<g>
		<path class="st0" d="M127,52.6c-2-1.1-3.6-2.5-4.8-4.4c-1.2-1.9-1.7-4-1.7-6.3c0-2.4,0.6-4.5,1.7-6.3c1.2-1.9,2.8-3.3,4.8-4.4
			c2-1.1,4.3-1.6,6.9-1.6c2.1,0,4.1,0.4,5.8,1.1c1.7,0.7,3.2,1.8,4.4,3.1l-3.7,3.3c-1.7-1.9-3.7-2.8-6.2-2.8c-1.5,0-2.9,0.3-4.1,1
			c-1.2,0.6-2.1,1.5-2.8,2.7c-0.7,1.2-1,2.5-1,3.9c0,1.5,0.3,2.8,1,3.9c0.7,1.2,1.6,2.1,2.8,2.7c1.2,0.6,2.6,1,4.1,1
			c2.5,0,4.5-0.9,6.2-2.8l3.7,3.3c-1.2,1.4-2.6,2.4-4.4,3.2c-1.7,0.7-3.7,1.1-5.8,1.1C131.3,54.2,129,53.6,127,52.6z"/>
	</g>
	<g>
		<path class="st0" d="M197.8,54.2l0-14.9l-7.6,12.3h-2.7L180,39.6v14.6h-5.6V29.4h4.9l9.6,15.4l9.5-15.4h4.9l0.1,24.8H197.8z"/>
	</g>
	<g>
		<path class="st0" d="M49.6,16.8c0.3,0,0.6,0.1,0.8,0.2c0.3,0.1,0.5,0.2,0.7,0.4c0.2,0.2,0.3,0.4,0.4,0.6c0.1,0.2,0.2,0.5,0.2,0.8
			c0,0.3-0.1,0.5-0.2,0.8c-0.1,0.2-0.3,0.4-0.4,0.6c-0.2,0.2-0.4,0.3-0.7,0.4c-0.3,0.1-0.5,0.2-0.8,0.2s-0.5-0.1-0.8-0.2
			c-0.2-0.1-0.5-0.2-0.7-0.4c-0.2-0.2-0.3-0.4-0.4-0.6c-0.1-0.2-0.2-0.5-0.2-0.8V8.1h1.5v8.8C49.2,16.8,49.4,16.8,49.6,16.8z
			 M49.6,19.4c0.2,0,0.4-0.1,0.5-0.2c0.1-0.1,0.2-0.3,0.2-0.5c0-0.2-0.1-0.4-0.2-0.5c-0.1-0.1-0.3-0.2-0.5-0.2s-0.4,0.1-0.5,0.2
			c-0.1,0.1-0.2,0.3-0.2,0.5c0,0.2,0.1,0.4,0.2,0.5C49.2,19.4,49.4,19.4,49.6,19.4z"/>
		<path class="st0" d="M64.7,1.8v18.8h-9.2v-8.8c-0.2,0.1-0.4,0.1-0.6,0.1c-0.3,0-0.5-0.1-0.8-0.2c-0.2-0.1-0.5-0.2-0.7-0.4
			c-0.2-0.2-0.3-0.4-0.4-0.6c-0.1-0.2-0.2-0.5-0.2-0.8s0.1-0.5,0.2-0.8c0.1-0.2,0.3-0.5,0.4-0.6c0.2-0.2,0.4-0.3,0.7-0.4
			C54.3,8,54.6,8,54.9,8c0.3,0,0.6,0.1,0.8,0.2c0.3,0.1,0.5,0.2,0.7,0.4c0.2,0.2,0.3,0.4,0.4,0.6C56.9,9.4,57,9.7,57,10v9.2h6.2V1.8
			H64.7z M54.9,10.6c0.2,0,0.4-0.1,0.5-0.2c0.1-0.1,0.2-0.3,0.2-0.5c0-0.2-0.1-0.4-0.2-0.5s-0.3-0.2-0.5-0.2c-0.2,0-0.4,0.1-0.5,0.2
			c-0.1,0.1-0.2,0.3-0.2,0.5c0,0.2,0.1,0.3,0.2,0.5C54.5,10.6,54.7,10.6,54.9,10.6z"/>
		<path class="st0" d="M71.3,7.9c0.5,0,1,0.1,1.5,0.3c0.5,0.2,0.9,0.4,1.3,0.8c0.4,0.3,0.7,0.7,1,1.2c0.3,0.4,0.5,0.9,0.6,1.5
			L74.3,12c-0.1-0.4-0.2-0.7-0.4-1c-0.2-0.3-0.4-0.6-0.7-0.8c-0.3-0.2-0.6-0.4-0.9-0.5c-0.3-0.1-0.7-0.2-1-0.2c-0.3,0-0.7,0.1-1,0.2
			c-0.3,0.1-0.6,0.3-0.9,0.5c-0.3,0.2-0.5,0.5-0.7,0.8s-0.3,0.6-0.4,0.9c0.8,0.1,1.7,0.1,2.6,0.2c0.9,0.1,1.8,0.1,2.6,0.2v6.6
			c0,0.3-0.1,0.5-0.2,0.8c-0.1,0.2-0.3,0.5-0.4,0.6c-0.2,0.2-0.4,0.3-0.7,0.4c-0.2,0.1-0.5,0.2-0.8,0.2c-0.3,0-0.6-0.1-0.8-0.2
			c-0.3-0.1-0.5-0.3-0.7-0.4c-0.2-0.2-0.3-0.4-0.4-0.6c-0.1-0.2-0.2-0.5-0.2-0.8c0-0.3,0.1-0.5,0.2-0.8c0.1-0.2,0.3-0.5,0.4-0.6
			c0.2-0.2,0.4-0.3,0.7-0.4c0.3-0.1,0.5-0.2,0.8-0.2c0.2,0,0.3,0,0.5,0.1v-3.3c-0.8-0.1-1.7-0.1-2.6-0.2c-0.9-0.1-1.7-0.1-2.6-0.2
			c0-0.1-0.1-0.2-0.1-0.3c0-0.1,0-0.1,0-0.2v-0.5c0-0.3,0.1-0.6,0.1-0.8c0.1-0.3,0.2-0.5,0.3-0.8c0.3-0.5,0.6-0.9,1-1.3
			c0.4-0.4,0.9-0.7,1.4-0.9c0.3-0.1,0.5-0.2,0.8-0.2C70.7,8,71,7.9,71.3,7.9z M71.5,19.4c0.2,0,0.4-0.1,0.5-0.2
			c0.1-0.1,0.2-0.3,0.2-0.5c0-0.2-0.1-0.4-0.2-0.5c-0.1-0.1-0.3-0.2-0.5-0.2c-0.1,0-0.2,0-0.3,0.1c-0.1,0-0.2,0.1-0.2,0.1
			c-0.1,0.1-0.1,0.1-0.2,0.2c0,0.1-0.1,0.2-0.1,0.3c0,0.2,0.1,0.4,0.2,0.5C71.1,19.4,71.3,19.4,71.5,19.4z"/>
		<path class="st0" d="M75.6,1v5.3H65.1c0.1-0.2,0.1-0.4,0.2-0.6c0.1-0.2,0.1-0.3,0.1-0.4L65.6,5c0.2-0.5,0.5-0.9,0.8-1.2
			c0.3-0.4,0.7-0.7,1.1-0.9c0.4-0.3,0.9-0.5,1.4-0.6c0.5-0.1,1-0.2,1.5-0.2c0.7,0,1.4,0.1,2.1,0.4c0.7,0.3,1.3,0.7,1.8,1.2V1H75.6z
			 M73.3,4.8c-0.2-0.2-0.4-0.4-0.6-0.6C72.5,4.1,72.3,4,72,3.9c-0.3-0.1-0.5-0.2-0.8-0.3c-0.3-0.1-0.6-0.1-0.8-0.1
			c-0.6,0-1.1,0.1-1.6,0.4c-0.5,0.2-1,0.6-1.3,1H73.3z"/>
		<path class="st0" d="M87.4,8.1v12.5h-9.2v-4.8c0-0.4,0.1-0.7,0.3-1l0,0c0-0.1,0.1-0.1,0.1-0.2c0.1-0.1,0.1-0.1,0.2-0.2
			c-0.2-0.2-0.4-0.3-0.6-0.5c-0.2-0.2-0.3-0.4-0.4-0.6c-0.3-0.5-0.5-1.1-0.5-1.7c0-0.3,0-0.5,0.1-0.7c0.1-0.2,0.1-0.4,0.2-0.7
			C77.7,9.7,78,9.3,78.4,9s0.7-0.6,1.2-0.8C79.7,8.2,80,8.1,80.2,8C80.4,8,80.7,8,81,8c0.3,0,0.6,0.1,0.8,0.2
			c0.3,0.1,0.5,0.2,0.7,0.4c0.2,0.2,0.3,0.4,0.4,0.6C83,9.4,83,9.7,83,10c0,0.3-0.1,0.5-0.2,0.8c-0.1,0.2-0.3,0.4-0.4,0.6
			c-0.2,0.2-0.4,0.3-0.7,0.4c-0.3,0.1-0.5,0.2-0.8,0.2c-0.2,0-0.4,0-0.6-0.1c-0.2-0.1-0.4-0.2-0.6-0.3c-0.2-0.1-0.3-0.3-0.5-0.4
			c-0.1-0.2-0.2-0.3-0.3-0.5c-0.1,0.3-0.2,0.6-0.2,0.9c0,0.6,0.2,1.1,0.6,1.5c0.4,0.4,0.9,0.6,1.5,0.6H83v1.5l-2.7,0
			c-0.1,0-0.1,0-0.2,0c-0.1,0-0.1,0.1-0.2,0.1c-0.1,0.1-0.1,0.1-0.2,0.2c0,0.1-0.1,0.2-0.1,0.3v3.3h6.1V8.1H87.4z M80.5,9.5
			c-0.1,0.1-0.2,0.3-0.2,0.5c0,0.2,0.1,0.4,0.2,0.5c0.1,0.1,0.3,0.2,0.5,0.2c0.2,0,0.4-0.1,0.5-0.2c0.1-0.1,0.2-0.3,0.2-0.5
			c0-0.1,0-0.2-0.1-0.3c0-0.1-0.1-0.2-0.2-0.2s-0.1-0.1-0.2-0.2c-0.1,0-0.2-0.1-0.3-0.1C80.8,9.3,80.6,9.3,80.5,9.5z"/>
		<path class="st0" d="M101.5,8v12.6h-9.2v-8.8c-0.2,0.1-0.4,0.1-0.5,0.1c-0.3,0-0.6-0.1-0.8-0.2c-0.2-0.1-0.5-0.2-0.7-0.4
			c-0.2-0.2-0.3-0.4-0.4-0.6c-0.1-0.2-0.2-0.5-0.2-0.8c0-0.3,0.1-0.5,0.2-0.8c0.1-0.2,0.3-0.4,0.4-0.6c0.2-0.2,0.4-0.3,0.7-0.4
			C91.2,8,91.5,8,91.7,8C92,8,92.3,8,92.5,8.1c0.3,0.1,0.5,0.2,0.7,0.4c0.2,0.2,0.3,0.4,0.4,0.6c0.1,0.2,0.2,0.5,0.2,0.8v9.2h6.2V8
			H101.5z M91.7,10.6c0.1,0,0.2,0,0.3-0.1c0.1,0,0.2-0.1,0.2-0.2c0.1-0.1,0.1-0.1,0.2-0.2c0-0.1,0.1-0.2,0.1-0.3
			c0-0.2-0.1-0.4-0.2-0.5c-0.1-0.1-0.3-0.2-0.5-0.2c-0.2,0-0.4,0.1-0.5,0.2C91.1,9.6,91,9.7,91,9.9c0,0.2,0.1,0.3,0.2,0.5
			C91.4,10.6,91.5,10.6,91.7,10.6z"/>
	</g>
	<g>
		<path class="st0" d="M111.3,45.8H111c-1.9,0-3.5,1.6-3.5,3.5c0,1.9,1.6,3.5,3.5,3.5h0.3c1.9,0,3.5-1.6,3.5-3.5v0
			C114.9,47.4,113.3,45.8,111.3,45.8z M111.5,47.3c0.1-0.2,0.3-0.3,0.3-0.3c0.2-0.1,0.4,0,0.5,0.1c0.2,0.1,0.2,0.3,0.3,0.5
			c0.1,0.3,0.1,0.6,0,0.9c-0.1,0.2-0.2,0.3-0.3,0.5c-0.2,0.1-0.4,0.1-0.6,0c-0.2-0.1-0.3-0.3-0.3-0.5c0,0,0-0.1,0-0.1
			C111.3,48.2,111.2,47.7,111.5,47.3z M109.8,47.5c0.1-0.2,0.2-0.3,0.3-0.5c0.2-0.1,0.4-0.1,0.6,0c0.2,0.1,0.3,0.3,0.3,0.5
			c0,0,0,0.1,0,0.1c0,0.1,0.1,0.6-0.2,1c-0.1,0.2-0.3,0.3-0.3,0.3c-0.2,0.1-0.4,0-0.5-0.1c-0.2-0.1-0.2-0.3-0.3-0.5
			C109.7,48.1,109.7,47.8,109.8,47.5z M109,49.8c-0.2-0.2-0.3-0.5-0.3-0.8c0-0.1,0-0.2,0.1-0.3c0.1-0.2,0.3-0.2,0.5-0.1
			c0.2,0.1,0.3,0.2,0.4,0.4c0.1,0.2,0.2,0.4,0.2,0.4c0,0.1,0.1,0.3,0,0.5c0,0.1-0.1,0.2-0.2,0.3c-0.1,0-0.2,0-0.4,0
			C109.2,50,109.1,49.9,109,49.8z M112.9,51.6c-0.1,0.1-0.2,0.1-0.3,0.2c-0.1,0-0.1,0-0.2,0c-0.2,0-0.4-0.1-0.5-0.2
			c-0.1-0.1-0.2-0.1-0.4-0.1c-0.2,0-0.3,0-0.5,0c-0.1,0-0.1,0-0.2,0.1c-0.2,0.1-0.4,0.2-0.6,0.1c-0.1,0-0.2,0-0.3-0.1
			c-0.2-0.1-0.3-0.4-0.2-0.6c0-0.1,0.1-0.2,0.2-0.3c0.2-0.3,0.4-0.6,0.6-0.8c0.1-0.1,0.2-0.2,0.3-0.3c0.2-0.1,0.4-0.2,0.6-0.2
			c0.2,0,0.4,0,0.6,0.1c0.1,0,0.2,0.1,0.2,0.2c0.3,0.3,0.5,0.6,0.8,1c0.1,0.1,0.2,0.3,0.2,0.4C113,51.3,113,51.5,112.9,51.6z
			 M113.1,50c-0.1,0.1-0.2,0.1-0.3,0.1c-0.2,0-0.3-0.1-0.4-0.2c-0.1-0.2-0.1-0.3,0-0.5c0.1-0.3,0.2-0.5,0.4-0.7
			c0.1-0.1,0.2-0.1,0.2-0.1c0.2-0.1,0.4,0,0.5,0.3c0,0,0,0.1,0,0.1c0,0,0,0.1,0,0.1C113.6,49.4,113.4,49.7,113.1,50z"/>
	</g>
	<g>
		<path class="st0" d="M171.4,33.8c-1.3-2-3.1-3.7-5.4-4.8c-2.3-1.2-4.8-1.7-7.7-1.7c-2.8,0-5.4,0.6-7.7,1.7
			c-2.3,1.2-4.1,2.8-5.4,4.8s-1.9,4.3-1.9,6.9c0,2.6,0.6,4.9,1.9,6.9c1.3,2,3.1,3.7,5.4,4.8c2.3,1.2,4.9,1.7,7.7,1.7
			c2.8,0,5.4-0.6,7.7-1.7c2.3-1.2,4.1-2.8,5.4-4.8c1.3-2,2-4.3,2-6.9C173.3,38.1,172.7,35.8,171.4,33.8z M166.9,45.7
			c-0.9,1.5-2,2.6-3.5,3.4c-1.5,0.8-3.2,1.2-5,1.2c-1.9,0-3.5-0.4-5-1.2c-1.5-0.8-2.7-1.9-3.5-3.4c-0.9-1.5-1.3-3.1-1.3-5
			c0-1.9,0.4-3.5,1.3-5c0.9-1.5,2-2.6,3.5-3.4c1.5-0.8,3.2-1.2,5-1.2c1.9,0,3.5,0.4,5,1.2c1.5,0.8,2.7,1.9,3.5,3.4
			c0.9,1.5,1.3,3.1,1.3,5C168.2,42.5,167.7,44.2,166.9,45.7z"/>
	</g>
	<path class="st1" d="M161.2,48.5c0.5-0.2,1-0.4,1.5-0.5c0.1-0.1,0.3-0.1,0.4-0.2c0,0,0,0,0,0c0.2-0.1,0.4-0.1,0.6-0.2
		c0.1,0,0.1,0,0.2-0.1c0.7-0.4,1.3-0.9,1.9-1.5c0,0,0,0,0,0c0,0,0,0,0,0c0.1-0.6,0.1-1.2,0.1-1.9c-0.3,0.2-0.5,0.3-0.7,0.4
		c-0.3,0.1-0.6,0.5-0.9,0.2c-0.3-0.4,0.3-0.5,0.5-0.7c0.8-0.5,1.7-1.5,2-2.4c0.1-0.4,0.2-0.9,0.2-1.5c0-0.1,0-0.2,0-0.3c0,0,0,0,0,0
		c0,0,0,0,0,0c0,0,0,0,0,0c0,0,0,0,0,0c-0.1-0.5-0.2-1.1-0.5-1.8c-0.3-0.7-0.7-1.2-1-1.6c-0.2,0-0.4-0.1-0.5-0.3
		c-0.2-0.2-0.2-0.5-0.2-0.7c0-0.8-0.1-3-0.8-4.5c-0.2-0.6-0.6-1.3-1.1-1.4c-0.3,0-0.6,0.2-1.1,0.7c-0.8,0.8-1.4,1.7-1.9,2.7
		c0,0.1-0.1,0.4-0.3,0.4c-0.2,0.1-0.4,0-0.4,0c-0.6-0.3-2.1-0.2-3.2,0.1c-0.7,0.2-1.1,0.3-1.6,0.7c-0.4,0.3-0.7,0.7-1.2,0.8
		c-0.2,0-0.4-0.1-0.5-0.1c-0.8-0.3-1.6-0.7-2.4-1c-0.7-0.2-1.5-0.7-2.1-0.1c-0.4,0.5-0.3,1.3-0.1,2.1c0.2,0.8,0.5,2,1.5,3.3
		c0.1,0.1,0.2,0.3,0.3,0.5c0.1,0.1,0.1,0.1,0.2,0.2c0.2,0.3-0.1,0.7-0.2,1.4c0,0.7,0.2,1.4,0.4,1.9c0,0,0,0,0,0
		c0.6,1.9,1.2,2.4,1.7,2.6c0.5,0.2,1,0.5,1.5,0.5c0.2,0,0.4,0.1,0.4,0.3c0,0.4-0.4,0.2-0.6,0.3c0,0.1,0,0.1,0,0.2
		c0,0.1,0,0.2,0.1,0.2c0.2,0.2,0.3,0.4,0.4,0.7c0.1,0.4,0.1,0.4,0.3,0.6c0.1,0.1,0.2,0.1,0.3,0.2c0,0,0,0,0-0.1
		c1.1,0.3,2.3,0.4,3.6,0.3C159,49,160.2,48.8,161.2,48.5z"/>
	<path class="st2" d="M167.7,40.1c0-0.1,0-0.2,0-0.3c0,0,0,0,0-0.1c0,0,0,0,0,0c0,0,0-0.1,0-0.1c-0.1-0.7-0.3-1.3-0.5-1.9
		c-0.3-0.6-0.6-1.2-1.1-1.8c-0.1-0.1-0.3-0.2-0.4-0.2c-0.1,0-0.1,0-0.1,0c0,0,0-0.1,0-0.2c0-0.8-0.1-3.1-0.8-4.8
		c-0.3-0.7-0.7-1.7-1.7-1.8c-0.7-0.1-1.1,0.4-1.6,0.9c-0.9,0.9-1.5,1.9-2.1,2.8c0,0,0,0,0,0.1c-0.9-0.3-2.5-0.2-3.5,0.1
		c-0.7,0.2-1.3,0.3-1.9,0.8c-0.1,0.1-0.2,0.2-0.3,0.3c-0.2,0.2-0.3,0.3-0.4,0.3c0,0-0.1,0-0.2-0.1l-0.1,0c-0.2-0.1-0.3-0.1-0.5-0.2
		c-0.6-0.3-1.3-0.6-2-0.8c-0.1,0-0.2-0.1-0.3-0.1c-0.6-0.2-1.6-0.6-2.4,0.2c-0.7,0.7-0.5,2-0.3,2.8c0.3,1.3,0.8,2.4,1.6,3.6
		c0.1,0.2,0.3,0.4,0.4,0.6c0,0,0,0,0,0c0,0,0,0.1,0,0.1c0,0-0.1,0.4-0.2,0.9c-0.3,2.2,0.8,3.7,0.8,3.7c0.7,0.9,1.5,1.3,1.7,1.4
		c0,0,0.2,0.1,0.5,0.2c0.1,0,0.2,0.1,0.3,0.1c0,0.1,0,0.2,0,0.2c0,0.1,0,0.1,0,0.2c0,0.1,0,0.2,0.1,0.2l0,0.1c0,0.1,0.1,0.2,0.2,0.3
		c0.1,0.1,0.2,0.2,0.2,0.4c0.1,0.5,0.2,0.6,0.5,0.9c0.1,0.1,0.2,0.2,0.4,0.3c0.2,0.1,0.3,0.1,0.5,0.1c1,0.2,2,0.3,3,0.3
		c0.2,0,0.3,0,0.5,0c1.3,0,2.5-0.2,3.6-0.5c0,0,0,0,0.1,0c0.5-0.2,0.9-0.3,1.4-0.5c0,0,0,0,0.1,0l0.1,0c0,0,0.1,0,0.1-0.1
		c0.1,0,0.1,0,0.2,0c0.2-0.1,0.4-0.1,0.7-0.2l0.2-0.1c0.1,0,0.1,0,0.2-0.1c0.8-0.5,1.5-1,2-1.6c0.2-0.2,0.2-0.4,0.2-0.6
		c0-0.6,0.1-1.1,0-1.8c0-0.2-0.1-0.4-0.2-0.5c0.5-0.5,0.9-1.2,1.1-1.8C167.6,41.3,167.7,40.7,167.7,40.1z M166.1,41.4
		c-0.2,0.7-1,1.6-1.7,2c0,0-0.1,0-0.1,0.1c-0.2,0.1-0.6,0.3-0.8,0.8c-0.1,0.2-0.1,0.5,0.2,0.8c0.2,0.3,0.5,0.4,0.7,0.4
		c0.3,0.1,0.6,0,0.8-0.2c0,0.1,0,0.2,0,0.3c-0.4,0.4-0.9,0.7-1.5,1.2c-0.1,0-0.1,0-0.1,0c-0.1,0-0.2,0.1-0.4,0.1
		c-0.1,0-0.2,0-0.3,0.1c-0.1,0.1-0.2,0.1-0.3,0.1l0,0c-0.5,0.2-1,0.3-1.5,0.5c-1,0.3-2.1,0.4-3.2,0.5c-1.2,0-2.3-0.1-3.3-0.3
		c0,0,0,0,0,0c0,0,0-0.1-0.1-0.2c0-0.2-0.1-0.3-0.2-0.5c0.3-0.2,0.4-0.6,0.4-0.8c0-0.2,0-0.9-1-1.1c-0.2,0-0.5-0.1-0.7-0.2
		c-0.2-0.1-0.4-0.2-0.6-0.2c-0.1,0-0.6-0.3-1.2-2c0,0,0-0.1,0-0.1c-0.1-0.4-0.4-1-0.3-1.6c0-0.2,0.1-0.4,0.1-0.6
		c0.1-0.3,0.3-0.9-0.2-1.3c0,0-0.1-0.1-0.1-0.1c0,0,0,0-0.1-0.1c-0.1-0.1-0.2-0.2-0.2-0.3c0,0,0-0.1,0-0.1c-0.7-1-1.2-2-1.4-3
		c-0.1-0.3-0.3-1.3-0.1-1.5c0.1-0.1,0.4-0.1,0.9,0.1c0.1,0.1,0.3,0.1,0.4,0.1c0.6,0.2,1.2,0.5,1.9,0.7c0.2,0.1,0.3,0.1,0.5,0.2l0,0
		c0.1,0.1,0.4,0.2,0.8,0.2c0.6,0,1-0.4,1.4-0.7c0.1-0.1,0.2-0.2,0.3-0.2c0.4-0.3,0.7-0.4,1.3-0.5c1.1-0.3,2.4-0.2,2.8-0.1
		c0.3,0.1,0.6,0.2,0.9,0.1c0.5-0.2,0.6-0.6,0.7-0.7c0.5-0.9,1.1-1.8,1.8-2.5c0.2-0.2,0.4-0.4,0.5-0.5c0.2,0.1,0.4,0.7,0.5,0.9
		c0.6,1.3,0.7,3.4,0.7,4.2c0,0.2,0,0.7,0.3,1.1c0.2,0.2,0.4,0.4,0.7,0.5c0.3,0.4,0.5,0.8,0.7,1.3c0.2,0.5,0.4,1,0.4,1.6
		c0,0.1,0,0.1,0,0.2C166.3,40.7,166.2,41.2,166.1,41.4z"/>
	<g>
		<path class="st3" d="M166.5,38.1c-0.3-0.7-0.7-1.2-1-1.6c-0.2,0-0.4-0.1-0.5-0.3c-0.2-0.2-0.2-0.5-0.2-0.7c0-0.8-0.1-3-0.8-4.5
			c-0.2-0.6-0.6-1.3-1.1-1.4c-0.3,0-0.6,0.2-1.1,0.7c-0.8,0.8-1.4,1.7-1.9,2.7c0,0.1-0.1,0.4-0.3,0.4c-0.2,0.1-0.4,0-0.4,0
			c-0.6-0.3-2.1-0.2-3.2,0.1c-0.7,0.2-1.1,0.3-1.6,0.7c-0.4,0.3-0.7,0.7-1.2,0.8c-0.2,0-0.4-0.1-0.5-0.1c-0.8-0.3-1.6-0.7-2.4-1
			c-0.7-0.2-1.5-0.7-2.1-0.1c-0.4,0.5-0.3,1.3-0.1,2.1c0.2,0.8,0.5,2,1.5,3.3c0.1,0.1,0.2,0.3,0.3,0.5c0.1,0.1,0.1,0.1,0.2,0.2
			c0.1,0.1-0.2,1.4-0.2,1.4c-0.2,1,0.2,2,0.3,2c0,0,0,0,0.1-0.1c0,0,0.1-0.1,0.2-0.2c0,0,0.1-0.2,0.3-0.3c0.3-0.2,0.7-0.2,1.1-0.2
			c0.5,0.1,0.9,0.1,1.4,0.2c0.5,0.1,0.9,0.1,1.3,0c0.5-0.1,0.7-0.3,1.5-0.9c1.1-0.9,1.7-1.3,2.1-1.5c0.4-0.2,1-0.4,1.9-0.3
			c0.4,0,1.1,0.1,1.9,0.2c1.5,0.2,2,0.4,2.8,0.4c0.5,0,1.3-0.2,2.3-0.7c0,0,0,0,0,0C166.9,39.5,166.8,38.8,166.5,38.1z"/>
	</g>
	<g>
		<path class="st4" d="M164.1,48.6c0.3,0,0.8-0.2,1.3-0.6c0.1-0.1,0.3-0.3,0.5-0.7c0.2-0.5,0.1-0.9,0-1.3c0.1-0.6,0.1-1.2,0.1-1.8
			c-0.3,0.2-0.5,0.3-0.7,0.4c-0.3,0.1-0.6,0.5-0.9,0.2c-0.3-0.4,0.3-0.5,0.5-0.7c0.8-0.5,1.7-1.5,2-2.4c0.1-0.4,0.2-0.9,0.2-1.5
			c0-0.1,0-0.2,0-0.3l-0.2,0.1c-1.5,0.6-2.6,0.6-3.3,0.5c-0.3-0.1-0.7-0.2-1.5-0.3c-0.8-0.1-1.4-0.2-1.9-0.2
			c0.2,0.2,0.2,0.4,0.3,0.5c0.1,0.5-0.4,1-0.4,1c-0.2,0.2-0.4,0.4-0.3,0.7c0.2,0.3,0.5,0.1,0.8,0.1c0.7-0.1,0.9-0.6,0.9-1.2
			c0-0.2,0-0.6,0.4-0.5c0.3,0,0.3,0.4,0.2,0.6c-0.3,1-0.4,2-0.9,2.9c-0.6,1.3-2.3,1.3-3.1,0.1c-0.2-0.3-0.4-0.5-0.8-0.6
			c-0.3-0.1-0.5-0.3-0.8-0.4c-0.2-0.2-0.5-0.4-0.3-0.7c0.3-0.3,0.5,0,0.7,0.2c0.6,0.5,1.2,0.5,1.8,0.1c0.5-0.4,0.5-0.7-0.1-0.9
			c-0.7-0.3-0.8-0.5-0.9-0.8c0-0.1-0.1-0.3,0-0.5c-0.2,0.1-0.5,0.3-0.8,0.5c-0.4,0.2-0.5,0.4-0.7,0.6c-0.7,0.5-1.1,0.8-1.5,0.9
			c-0.4,0.1-0.8,0.1-1.3,0c-0.5-0.1-0.9-0.1-1.4-0.2c-0.6-0.1-1.1,0.1-1.5,0.5c-0.1,0.1-0.1,0.1-0.2,0.2c0,0,0,0,0,0c0,0,0,0,0,0
			c0,0,0,0,0,0c0,0.1-0.1,0.1-0.2,0.1c0,0.3,0.1,0.9,0.6,1.5c0,0,0.5,0.7,1.2,1c0,0,0,0,0.1,0c0.8,0.3,1.2,0.5,1.5,0.5
			c0.2,0,0.4,0.1,0.4,0.3c0,0,0,0.1-0.1,0.2c-0.2,0.3-1.2-0.4-1.7-0.1c-0.2,0.1-0.2,0.3-0.2,0.3c-0.2,0.6,0.6,1.5,1.8,2.3
			c0.4,0.2,0.9,0.4,1.6,0.6c1.2,0.4,4.4,1.3,7.2-0.2C162.9,49.5,163.5,49.2,164.1,48.6z"/>
	</g>
	<g>
		<path class="st5" d="M161,46.6c-0.4,0.2-0.8,0.3-1.3,0.3c-0.1,0-0.1,0-0.2,0c-0.4-0.1-1.1,0.1-1.1-0.4c0-0.6,0.6-0.1,1-0.2
			c0.4,0,0.9,0,1.3-0.3c0.2-0.1,0.5-0.3,0.7,0C161.6,46.4,161.2,46.5,161,46.6z"/>
	</g>
	<g>
		<path class="st6" d="M161.7,40.7c-0.4-0.1-0.3,0.3-0.4,0.5c-0.1,0.6-0.3,1.1-0.9,1.2c-0.3,0-0.6,0.2-0.8-0.1
			c-0.2-0.3,0.1-0.5,0.3-0.7c0.4-0.5,0.6-1,0.2-1.5c0,0,0,0-0.1-0.1c0,0,0,0,0,0c-0.9-0.1-1.8,0.1-2.5,0.7c0,0,0,0,0,0h0
			c0,0,0,0,0,0c0,0.7,0.4,1,1,1.3c0.6,0.3,0.6,0.6,0.1,0.9c-0.6,0.4-1.3,0.4-1.8-0.1c-0.2-0.2-0.4-0.5-0.7-0.2
			c-0.2,0.3,0.1,0.5,0.3,0.7c0.2,0.2,0.5,0.4,0.8,0.4c0.4,0.1,0.6,0.3,0.8,0.6c0.8,1.2,2.5,1.2,3.1-0.1c0.4-0.9,0.6-1.9,0.9-2.9
			C162,41.1,162.1,40.8,161.7,40.7z M160.7,43.8c-0.2,0.5-0.6,0.7-0.9,0.8c-0.7,0.1-1-0.2-1.2-0.6c-0.2-0.3,0.2-0.4,0.4-0.5
			c0.3-0.3,0.5-0.2,0.5,0.2c0,0.2,0,0.5,0.3,0.4c0.3,0,0.2-0.3,0.2-0.5c0-0.2-0.2-0.5,0.2-0.6c0.2,0,0.4,0,0.5,0.1
			C160.9,43.3,160.8,43.6,160.7,43.8z"/>
	</g>
	<g>
		<g>
			<path class="st7" d="M158.8,43.3c-0.3,0.2-0.4,0.3-0.4,0.3c0,0.1,0,0.2,0,0.2c0.2,0.4,0.5,0.8,1.3,0.7c0.3,0,0.8-0.3,1-0.9
				c0.1-0.2,0.3-0.5,0.1-0.8c-0.1-0.1-0.3-0.1-0.5-0.1c-0.1,0-0.2,0-0.2,0.1c-0.1,0.1-0.1,0.2-0.1,0.5c0,0.3,0.1,0.4,0,0.5
				c0,0-0.1,0.1-0.1,0.1c-0.3,0.1-0.3-0.2-0.4-0.5c0-0.2-0.1-0.4-0.2-0.4C159.2,43.1,159.1,43.2,158.8,43.3z"/>
		</g>
	</g>
	<g>
		<path class="st3" d="M158.3,40.9C158.3,40.9,158.3,40.9,158.3,40.9C158.3,40.9,158.3,40.9,158.3,40.9z"/>
	</g>
	<g>
		<path class="st8" d="M150.2,38.8c-0.7-1-1.1-2-1.4-3.1c-0.2-0.8,0-1,0.8-1c0.4,0,0.8,0,1.1,0.2c1.3,0.6,1.3,0.6,0.6,1.8
			c-0.2,0.3-0.4,0.7-0.6,1C150.6,38,150.4,38.3,150.2,38.8z"/>
	</g>
	<g>
		<path class="st1" d="M156.6,40c-0.1,0.1-0.3,0.1-0.8,0c-0.5,0-0.7-0.1-0.8,0c-0.3,0.1-0.5,0.3-0.6,0.2c-0.1,0-0.1-0.1-0.1-0.2
			c0-0.1,0-0.2,0.1-0.3c0.1-0.1,0.3-0.2,0.3-0.2c0.1,0,0.3-0.1,0.5-0.1c0.3,0,0.4,0,0.7,0c0.5,0,0.7-0.1,0.8,0
			c0.1,0.1,0.1,0.2,0.1,0.2C156.7,39.8,156.6,39.9,156.6,40z"/>
	</g>
	<g>
		<path class="st9" d="M156.1,38.6c-0.4,0-0.7-0.1-0.8-0.5c-0.1-0.4,0.3-0.5,0.8-0.5c0.2,0,0.5,0.1,0.6,0.5
			C156.7,38.5,156.4,38.6,156.1,38.6z"/>
	</g>
	<g>
		<path class="st9" d="M160.1,37.5c-0.3,0-0.5-0.1-0.5-0.4c0-0.4,0.2-0.7,0.7-0.7c0.3,0,0.5,0.2,0.5,0.5
			C160.8,37.3,160.5,37.5,160.1,37.5z"/>
	</g>
	<g>
		<path class="st1" d="M161.6,38.5c-0.4,0.2-0.8,0.8-1.1,0.4c-0.3-0.5,0.5-0.6,0.8-0.9c0.2-0.1,0.4-0.3,0.7-0.3
			c0.4-0.1,0.5,0.1,0.4,0.4c0,0,0,0,0,0C162.2,38.4,161.8,38.4,161.6,38.5z"/>
	</g>
	<g>
		<path class="st8" d="M161.3,33.6c-0.2-0.1-0.4-0.2-0.3-0.5c0.3-0.6,0.6-1.2,1.1-1.7c0.7-0.6,1.1-0.5,1.5,0.3
			c0.5,1,0.5,2.1,0.7,3.4C163.2,34.5,162.3,33.9,161.3,33.6z"/>
	</g>
	<g>
		<polygon class="st8" points="144,38.2 144,38.2 144,38.2 		"/>
	</g>
	<g>
		<g>
			<path class="st2" d="M166.6,51.3c-0.3,0-0.5,0-0.8-0.1c0,0-0.1,0-0.1,0c-0.2,0-0.5,0-0.8-0.1c-0.3-0.1-0.4-0.3-0.5-0.5
				c0,0-0.1,0-0.1-0.1c-0.2,0-0.4-0.1-0.5-0.2c-0.5-0.3-0.6-0.9-0.6-1.3c0,0,0,0,0,0c0-0.1,0.2-2,0.8-3.1c0.1-0.2,0.2-0.4,0.3-0.5
				c0.1-0.2,0.4-0.5,0.9-0.7c0.6-0.3,1.2-0.4,1.7-0.3c0.2,0,0.3,0.1,0.5,0.1c0,0,0,0,0,0c0.4,0.2,1.2,0.8,1.5,2.1
				c0.2,0.9,0.2,2.1-0.1,3.4c0,0.1-0.1,0.2-0.1,0.2c-0.2,0.2-0.6,0.5-1,0.7c-0.1,0-0.2,0.1-0.3,0.1C167.2,51.1,167,51.3,166.6,51.3
				C166.7,51.3,166.6,51.3,166.6,51.3z M165.7,49.9c0.1,0,0.1,0,0.2,0c0.1,0,0.1,0,0.2,0c0.1,0,0.2,0,0.2,0.1c0,0,0.1,0,0.2,0
				c0.1,0,0.2-0.1,0.2-0.1c0.1-0.1,0.1-0.1,0.2-0.1c0.1,0,0.2-0.1,0.3-0.1c0.2-0.1,0.3-0.2,0.4-0.2c0.2-0.9,0.2-1.7,0.1-2.3
				c0,0-0.1-0.1-0.1-0.1c-0.1-0.2-0.1-0.4-0.1-0.6c-0.2-0.6-0.5-0.8-0.7-0.9c-0.1,0-0.1,0-0.2-0.1c-0.4-0.1-0.8,0.1-0.9,0.2
				c-0.2,0.1-0.4,0.3-0.4,0.3c0.1,0.2,0.1,0.5-0.1,0.7c-0.1,0.1-0.2,0.2-0.4,0.2c-0.3,0.9-0.4,1.9-0.4,2.1c0,0,0,0.2,0.1,0.2l0,0
				c0,0,0.1,0,0.1,0c0.1,0,0.3,0.1,0.4,0.2c0.1,0.1,0.2,0.1,0.2,0.2c0.1,0.1,0.2,0.1,0.2,0.2C165.6,49.9,165.7,49.9,165.7,49.9z
				 M165.6,50C165.6,50,165.6,50,165.6,50C165.6,50,165.6,50,165.6,50z M165.5,49.9C165.5,49.9,165.5,49.9,165.5,49.9
				C165.5,49.9,165.5,49.9,165.5,49.9z M167.8,49.4L167.8,49.4L167.8,49.4z"/>
		</g>
		<g>
			<g>
				<path class="st4" d="M164.5,46c0.1,0.2,0.4,0.4,0.4,0.4s2.5,0.4,3,0.4c0.3,0,0.5-0.1,0.7-0.2c0.2,0.8,0.2,1.9-0.1,3.5
					c0,0-0.4,0.3-0.8,0.5c0.2-0.6,0-1.4,0-1.5c0-0.1-0.1-0.1-0.2-0.1c-0.1,0-0.1,0.1-0.1,0.2c0,0,0.2,0.9-0.1,1.5c0,0,0,0,0,0.1
					c-0.1,0.1-0.3,0.2-0.6,0.2c-0.3,0-0.5-0.1-0.6-0.1c0.1-0.2,0.2-0.4,0.2-0.9c0-0.3,0.1-0.6,0.1-0.8c0-0.1-0.1-0.1-0.1-0.1
					c-0.1,0-0.2,0.1-0.2,0.1c0,0.3,0,0.5-0.1,0.8c-0.1,0.5-0.1,0.6-0.2,0.8c0,0,0,0,0,0.1c0,0-0.3,0.1-0.5,0
					c-0.2-0.1-0.3-0.3-0.3-0.3c0,0,0,0,0,0c-0.1-0.3-0.1-0.5,0-0.8c0-0.2,0.1-0.4,0.2-0.6c0-0.1,0-0.2-0.1-0.2c-0.1,0-0.2,0-0.2,0.1
					c-0.1,0.2-0.2,0.4-0.2,0.7c0,0.2,0,0.4,0,0.6c-0.1,0-0.3,0-0.5-0.2c-0.4-0.3-0.4-0.8-0.4-0.8C163.7,49.2,163.9,47.1,164.5,46z"
					/>
			</g>
			<g>
				<path class="st3" d="M167.3,49.2c0-0.1,0-0.2,0.1-0.2c0.1,0,0.2,0,0.2,0.1c0,0,0.2,0.8,0,1.5c-0.1,0-0.2,0.1-0.4,0.1
					c0,0,0,0,0-0.1C167.6,50.1,167.3,49.2,167.3,49.2z"/>
			</g>
			<g>
				<path class="st3" d="M164.8,48.9c0-0.1,0.1-0.1,0.2-0.1c0.1,0,0.1,0.1,0.1,0.2c-0.1,0.2-0.1,0.4-0.2,0.6c0,0.3,0,0.5,0,0.8
					c0,0,0,0,0,0c-0.1-0.1-0.2-0.2-0.3-0.2c0-0.2,0-0.4,0-0.6C164.6,49.3,164.7,49.1,164.8,48.9z"/>
			</g>
			<g>
				<path class="st3" d="M166,49.9c0-0.3,0.1-0.5,0.1-0.8c0-0.1,0.1-0.1,0.2-0.1c0.1,0,0.1,0.1,0.1,0.1c0,0.3,0,0.6-0.1,0.8
					c-0.1,0.5-0.1,0.7-0.2,0.9c-0.1,0-0.2,0-0.3-0.1c0,0,0,0,0-0.1C165.8,50.6,165.9,50.4,166,49.9z"/>
			</g>
			<g>
				<path class="st3" d="M167.9,46.9c0,0-1.3,0.5-3-0.5c-0.1-0.1-0.2-0.1-0.2-0.1c-0.1-0.1-0.2-0.2-0.2-0.3c0-0.1,0.1-0.3,0.3-0.4
					c0.1-0.1,0.3-0.4,0.8-0.6c0.2-0.1,0.8-0.4,1.4-0.3c0.2,0,0.3,0.1,0.4,0.1c0.4,0.2,1,0.7,1.2,1.8
					C168.3,46.8,168.1,46.9,167.9,46.9z"/>
			</g>
		</g>
	</g>
	<g>
		<g>
			<path class="st2" d="M152.4,52.4C152.4,52.4,152.4,52.4,152.4,52.4c-0.4-0.1-0.6-0.2-0.8-0.3c-0.1,0-0.2-0.1-0.3-0.1
				c-0.4-0.2-0.8-0.4-1-0.7c0-0.1-0.1-0.1-0.1-0.2c-0.2-1.3-0.2-2.4,0-3.2c0.3-1.2,1.1-1.7,1.4-1.9c0,0,0,0,0,0
				c0.1-0.1,0.3-0.1,0.5-0.1c0.5-0.1,1.1,0,1.6,0.3c0.4,0.3,0.7,0.6,0.8,0.7c0.1,0.1,0.2,0.3,0.3,0.5c0.5,1.1,0.6,2.9,0.6,3
				c0,0,0,0,0,0c0,0.1,0,0.8-0.6,1.2c-0.1,0.1-0.3,0.2-0.5,0.2c0,0-0.1,0-0.1,0.1c-0.1,0.1-0.3,0.3-0.5,0.4c-0.3,0.1-0.5,0.1-0.7,0
				c0,0-0.1,0-0.1,0C152.9,52.4,152.7,52.5,152.4,52.4z M151.5,50.8c0.1,0.1,0.2,0.2,0.4,0.2c0.1,0,0.2,0.1,0.3,0.1
				c0.1,0,0.1,0.1,0.2,0.1c0,0,0.1,0.1,0.2,0.1c0.1,0,0.2,0,0.2,0c0.1,0,0.1-0.1,0.2-0.1c0.1,0,0.1,0,0.2,0c0.1,0,0.2,0,0.3,0
				c0-0.1,0.1-0.2,0.2-0.2c0.1,0,0.2-0.1,0.2-0.2c0.1-0.1,0.2-0.1,0.3-0.1c0,0,0.1,0,0.1,0c0.1-0.1,0.1-0.2,0.1-0.3
				c0-0.2-0.1-1.2-0.3-2c-0.1,0-0.2-0.1-0.3-0.2c-0.2-0.2-0.2-0.5,0-0.7c0-0.1-0.2-0.2-0.4-0.4c-0.1-0.1-0.5-0.3-0.9-0.2
				c-0.1,0-0.1,0-0.2,0c-0.2,0.1-0.5,0.3-0.7,0.9c0.1,0.2,0,0.3-0.1,0.5c0,0-0.1,0.1-0.1,0.1C151.3,49.2,151.3,49.9,151.5,50.8z"/>
		</g>
		<g>
			<g>
				<path class="st4" d="M154.7,47.5c-0.1,0.2-0.4,0.4-0.4,0.4s-2.4,0.3-2.8,0.3c-0.3,0-0.5-0.1-0.6-0.2c-0.2,0.7-0.3,1.8,0,3.2
					c0,0,0.3,0.3,0.8,0.5c-0.2-0.6,0-1.3,0-1.4c0-0.1,0.1-0.1,0.2-0.1c0.1,0,0.1,0.1,0.1,0.2c0,0-0.2,0.8,0,1.4c0,0,0,0,0,0.1
					c0.1,0.1,0.3,0.2,0.5,0.3c0.3,0,0.5-0.1,0.6-0.1c-0.1-0.2-0.1-0.4-0.2-0.8c0-0.3,0-0.5,0-0.8c0-0.1,0.1-0.1,0.1-0.1
					c0.1,0,0.1,0.1,0.1,0.1c0,0.3,0,0.5,0,0.8c0,0.4,0.1,0.6,0.2,0.7c0,0,0,0,0,0.1c0,0,0.2,0.1,0.5,0c0.2-0.1,0.3-0.3,0.3-0.3
					c0,0,0,0,0,0c0.1-0.2,0.1-0.5,0-0.7c0-0.2-0.1-0.4-0.1-0.6c0-0.1,0-0.1,0.1-0.2c0.1,0,0.2,0,0.2,0.1c0.1,0.2,0.1,0.4,0.2,0.6
					c0,0.2,0,0.4,0,0.6c0.1,0,0.3,0,0.4-0.1c0.4-0.2,0.4-0.7,0.4-0.8C155.3,50.5,155.1,48.6,154.7,47.5z"/>
			</g>
			<g>
				<path class="st3" d="M151.9,50.4c0-0.1,0-0.1-0.1-0.2c-0.1,0-0.2,0-0.2,0.1c0,0-0.2,0.8,0,1.4c0.1,0,0.2,0.1,0.3,0.1
					c0,0,0,0,0-0.1C151.6,51.2,151.9,50.4,151.9,50.4z"/>
			</g>
			<g>
				<path class="st3" d="M154.3,50.2c0-0.1-0.1-0.1-0.2-0.1c-0.1,0-0.1,0.1-0.1,0.2c0.1,0.2,0.1,0.4,0.1,0.6c0,0.2,0,0.5,0,0.7
					c0,0,0,0,0,0c0.1-0.1,0.2-0.1,0.3-0.2c0-0.2,0-0.4,0-0.6C154.4,50.6,154.4,50.4,154.3,50.2z"/>
			</g>
			<g>
				<path class="st3" d="M153.2,51.2c0-0.2,0-0.5,0-0.8c0-0.1-0.1-0.1-0.1-0.1c-0.1,0-0.1,0.1-0.1,0.1c0,0.3,0,0.5,0,0.8
					c0,0.4,0.1,0.6,0.2,0.8c0.1,0,0.2,0,0.3,0c0,0,0,0,0-0.1C153.3,51.8,153.2,51.6,153.2,51.2z"/>
			</g>
			<g>
				<path class="st3" d="M151.4,48.3c0,0,1.2,0.5,2.8-0.4c0.1,0,0.2-0.1,0.2-0.1c0.1-0.1,0.2-0.2,0.2-0.3c0-0.1-0.1-0.3-0.2-0.4
					c-0.1-0.1-0.3-0.4-0.7-0.6c-0.2-0.1-0.7-0.4-1.3-0.3c-0.1,0-0.3,0.1-0.4,0.1c-0.4,0.2-0.9,0.6-1.2,1.6
					C151.1,48.1,151.3,48.2,151.4,48.3z"/>
			</g>
		</g>
	</g>
</g>
</svg>
