<?xml version="1.0" encoding="utf-8"?>
<!-- Generator: Adobe Illustrator 22.0.0, SVG Export Plug-In . SVG Version: 6.00 Build 0)  -->
<svg version="1.1" id="Layer_1" xmlns="http://www.w3.org/2000/svg" xmlns:xlink="http://www.w3.org/1999/xlink" x="0px" y="0px"
	 viewBox="0 0 75 75" style="enable-background:new 0 0 75 75;" xml:space="preserve">
<style type="text/css">
	.st0{display:none;fill:#FFFFFF;}
	.st1{fill:#B91165;}
	.st2{fill:#FFFFFF;}
</style>
<path id="Rectangle_94-2" class="st0" d="M0.8,0.4h73.6c1.1,0,1.9,0.9,1.9,2.1v73.2c0,1.2-0.8,2.1-1.9,2.1H0.8
	c-1.1,0-1.9-0.9-1.9-2.1V2.5C-1.2,1.4-0.3,0.4,0.8,0.4z"/>
<ellipse id="Ellipse_33-4" transform="matrix(2.774569e-02 -0.9996 0.9996 2.774569e-02 -1.2193 73.903)" class="st1" cx="37.4" cy="37.6" rx="37.5" ry="37.5"/>
<g id="car">
	<g id="Group_5920_1_" transform="translate(-18494 -18797.18)">
		<path id="Path_1567_1_" class="st2" d="M18521.2,18844.3c0-0.6-0.5-1.1-1.1-1.1h-6.3c-0.6,0-1.1,0.5-1.1,1.1v4.1
			c0,0.6,0.5,1.1,1.1,1.1h6.3c0.6,0,1.1-0.5,1.1-1.1V18844.3z M18515,18845.5h4v1.9h-4V18845.5z"/>
		<path id="Path_1568_1_" class="st2" d="M18545,18844.3c0-0.6-0.5-1.1-1.1-1.1h-6.3c-0.6,0-1.1,0.5-1.1,1.1v4.1
			c0,0.6,0.5,1.1,1.1,1.1h6.3c0.6,0,1.1-0.5,1.1-1.1V18844.3z M18538.6,18845.5h4v1.9h-4V18845.5z"/>
		<path id="Path_1569_1_" class="st2" d="M18524.7,18849.5h8.2c0.6,0,1.1-0.4,1.1-1.1s-0.4-1.1-1.1-1.1h-0.1h-8.2
			c-0.6,0-1.1,0.4-1.1,1.1C18523.6,18849,18524,18849.5,18524.7,18849.5C18524.6,18849.5,18524.6,18849.5,18524.7,18849.5z"/>
		<path id="Path_1570_1_" class="st2" d="M18524.7,18846.4h8.2c0.6,0,1.1-0.4,1.1-1.1s-0.4-1.1-1.1-1.1h-0.1h-8.2
			c-0.6,0-1.1,0.4-1.1,1.1S18524,18846.4,18524.7,18846.4C18524.6,18846.4,18524.6,18846.4,18524.7,18846.4z"/>
		<path id="Path_1571_1_" class="st2" d="M18553.1,18816.3l-10.4-5.4c-0.4-0.2-0.8-0.2-1.1,0l-10.1,5.4c-0.4,0.2-0.6,0.5-0.6,1v7.6
			c0,1.8,0.4,3.4,1,5h-13.5c-1.6,0-3,0.9-3.6,2.3l-2.9,6.5l-1.1,1.1c-1.1,1-1.8,2.3-1.8,3.8v11.4c0,2.1,1.7,3.7,3.8,3.7l0,0h2.3
			c2.1,0,3.8-1.7,3.9-3.7l0,0v-1.4h20.3v1.4c0.1,2.1,1.8,3.8,3.9,3.7h2.2c2.1,0,3.8-1.6,3.9-3.7v-11.7c0-1.4-0.6-2.6-1.6-3.6
			l-0.8-0.9l-0.5-1.1c4.7-2.6,7.7-7.6,7.7-12.9v-7.4C18553.6,18816.9,18553.4,18816.5,18553.1,18816.3L18553.1,18816.3z
			 M18535.7,18835.9c1.1,1,2.3,1.8,3.6,2.5h-6.8C18532.9,18836.9,18534.2,18836,18535.7,18835.9z M18516.7,18833.1
			c0.3-0.5,0.8-1,1.4-1h14.5c0.4,0.6,0.7,1.1,1.1,1.7c-1.9,0.7-3.4,2.4-3.8,4.4h-15.6L18516.7,18833.1z M18511,18843.6
			c0-0.8,0.4-1.6,1-2.1l0,0l1.1-1h31.8l0.7,0.7c0,0,0,0,0.1,0c0.5,0.5,0.9,1.2,0.9,2v6.7c0,0.8-0.7,1.4-1.5,1.4l0,0h-32.5
			c-0.8,0-1.4-0.5-1.5-1.3V18843.6z M18516.3,18855.1c0,0.8-0.7,1.5-1.5,1.5l0,0h-2.2c-0.8,0-1.5-0.6-1.5-1.4l0,0v-1.6
			c0.4,0.2,1,0.3,1.5,0.3h3.7V18855.1z M18545,18856.5h-2.2c-0.8,0-1.5-0.6-1.5-1.5v-1.4h3.8c0.5,0,1.1-0.1,1.5-0.3v1.6
			C18546.6,18855.9,18545.9,18856.6,18545,18856.5L18545,18856.5z M18551.3,18824.8c0,5.2-3.3,10-8.1,11.8l0,0l-1.1,0.4l-1-0.4
			c-4.8-1.9-7.9-6.6-8-11.7v-6.9l9-4.8l9.2,4.8V18824.8z"/>
	</g>
	<path id="Path_1572_1_" class="st2" d="M44.6,27c-0.4-0.4-1.1-0.5-1.7-0.1c-0.4,0.4-0.5,1.1-0.2,1.6c0,0,0,0,0,0.1l2.7,3.1l0,0
		l0.1,0.1c0,0,0,0,0.1,0s0,0,0.1,0c0,0,0,0,0.1,0c0,0,0,0,0.1,0h0.1h0.1h0.1h0.1h0.1c0,0,0,0,0.1,0h0.1h0.1h0.3H47l0,0h0.1l0,0h0.1
		l0,0c0,0,0,0,0.1,0c0,0,0,0,0.1,0h0.1l0,0h0.1l0,0l0,0l6.4-5c0.4-0.4,0.6-1.1,0.2-1.6c0,0,0,0,0-0.1c-0.4-0.5-1.1-0.5-1.7-0.2
		L47,29.2L44.6,27z"/>
</g>
</svg>
