<?xml version="1.0" encoding="utf-8"?>
<!-- Generator: Adobe Illustrator 22.0.0, SVG Export Plug-In . SVG Version: 6.00 Build 0)  -->
<svg version="1.1" id="Layer_1" xmlns="http://www.w3.org/2000/svg" xmlns:xlink="http://www.w3.org/1999/xlink" x="0px" y="0px"
	 viewBox="0 0 75 75" style="enable-background:new 0 0 75 75;" xml:space="preserve">
<style type="text/css">
	.st0{fill:#B91165;}
	.st1{fill:#FFFFFF;stroke:#FFFFFF;stroke-width:0.155;}
</style>
<circle id="Ellipse_33-4" class="st0" cx="37.7" cy="37.7" r="37.5"/>
<g>
	<path id="Path_1577" class="st1" d="M54,43.9l-2.9-0.6v-2.1c0-1.5-1.2-2.7-2.7-2.7c-1.5,0-2.7,1.2-2.7,2.7v1l-1.8-0.4v-1.6
		c0-1.5-1.2-2.7-2.7-2.7s-2.7,1.2-2.7,2.7v0.6l-2-0.4l0.1-3.7v-4.5c0-2.4-2-4.5-4.4-4.6c-2.4,0-4.5,2-4.6,4.4v0.1v4.5l0.1,3.6
		l-2,0.4v-0.4c0-1.5-1.2-2.7-2.7-2.7s-2.7,1.2-2.7,2.7v1.6l-1.8,0.4v-1c0-1.5-1.2-2.7-2.7-2.7c-1.5,0-2.7,1.2-2.7,2.7v2.1l-2.9,0.6
		c0.1,0.1-0.3,0.5-0.3,0.8v3.5c0,0.5,0.4,0.9,0.9,0.9h17.4l0.2,6L22.1,61c-0.2,0.2-0.3,0.4-0.3,0.7v2.7c0,0.5,0.4,0.9,0.9,0.9
		c0.1,0,0.3,0,0.4-0.1l7-3.4H35l7,3.4c0.1,0.1,0.3,0.1,0.4,0.1c0.5,0,0.9-0.4,0.9-0.9v-2.7c0-0.3-0.1-0.5-0.3-0.7l-6.6-5.8l0.2-6H54
		c0.5,0,0.9-0.4,0.9-0.9v-3.5C54.7,44.3,54.4,44,54,43.9z M47.6,41.2c0-0.5,0.4-0.9,0.9-0.9c0.5,0,0.9,0.4,0.9,0.9l0,0v1.8l-1.8-0.4
		L47.6,41.2L47.6,41.2z M40.5,40.3c0-0.5,0.4-0.9,0.9-0.9c0.5,0,0.9,0.4,0.9,0.9v1.2l-1.8-0.4L40.5,40.3L40.5,40.3z M22.7,40.3
		c0-0.5,0.4-0.9,0.9-0.9s0.9,0.4,0.9,0.9v0.8l-1.8,0.4L22.7,40.3L22.7,40.3z M15.6,41.2c0-0.5,0.4-0.9,0.9-0.9
		c0.6,0,0.9,0.4,0.9,0.9v1.4l-1.8,0.4L15.6,41.2L15.6,41.2z M12,47.4v-2l16.2-3.3l0.2,5.2H12z M23.6,62.1l5.2-4.6l0.1,2.7l-5.3,2.7
		V62.1z M30.6,59.9l-0.8-23.1v-4.5c0-1.5,1.2-2.7,2.7-2.7c1.5,0,2.7,1.2,2.7,2.7v4.4l-0.8,23.1L30.6,59.9z M41.3,62.1v0.8L36,60.2
		l0.1-2.7L41.3,62.1z M53,47.4H36.6l0.2-5.2L53,45.5V47.4z"/>
	<path id="Path_1578" class="st1" d="M64.5,13.6h-0.7c-3.4,0-6.8-1.2-9.5-3.3c-0.4-0.3-0.8-0.2-1.2,0.1c-2.7,2.1-6,3.3-9.5,3.3H43
		c-0.5,0-0.9,0.4-0.9,0.9v10.7c0,3.1,1.5,5.9,3.9,7.8l7.2,5.3c0.3,0.3,0.7,0.3,1,0l7.2-5.3c2.4-1.9,3.9-4.7,3.9-7.8V14.5
		C65.4,14,64.9,13.6,64.5,13.6L64.5,13.6z M63.6,25.2c0,2.5-1.2,4.9-3.2,6.4l-6.6,4.9l-6.6-4.9c-2-1.5-3.2-3.9-3.2-6.4v-9.8
		c3.5-0.1,7-1.2,9.8-3.3c2.9,2.1,6.2,3.3,9.8,3.3V25.2z"/>
	<path id="Path_1579" class="st1" d="M45.8,24.3c0,4.5,3.6,8,8,8c4.5,0,8-3.6,8-8s-3.6-8-8-8l0,0C49.4,16.3,45.8,19.9,45.8,24.3z
		 M53.8,18c3.4,0,6.2,2.8,6.2,6.2s-2.8,6.2-6.2,6.2c-3.4,0-6.2-2.8-6.2-6.2C47.6,20.8,50.4,18,53.8,18z"/>
	<path id="Path_1580" class="st1" d="M53,28.7L53,28.7c0.4,0,0.6-0.2,0.7-0.4l4.5-7.2l-1.5-0.9l-3.8,6.1L51,24.5l-1.3,1.3l2.7,2.7
		C52.5,28.6,52.7,28.7,53,28.7z"/>
	<path id="Path_1581" class="st1" d="M13.8,24.3h19.6c2,0,3.5-1.6,3.5-3.5c0-1.4-0.8-2.7-2.2-3.3c0.3-0.7,0.5-1.3,0.4-2
		c0-3-2.4-5.3-5.3-5.3c-1.3,0-2.6,0.5-3.5,1.4c-2.1-2-5.6-1.8-7.5,0.4c-0.5,0.6-0.8,1.1-1.1,1.8c-2.2-0.2-4.3,1.4-4.6,3.6
		c-2,0.5-3.1,2.4-2.6,4.3C10.8,23.1,12.1,24.3,13.8,24.3L13.8,24.3z M29.8,11.8c2,0,3.5,1.6,3.5,3.5c0,0.7-0.3,1.5-0.7,2.1
		c-0.2,0.3-0.3,0.7-0.1,0.9c0.2,0.4,0.5,0.6,0.8,0.5c1,0,1.8,0.8,1.8,1.8c0,0.9-0.8,1.8-1.8,1.8h-4.1c0.3-0.6,0.5-1.1,0.5-1.8
		c0-1.4-0.8-2.7-2.2-3.3c0.3-0.7,0.5-1.3,0.4-2c0-0.9-0.2-1.8-0.7-2.6C28,12.2,28.9,11.8,29.8,11.8z M13.8,19c0.5,0,0.9-0.4,0.9-0.9
		c0-1.5,1.2-2.7,2.7-2.7c0.3,0,0.5,0,0.7,0.1c0.5,0.1,0.9-0.2,1.1-0.7v-0.1c0.3-2,2.1-3.3,4.1-2.9c2,0.3,3.3,2.1,2.9,4.1
		c-0.1,0.6-0.4,1.1-0.7,1.6c-0.2,0.3-0.3,0.7-0.1,0.9c0.2,0.3,0.5,0.6,0.8,0.5c1,0,1.8,0.8,1.8,1.8c0,0.9-0.8,1.8-1.8,1.8H13.8
		c-1,0-1.8-0.8-1.8-1.8C12.1,19.7,12.8,19,13.8,19L13.8,19z"/>
</g>
</svg>
