<?xml version="1.0" encoding="utf-8"?>
<!-- Generator: Adobe Illustrator 22.0.0, SVG Export Plug-In . SVG Version: 6.00 Build 0)  -->
<svg version="1.1" id="Layer_1" xmlns="http://www.w3.org/2000/svg" xmlns:xlink="http://www.w3.org/1999/xlink" x="0px" y="0px"
	 viewBox="0 0 75 75" style="enable-background:new 0 0 75 75;" xml:space="preserve">
<style type="text/css">
	.st0{fill:#B91165;}
	.st1{fill:#FFFFFF;stroke:#FFFFFF;stroke-width:0.154;}
</style>
<g>
	<g transform="matrix(1, 0, 0, 1, -18033, -18846.81)">
		<circle id="Ellipse_33-2" class="st0" cx="18070.5" cy="18884" r="37.5"/>
	</g>
	<g id="home-insurance" transform="translate(-17929 -18773.758)">
		<path id="Path_2577" class="st1" d="M17982.5,18813.8l-20.3-15.1c-0.3-0.2-0.8-0.2-1.1,0l-20.3,15.1c-0.2,0.1-0.3,0.3-0.3,0.6
			c0,0.2,0.1,0.4,0.2,0.6l4.1,4.2c0.3,0.3,0.8,0.4,1.2,0.1l1.3-1v16.3c0,0.5,0.4,0.8,0.9,0.8l0,0h27.3c0.5,0,0.9-0.3,0.9-0.8v-16.3
			l1.3,1c0.2,0.1,0.3,0.2,0.5,0.2s0.5-0.1,0.6-0.3l4.1-4.2c0.2-0.2,0.3-0.4,0.3-0.6C17982.8,18814.2,17982.7,18814,17982.5,18813.8z
			 M17966.1,18833.8h-8.9v-9.8h8.9V18833.8z M17974.5,18833.8h-6.7v-10.6c0-0.5-0.4-0.8-0.9-0.8h-10.6c-0.2,0-0.4,0.1-0.6,0.2
			c-0.2,0.1-0.2,0.4-0.2,0.6v10.6h-6.7v-16.8l12.8-9.5l12.8,9.5L17974.5,18833.8L17974.5,18833.8z M17977.8,18817.5l-15.6-11.6
			c-0.3-0.2-0.8-0.2-1.1,0l-15.7,11.6l-2.9-3l19.1-14.1l19.1,14.2L17977.8,18817.5z"/>
		<path id="Path_2578" class="st1" d="M17992.2,18791.3l-10.3-4.7c-0.2-0.1-0.5-0.1-0.8,0l-10.1,4.7c-0.3,0.1-0.5,0.4-0.5,0.7v8.6
			c0.2,2.7,1.6,5.2,3.9,6.8l6.7,4.3c0.3,0.2,0.7,0.2,1,0l6.7-4.3c2.3-1.6,3.7-4.1,3.9-6.8v-8.6
			C17992.6,18791.7,17992.5,18791.5,17992.2,18791.3z M17990.9,18800.6c-0.2,2.2-1.4,4.3-3.1,5.5l-6.2,4l-6.2-4
			c-1.8-1.3-3-3.3-3.1-5.5v-8.1l9.4-4.3l9.4,4.3v8.1H17990.9z"/>
		<path id="Path_2579" class="st1" d="M17978.3,18798.6c-0.3-0.3-0.9-0.3-1.2,0s-0.3,0.8-0.1,1.1c0,0,0,0,0.1,0.1l2.6,2.4
			c0.2,0.2,0.4,0.3,0.6,0.3l0,0c0.2,0,0.4-0.1,0.6-0.3l5.1-4.8c0.3-0.3,0.3-0.8,0.1-1.1c0,0,0,0-0.1-0.1c-0.3-0.3-0.9-0.3-1.2,0
			l-4.6,4.3L17978.3,18798.6z"/>
	</g>
</g>
</svg>
