<?xml version="1.0" encoding="utf-8"?>
<!-- Generator: Adobe Illustrator 22.0.0, SVG Export Plug-In . SVG Version: 6.00 Build 0)  -->
<svg version="1.1" id="Layer_1" xmlns="http://www.w3.org/2000/svg" xmlns:xlink="http://www.w3.org/1999/xlink" x="0px" y="0px"
	 viewBox="0 0 75 75" style="enable-background:new 0 0 75 75;" xml:space="preserve">
<style type="text/css">
	.st0{fill:#B91165;}
	.st1{fill:#FFFFFF;stroke:#FFFFFF;}
</style>
<g id="Group_5917" transform="translate(-17689 -18791.869)">
	<g transform="matrix(1, 0, 0, 1, -86, -55)">
		<circle id="Ellipse_33-2" class="st0" cx="17812.4" cy="18884.4" r="37.5"/>
	</g>
	<g id="life_shield-2" transform="translate(20 10)">
		<path id="Path_1573-2" class="st1" d="M17697,18809L17697,18809c4.7,0,8.6-3.9,8.6-8.6s-3.9-8.6-8.6-8.6l0,0
			c-4.7,0-8.6,3.9-8.6,8.6S17692.2,18809,17697,18809z M17697,18793.4L17697,18793.4c3.8,0,6.9,3.2,6.8,7c0,3.8-3.1,6.8-6.8,6.8l0,0
			c-3.8,0-6.9-3.2-6.8-7C17690.2,18796.5,17693.1,18793.5,17697,18793.4L17697,18793.4z"/>
		<path id="Path_1574-2" class="st1" d="M17729.9,18823.4l-10.8-5.3c-0.3-0.1-0.6-0.1-0.8,0l-7.5,3.6c-1.3-5.6-6.2-9.7-12-9.7h-4
			c-6.8,0-12.3,5.5-12.4,12.3v12.4c0,0.5,0.4,0.9,1,0.9h24.4c0.7,1.6,1.8,3,3.2,4.1l7.1,4.8c0.3,0.2,0.7,0.2,1,0l7.1-4.8
			c2.4-1.8,4-4.7,4.1-7.8v-9.8C17730.5,18823.9,17730.3,18823.6,17729.9,18823.4z M17684.4,18835.9v-11.5c0-5.8,4.7-10.6,10.6-10.6
			h4c5.1,0,9.5,3.7,10.4,8.7l-1.7,0.9c-0.3,0.2-0.5,0.5-0.5,0.8v9.8c0,0.7,0.1,1.3,0.3,1.8L17684.4,18835.9z M17728.7,18833.9
			c-0.2,2.5-1.4,4.7-3.3,6.3l-6.6,4.5l-6.6-4.5c-1.9-1.6-3.2-3.8-3.3-6.3v-9.2l9.9-4.8l9.9,4.8L17728.7,18833.9z"/>
		<path id="Path_1575-2" class="st1" d="M17715.4,18831.7c-0.4-0.4-0.9-0.4-1.3,0c-0.4,0.4-0.4,0.9,0,1.3l0,0l2.8,2.8
			c0.2,0.2,0.4,0.3,0.6,0.3l0,0c0.2,0,0.5-0.1,0.7-0.3l5.4-5.4c0.4-0.3,0.4-0.9,0-1.3c-0.4-0.4-0.9-0.4-1.3,0l0,0l-4.8,4.8
			L17715.4,18831.7z"/>
	</g>
</g>
</svg>
