<?xml version="1.0" encoding="utf-8"?>
<!-- Generator: Adobe Illustrator 22.0.0, SVG Export Plug-In . SVG Version: 6.00 Build 0)  -->
<svg version="1.1" id="Layer_1" xmlns="http://www.w3.org/2000/svg" xmlns:xlink="http://www.w3.org/1999/xlink" x="0px" y="0px"
	 viewBox="0 0 75 75" style="enable-background:new 0 0 75 75;" xml:space="preserve">
<style type="text/css">
	.st0{fill:#B91165;}
	.st1{fill:#FFFFFF;}
	.st2{fill:none;}
</style>
<g>
	
		<ellipse id="Ellipse_33-2" transform="matrix(4.981369e-02 -0.9988 0.9988 4.981369e-02 -1.4767 72.9477)" class="st0" cx="37.6" cy="37.2" rx="37.5" ry="37.5"/>
	<g id="motorbike" transform="translate(0 5.596)">
		<path id="Path_2583" d="M28.3,44.1l0.6,0.2h20.3"/>
		<path id="Path_2584" d="M41.4,19.7l-7-2"/>
		<path id="Path_2585" class="st1" d="M55.6,38.7c-2,0-3.5,1.6-3.5,3.5s1.6,3.5,3.5,3.5s3.5-1.6,3.5-3.5
			C59,40.3,57.5,38.7,55.6,38.7z M55.6,43.6c-0.8,0-1.5-0.6-1.5-1.5c0-0.8,0.6-1.5,1.5-1.5s1.4,0.8,1.4,1.6l0,0
			C57,43,56.4,43.6,55.6,43.6L55.6,43.6z"/>
		<path id="Path_2586" class="st1" d="M18.4,33.9c-0.6,0.1-0.9,0.7-0.8,1.2c0.1,0.6,0.7,0.9,1.2,0.8l0,0c2.4-0.5,5.7-0.6,7.3,2.2
			c0.3,0.5,1,0.6,1.4,0.3c0.5-0.3,0.6-1,0.3-1.4C26.1,34.1,22.7,32.9,18.4,33.9z"/>
		<path id="Path_2587" class="st1" d="M27.3,39.6c-0.3,0.5-0.2,1.1,0.3,1.5l0,0c0.2,0.1,0.4,0.2,0.6,0.2c0.4,0,0.7-0.2,0.9-0.5
			c0.3-0.5,0.2-1.1-0.3-1.5l0,0C28.3,39,27.6,39.1,27.3,39.6z"/>
		<path id="Path_2588" d="M45.9,38.1L45.9,38.1c0,0.1,0.1,0.1,0.1,0.2C45.9,38.2,45.9,38.2,45.9,38.1z"/>
		<path id="Path_2589" class="st2" d="M19.5,32.6c-1.3,0.2-2.4,0.5-3.6,0.9c-0.9,1.3-1.6,2.5-2.2,3.9l1.9,0.7h0.1l12.8,5h0.1
			l0.4,0.2h1.8c-0.1-4.6-1.4-7.8-3.7-9.5c-0.3-0.2-0.7-0.4-1-0.6c-0.9,0.5-1.8,0.9-2.7,1.2C21.9,34,20.7,33.3,19.5,32.6z"/>
		<path id="Path_2590" class="st2" d="M27.9,32c0.1,0.1,0.2,0.1,0.3,0.2c3,2.1,4.6,5.9,4.6,11.2h15c-0.1-0.4-0.1-0.7-0.1-1.1
			c0-4.4,3.5-7.9,7.9-7.9c0.1,0,0.2,0,0.3,0c-1.6-1.3-4.4-1.7-5.6-1.7c-0.6,0-1-0.5-1-1c0-1.9-0.3-3.7-1-5.5c-1-0.3-1.9-0.9-2.3-1.8
			c-0.7-1.4-0.9-2.8-0.5-4.3c0-0.4-0.2-0.7-0.4-1c-0.3-0.3-0.7-0.5-1.1-0.4h-1.5V20c0.4,0.6,1.4,1.9,2.3,3.4c1.8,2.9,2.6,5.3,2.6,7
			c0,3.3-1.8,7.6-4.9,9.3c-0.8,0.4-1.7,0.6-2.4,0.6c-1.4,0-2.7-0.5-3.8-1.4c-2.1-1.6-3.3-3.9-3.5-6.5c-0.2-1.4-1-2.5-2.3-3.2
			C29.9,30.3,28.9,31.3,27.9,32z"/>
		<path id="Path_2591" class="st2" d="M50.5,23.2L50.5,23.2C50.5,23.1,50.5,23.1,50.5,23.2c0-0.1,0-0.1,0-0.2v-0.1c0,0,0,0,0-0.1
			s0-0.1,0-0.2c0-0.9-0.7-1.5-1.5-1.5h-1.7c-0.1,0.7,0,1.5,0.3,2.2c0.3,0.5,0.9,0.8,1.5,0.9l0,0c0,0,0,0,0.1,0h0.1h0.1h0.1
			c0,0,0,0,0.1,0h0.1h0.1h0.1H50c0,0,0,0,0.1,0c0,0,0,0,0.1,0c0,0,0,0,0.1,0c0,0,0,0,0.1,0c0,0,0,0,0.1-0.1c0,0,0,0,0.1,0
			c0,0,0,0,0.1-0.1c0,0,0,0,0-0.1c0,0,0,0,0.1-0.1c0,0,0,0,0-0.1c0,0,0,0,0-0.1c0,0,0,0,0-0.1v-0.1L50.5,23.2
			C50.5,23.3,50.5,23.2,50.5,23.2z"/>
		<path id="Path_2592" class="st2" d="M21.4,45.7c-2,0-3.4-1.6-3.5-3.5c0-0.3,0-0.6,0.1-0.8l-2.2-0.9c-1,3.1,0.8,6.4,3.9,7.3
			c0.6,0.2,1.2,0.3,1.8,0.3c2.3,0,4.3-1.3,5.3-3.3l-2.3-0.9C24,45,22.7,45.7,21.4,45.7z"/>
		<path id="Path_2593" class="st2" d="M21.4,43.6c0.4,0,0.9-0.2,1.1-0.5l-2.5-1v0.1C20.1,43,20.7,43.6,21.4,43.6z"/>
		<path id="Path_2594" class="st2" d="M55.6,36.3c-3.2,0-5.9,2.6-5.9,5.9c0,0.6,0.1,1.1,0.2,1.6c0.1,0.1,0.1,0.3,0.1,0.4
			c1.1,3,4.5,4.6,7.5,3.5s4.6-4.5,3.5-7.5C60.3,37.9,58.2,36.3,55.6,36.3L55.6,36.3z"/>
		<path id="Path_2595" class="st1" d="M58.9,35.1c-1.2-3.4-5.6-4.2-7.5-4.3c-0.1-1.6-0.4-3.1-0.9-4.6l0,0c0.1,0,0.1-0.1,0.2-0.1
			c0,0,0,0,0.1,0c0.1,0,0.1-0.1,0.2-0.1l0,0l0.1-0.3l0,0c0.1,0,0.1-0.1,0.2-0.1l0,0c0.1-0.1,0.1-0.1,0.2-0.1l0,0l0.2-0.2l0,0
			c0.1-0.1,0.1-0.1,0.1-0.2l0,0c0-0.1,0.1-0.1,0.1-0.2l0,0c0-0.1,0.1-0.1,0.1-0.2c0,0,0,0,0-0.1s0.1-0.1,0.1-0.2l0,0
			c0-0.1,0.1-0.1,0.1-0.2c0,0,0,0,0-0.1s0.1-0.1,0.1-0.2l0,0c0-0.1,0-0.1,0.1-0.2c0,0,0,0,0-0.1s0-0.2,0-0.2l0,0c0-0.1,0-0.2,0-0.2
			V23c0-0.1,0-0.2,0-0.3c0-2-1.6-3.5-3.5-3.5h-1.7c-0.5-1.6-1.9-2.5-3.4-2.5h-2.5c-0.6,0-1,0.5-1,1l0,0v0.7l-5.5-1.6
			c-0.6-0.2-1.1,0.1-1.3,0.7c-0.2,0.6,0.1,1.1,0.7,1.3l0,0l6.4,1.8c0,0.1,0.1,0.2,0.2,0.3c1.4,1.7,4.9,6.7,4.9,9.5
			c0,2.6-1.5,6.3-3.8,7.4c-1.4,0.7-3,0.4-4.2-0.6c-1.6-1.2-2.5-3-2.6-5c-0.3-1.9-1.5-3.6-3.2-4.6c0.1-0.2,0.1-0.4,0.2-0.6
			c-0.2,0.4-0.3,0.7-0.6,1.1c-0.3,0.4-0.5,0.8-0.8,1.2c1.2,0.7,2.1,1.9,2.3,3.2c0.2,2.5,1.5,4.9,3.5,6.5c1.1,0.9,2.4,1.4,3.8,1.4
			c0.9,0,1.8-0.2,2.4-0.6c3.1-1.7,4.9-6.1,4.9-9.3c0-1.8-0.9-4.1-2.6-7c-0.8-1.2-1.6-2.3-2.3-3.4v-1.2H44c0.4,0,0.8,0.2,1.1,0.4
			c0.3,0.3,0.4,0.6,0.4,1c-0.4,1.5-0.2,3,0.5,4.3c0.6,0.9,1.4,1.5,2.3,1.8c0.7,1.8,1,3.6,1,5.5c0,0.6,0.5,1,1,1c1.2,0,4,0.3,5.6,1.7
			c-0.1,0-0.2,0-0.3,0c-4.4,0-7.9,3.5-7.9,7.9c0,0.4,0,0.7,0.1,1.1H32.8c-0.1-5.3-1.7-9.1-4.6-11.2C28.1,32,28,32,27.9,31.9
			c-0.6,0.5-1.3,0.9-2,1.3c0.4,0.2,0.7,0.4,1,0.6c2.4,1.7,3.7,4.9,3.7,9.5h-1.8l-0.3-0.1h-0.1l-12.9-5h-0.1l-1.9-0.7
			c0.6-1.4,1.4-2.6,2.2-3.9c1.2-0.4,2.3-0.7,3.6-0.9c-1.3-0.8-2.3-1.8-3.2-2.8c-2.2,2.3-3.7,5-4.9,7.8c-0.2,0.5,0,1.1,0.5,1.3h0.2
			l2,0.8c-0.3,0.8-0.4,1.6-0.4,2.4c0,4.4,3.5,7.9,7.9,7.9c3.1,0,6-1.9,7.2-4.7h3c0.1,0,0.1,0,0.2,0h16.4c1.8,4,6.4,5.9,10.4,4.1
			s5.9-6.4,4.1-10.4C62.2,37.3,60.7,35.9,58.9,35.1z M50.4,23.4C50.4,23.5,50.4,23.5,50.4,23.4C50.4,23.5,50.3,23.5,50.4,23.4
			c-0.1,0.1-0.1,0.1-0.1,0.2c0,0,0,0-0.1,0.1c0,0,0,0,0,0.1c0,0,0,0-0.1,0.1c0,0,0,0-0.1,0c0,0,0,0-0.1,0.1c0,0,0,0-0.1,0
			c0,0,0,0-0.1,0c0,0,0,0-0.1,0c0,0,0,0-0.1,0h-0.1c0,0,0,0-0.1,0h-0.1h-0.1c0,0,0,0-0.1,0H49c0,0,0,0-0.1,0h-0.1h-0.1l0,0
			c-0.6-0.1-1.1-0.4-1.5-0.9c-0.3-0.7-0.5-1.4-0.3-2.2h1.7c0.9,0,1.5,0.7,1.5,1.5c0,0.1,0,0.1,0,0.2c0,0,0,0,0,0.1v0.1
			c0,0,0,0,0,0.1s0,0.1,0,0.1s0,0,0,0.1v0.1L50.4,23.4L50.4,23.4z M20.1,42.1l2.5,1c-0.5,0.6-1.4,0.7-2,0.2
			C20.3,43,20.1,42.6,20.1,42.1L20.1,42.1z M21.4,48.1c-3.2,0-5.9-2.6-5.9-5.9c0-0.6,0.1-1.2,0.3-1.7l2.3,0.9C18,41.7,18,42,18,42.2
			c0,2,1.6,3.4,3.4,3.5c1.3,0,2.4-0.7,3-1.9l2.3,0.9C25.9,46.7,23.8,48.1,21.4,48.1L21.4,48.1z M55.6,48.1c-2.4,0-4.7-1.6-5.5-3.8
			c0-0.1-0.1-0.3-0.1-0.4c-0.2-0.5-0.2-1.1-0.2-1.6c0-3.2,2.6-5.9,5.9-5.9c3.2,0,5.9,2.6,5.9,5.9C61.6,45.6,58.9,48.1,55.6,48.1
			L55.6,48.1L55.6,48.1z"/>
		<path id="Path_2596" class="st1" d="M18.1,30.8c0.5-0.1,1-0.2,1.6-0.3c-0.2-0.2-0.4-0.3-0.6-0.5C18.7,30.3,18.4,30.5,18.1,30.8z"
			/>
		<path id="Path_2597" class="st1" d="M29.8,26.9c0.1,0,0.1-0.1,0.1-0.2v-0.2C29.9,26.6,29.8,26.7,29.8,26.9L29.8,26.9z"/>
		<path id="Path_2598" class="st1" d="M32.6,13.6l-9.1-4.8c-0.3-0.2-0.7-0.2-1,0l-8.8,4.8c-0.3,0.2-0.5,0.6-0.5,1v6.9
			c0,1.4,0.2,2.7,0.7,4c0,0.2,0.1,0.3,0.1,0.5c0.2,0.7,0.5,1.4,0.9,2.1l0,0l0.1,0.2c0.3,0.6,0.7,1.1,1.2,1.6c1,1.1,2.1,2.1,3.2,2.8
			c1.2,0.8,2.4,1.4,3.8,1.9c1-0.3,1.9-0.7,2.7-1.2c0.7-0.4,1.3-0.8,2-1.3c1-0.8,2-1.8,2.7-2.7c0.3-0.4,0.5-0.8,0.8-1.2
			c0.2-0.4,0.4-0.7,0.6-1.1c0.8-1.8,1.3-3.7,1.3-5.7v-6.8C33.2,14.2,32.9,13.8,32.6,13.6z M30.9,23c-0.2,1.2-0.6,2.3-1.1,3.4v0.2
			c0,0.1,0,0.1-0.1,0.2h-0.1c-0.4,0.8-0.9,1.5-1.5,2.1c-0.7,0.8-1.6,1.6-2.4,2.2c-0.6,0.4-1.2,0.7-1.8,1l0,0l-1,0.4L22.2,32
			c-0.9-0.4-1.8-0.9-2.5-1.6c-0.6,0.1-1.1,0.2-1.6,0.3c0.3-0.3,0.6-0.5,1-0.8c-0.5-0.5-1-1-1.4-1.5c-1.7-2.1-2.4-4.5-2.4-7.1v-6.3
			l7.8-4.3l8,4.3v6.1C31.1,21.9,31,22.4,30.9,23z"/>
		<path id="Path_2599" class="st1" d="M20,20.4c-0.4-0.4-1-0.5-1.5-0.1c-0.5,0.4-0.5,1-0.1,1.5l2.3,2.7l0,0l0,0l0,0l0,0
			c0,0,0,0,0.1,0l0,0c0,0,0,0,0.1,0c0,0,0,0,0.1,0c0,0,0,0,0.1,0l0,0c0,0,0,0,0.1,0l0,0c0,0,0,0,0.1,0s0,0,0,0h0.2h0.1l0,0
			c0,0,0,0,0.1,0s0,0,0,0s0,0,0.1,0s0,0,0,0l0,0l0,0l0,0l0,0l0,0l0,0l0,0l5.6-4.5c0.4-0.4,0.5-1.1,0.1-1.5c-0.4-0.4-1-0.5-1.4-0.1
			l-4.8,3.9L20,20.4z"/>
	</g>
</g>
</svg>
