<?xml version="1.0" encoding="utf-8"?>
<!-- Generator: Adobe Illustrator 22.0.0, SVG Export Plug-In . SVG Version: 6.00 Build 0)  -->
<svg version="1.1" id="Layer_1" xmlns="http://www.w3.org/2000/svg" xmlns:xlink="http://www.w3.org/1999/xlink" x="0px" y="0px"
	 viewBox="0 0 75 75" style="enable-background:new 0 0 75 75;" xml:space="preserve">
<style type="text/css">
	.st0{fill:#B91165;}
	.st1{fill:#FFFFFF;}
</style>
<g>
	<circle id="Ellipse_33-2" class="st0" cx="37.4" cy="37.1" r="37.5"/>
	<g>
		<path class="st1" d="M57.3,43.9l-20.2-5.2c-1.6-0.4-3.2,0.6-3.7,2.1v3.8c0,1.3,0.9,2.4,2,2.8l4.6,1.5c0.5,0.2,0.8,0.8,0.6,1.3
			c0,0.2-0.1,0.3-0.2,0.4l-1.7,1.7c-0.3,0.3-0.7,0.4-1.1,0.2L11.9,42.1c-1.6-0.6-3.2,0.1-3.9,1.6c-0.2,0.3-0.3,0.7-0.3,1.1v2.7
			c0,1.2,0.7,2.1,1.6,2.6l28.8,14c0.7,0.3,1.4,0.4,2,0.2l16.9-4.7h9.8V43.9H57.3z M56.2,58l-16.4,4.4c-0.2,0.1-0.5,0-0.7-0.1
			L10.4,48.4C10,48.3,9.8,48,9.8,47.6v-2.7c0-0.5,0.4-1,0.9-1h0.1c0.1,0,0.3,0,0.4,0.1l25.7,10.3c1.1,0.4,2.3,0.2,3.2-0.7l1.7-1.7
			c1.2-1.1,1.2-2.9,0.1-4.1l-0.1-0.1c-0.3-0.4-0.8-0.6-1.2-0.7L36,45.5c-0.4-0.2-0.6-0.6-0.6-1v-3c0-0.5,0.4-1,0.9-1h0.1h0.3
			l19.5,5.1L56.2,58L56.2,58z M65,57.7h-6.9V45.9H65V57.7z"/>
		<rect x="60.1" y="47.9" class="st1" width="1.9" height="4"/>
		<rect x="34.5" y="19.3" class="st1" width="9.8" height="1.9"/>
		<path class="st1" d="M34.5,36h9.8V23.1h-9.8V36z M36.4,25.2h5.9v8.9h-5.9V25.2z"/>
		<polygon class="st1" points="31.5,41.9 27.5,41.9 27.5,20.8 39.3,13.6 51.3,20.8 51.3,39.9 53.2,39.9 53.2,19.6 50.2,17.8 
			50.2,14.2 48.3,14.2 48.3,16.6 39.3,11.1 25.6,19.7 25.6,43.9 31.5,43.9 		"/>
		<path class="st1" d="M15.6,35c0.2,0,0.4,0.1,0.6,0.1h0.5v6.9h1.9v-6.9h0.5c2.1,0,4-1.7,4-4v-0.6L22,22.6c-0.3-1.9-1.9-3.4-4-3.4
			h-0.8c-1.9,0-3.6,1.5-4,3.4l-1,7.9C12,32.6,13.5,34.7,15.6,35z M14.2,30.8l1.1-7.8c0.1-1,1-1.7,1.9-1.6h0.9c1,0,1.8,0.7,1.9,1.6
			l1.1,7.8c0.2,1.1-0.6,2.1-1.6,2.2h-0.8v-4h-1.9v4h-0.6c-1.1,0-1.9-0.9-1.9-1.9V30.8z"/>
	</g>
</g>
</svg>
