<?xml version="1.0" encoding="utf-8"?>
<!-- Generator: Adobe Illustrator 22.0.0, SVG Export Plug-In . SVG Version: 6.00 Build 0)  -->
<svg version="1.1" id="Layer_1" xmlns="http://www.w3.org/2000/svg" xmlns:xlink="http://www.w3.org/1999/xlink" x="0px" y="0px"
	 viewBox="0 0 75 75" style="enable-background:new 0 0 75 75;" xml:space="preserve">
<style type="text/css">
	.st0{fill:#B91165;}
	.st1{clip-path:url(#SVGID_2_);}
	.st2{fill:#FFFFFF;}
</style>
<g id="Group_9519" transform="translate(18033 18640.537)">
	<g id="Group_5909" transform="translate(-18003 -18616.537)">
		<g transform="matrix(1, 0, 0, 1, -61, -54)">
			<circle id="Ellipse_33-2" class="st0" cx="69" cy="67.5" r="37.5"/>
		</g>
		<g>
			<g>
				<g>
					<defs>
						<circle id="SVGID_1_" cx="8" cy="13.5" r="37.5"/>
					</defs>
					<clipPath id="SVGID_2_">
						<use xlink:href="#SVGID_1_"  style="overflow:visible;"/>
					</clipPath>
					<g id="Mask_Group_5" class="st1">
						<g id="loan_3_" transform="translate(14.217 15.702)">
							<path id="Path_1591" class="st2" d="M16.3,0.4l-1.1-1.1c-1.3-1.3-3.2-1.3-4.5,0L4,6.1V5.2C4,3.9,3,2.9,1.7,2.9l0,0h-20.5
								c-0.2,0-0.4,0.1-0.6,0.2L-22,5.7V4.4c0-0.4-0.4-0.8-0.8-0.8h-6.3c-0.4,0-0.8,0.4-0.8,0.8v15.8c0,0.4,0.4,0.8,0.8,0.8h6.3
								c0.4,0,0.8-0.4,0.8-0.8v-1.3l3.5-3.5H3.2c0.2,0,0.4-0.1,0.6-0.2L16.4,2.7C16.9,2,16.9,1,16.3,0.4L16.3,0.4z M-23.5,19.3h-4.7
								V5.2h4.7V19.3z M2.9,13.9h-21.7c-0.2,0-0.4,0.1-0.6,0.2l-2.6,2.6V7.9l3.5-3.5H1.6c0.4,0,0.8,0.4,0.8,0.8v2.3H-7.8v1.6h11
								C3.6,9.1,4,8.7,4,8.3l7.9-7.9c0.6-0.6,1.7-0.6,2.2,0l0,0l1.1,1.1L2.9,13.9z"/>
							<path id="Path_1592" class="st2" d="M-11-3.5c-0.4,0-0.8-0.4-0.8-0.8h-1.6c0,1,0.7,1.9,1.6,2.2v1h1.6v-1
								c1.3-0.4,1.9-1.8,1.5-3C-9-6-10-6.6-11-6.6c-0.4,0-0.8-0.4-0.8-0.8c0-0.4,0.4-0.8,0.8-0.8c0.4,0,0.8,0.4,0.8,0.8h1.6
								c0-1-0.7-1.9-1.6-2.2v-1h-1.6v1c-1.3,0.4-1.9,1.8-1.5,3c0.3,1,1.3,1.6,2.2,1.6c0.4,0,0.8,0.4,0.8,0.8
								C-10.2-3.9-10.5-3.5-11-3.5L-11-3.5z"/>
							<path id="Path_1593" class="st2" d="M-11,1.2c3.9,0,7.1-3.2,7.1-7.1S-7.1-13-11-13s-7.1,3.2-7.1,7.1S-14.9,1.2-11,1.2
								L-11,1.2z M-11-11.4c3,0,5.6,2.4,5.6,5.6S-7.9-0.3-11-0.3c-3,0-5.6-2.4-5.6-5.6S-14-11.4-11-11.4L-11-11.4z"/>
							<path id="Path_1594" class="st2" d="M-7.8-6.7h1.6v1.6h-1.6V-6.7z"/>
							<path id="Path_1595" class="st2" d="M-15.6-6.7h1.6v1.6h-1.6V-6.7z"/>
							<path id="Path_1596" class="st2" d="M4.8-9C4.4-9,4-9.4,4-9.8H2.5c0,1,0.7,1.9,1.6,2.2v1h1.6v-1c1.3-0.4,1.9-1.8,1.5-3
								c-0.3-1-1.3-1.6-2.2-1.6c-0.4,0-0.8-0.4-0.8-0.8s0.4-0.8,0.8-0.8s0.8,0.4,0.8,0.8l0,0h1.6c0-1-0.7-1.9-1.6-2.2v-1H4v1
								c-1.3,0.4-1.9,1.8-1.5,3c0.3,1,1.3,1.6,2.2,1.6c0.4,0,0.8,0.4,0.8,0.8C5.6-9.3,5.2-9,4.8-9z"/>
							<path id="Path_1597" class="st2" d="M4.8-4.2c3.9,0,7.1-3.2,7.1-7.1v-7.9h-1.6v3.4c-2.5-3-6.9-3.5-10-1.1
								c-0.4,0.3-0.8,0.7-1.1,1.1v-5.7h-1.6v10.2C-2.3-7.5,0.9-4.2,4.8-4.2z M4.8-16.9c3,0,5.6,2.4,5.6,5.6c0,3-2.4,5.6-5.6,5.6
								s-5.6-2.4-5.6-5.6l0,0C-0.7-14.4,1.8-16.9,4.8-16.9L4.8-16.9z"/>
							<path id="Path_1598" class="st2" d="M7.9-12.1h1.6v1.6H7.9V-12.1z"/>
							<path id="Path_1599" class="st2" d="M0-12.1h1.6v1.6H0C0-10.6,0-12.1,0-12.1z"/>
							<path id="Path_1600" class="st2" d="M-16.4-23.1h1.6v7.9h-1.6V-23.1z"/>
							<path id="Path_1601" class="st2" d="M-16.4-26.3h1.6v1.6h-1.6V-26.3z"/>
							<path id="Path_1602" class="st2" d="M-11.8-19.2h1.6v4.7h-1.6V-19.2z"/>
							<path id="Path_1603" class="st2" d="M-11.8-22.4h1.6v1.6h-1.6V-22.4z"/>
							<path id="Path_1604" class="st2" d="M-7-21.6h1.6v4.7H-7V-21.6z"/>
							<path id="Path_1605" class="st2" d="M-7-24.7h1.6v1.6H-7V-24.7z"/>
							<path id="Path_1606" class="st2" d="M-2.3-24.7h1.6v1.6h-1.6V-24.7z"/>
							<path id="Path_1607" class="st2" d="M4-26.3h1.6v1.6H4V-26.3z"/>
							<path id="Path_1608" class="st2" d="M4-23.1h1.6v3.1H4V-23.1z"/>
							<path id="Path_1609" class="st2" d="M10.3-22.4h1.6v1.6h-1.6V-22.4z"/>
						</g>
					</g>
				</g>
			</g>
		</g>
	</g>
</g>
</svg>
