<?xml version="1.0" encoding="utf-8"?>
<!-- Generator: Adobe Illustrator 22.0.0, SVG Export Plug-In . SVG Version: 6.00 Build 0)  -->
<svg version="1.1" id="Layer_1" xmlns="http://www.w3.org/2000/svg" xmlns:xlink="http://www.w3.org/1999/xlink" x="0px" y="0px"
	 viewBox="0 0 75 75" style="enable-background:new 0 0 75 75;" xml:space="preserve">
<style type="text/css">
	.st0{fill:#B91165;}
	.st1{fill:#FFFFFF;}
	.st2{fill:#69EBFC;}
	.st3{fill:#D476E2;}
</style>
<g id="credit-card_2_" transform="translate(-17672 -18563.617)">
	<g id="Group_5911_1_" transform="translate(-17690 -18583.691)">
		<circle id="Ellipse_33-2_1_" class="st0" cx="35399.2" cy="37184.6" r="37.5"/>
	</g>
	<path class="st1" d="M17736.4,18612.5v-22.2v-2v-0.1c0-2.8-2.3-5.1-5.2-5.1h-43.9c-2.9,0-5.2,2.3-5.2,5.2v2v23.2
		c0,0.9,0.3,1.7,0.7,2.5c0,0,0,0.1,0.1,0.1c0.1,0.2,0.2,0.4,0.3,0.5c0.1,0.2,0.3,0.4,0.4,0.5l0.1,0.1c1,1,2.3,1.6,3.8,1.6h43.9
		c2.9,0,5.2-2.3,5.2-5.2v-2C17736.5,18611.9,17736.5,18612.2,17736.4,18612.5z M17718.3,18607.4c1.6-1.2,3.7-1.2,5.2,0
		c1.8-1.5,4.6-1.1,6,0.8c1.5,1.8,1.1,4.6-0.8,6c-0.8,0.7-1.7,1-2.6,1c-1,0-1.8-0.3-2.6-0.9c-1.9,1.4-4.7,1.1-6-0.9
		C17716,18611.5,17716.4,18608.8,17718.3,18607.4z M17711.6,18603.6c-0.9,0.1-1.6-0.7-1.6-1.6c0-0.9,0.8-1.6,1.6-1.6h6.2
		c1,0,1.6,0.8,1.6,1.6c0,1-0.8,1.6-1.6,1.6H17711.6z M17720.9,18602c0-0.9,0.8-1.6,1.6-1.6h6.2c1,0,1.6,0.8,1.6,1.6
		c0,0.9-0.8,1.6-1.6,1.6h-6.2C17721.6,18603.7,17720.9,18602.9,17720.9,18602z M17690.3,18594.6v0.2c0,0.7,0.6,1.3,1.3,1.3h2.6
		c0.7,0,1.3-0.6,1.3-1.3v-0.2h2.1v0.8c0,1.2-1,2-2,2h-5.3c-1.2,0-2-1-2-2v-0.8H17690.3z M17688.1,18593.5v-2.9h2.1v2.9H17688.1z
		 M17691.3,18594.8v-5.3c0-0.2,0.1-0.3,0.3-0.3h2.6c0.1,0,0.2,0.1,0.2,0.3v5.3c0,0.2-0.1,0.3-0.3,0.3h-2.5
		C17691.4,18595,17691.3,18594.9,17691.3,18594.8z M17689.8,18600.3h6.2c1,0,1.6,0.8,1.6,1.6s-0.8,1.6-1.6,1.6h-6.2
		c-1,0-1.6-0.8-1.6-1.6C17688.1,18601.1,17688.8,18600.3,17689.8,18600.3z M17695.5,18593.5v-2.9h2.1v2.9H17695.5z M17697.5,18589.5
		h-2.1v-0.2c0-0.8-0.6-1.4-1.4-1.4h-2.6c-0.7,0-1.3,0.6-1.3,1.4v0.2h-2.1l0.1-0.8c0-1.2,1-2,2-2h5.3c1.2,0,2,1,2,2V18589.5z
		 M17689.8,18609.2h11.7c1,0,1.6,0.8,1.6,1.6c0.1,0.9-0.7,1.6-1.6,1.6h-11.7c-1,0-1.6-0.8-1.6-1.6
		C17688.1,18609.9,17688.9,18609.2,17689.8,18609.2z M17700.6,18603.7c-1,0-1.6-0.8-1.6-1.6c0-0.9,0.8-1.6,1.6-1.6h6.2
		c1,0,1.6,0.8,1.6,1.6c0,0.9-0.7,1.6-1.6,1.6H17700.6z"/>
	<path id="Path_2612_1_" class="st2" d="M17725.1,18610.8c0-1.4-0.6-2.6-1.7-3.4c-1.8,1.5-2.2,4.2-0.9,6c0.2,0.3,0.5,0.6,0.9,0.9
		C17724.6,18613.4,17725.1,18612.1,17725.1,18610.8z"/>
	<path id="Path_2613_1_" class="st3" d="M17721.8,18610.7c0,1.4,0.7,2.6,1.7,3.4c1.8-1.5,2.2-4.1,0.9-6c-0.2-0.3-0.5-0.6-0.9-0.9
		C17722.4,18608.2,17721.8,18609.5,17721.8,18610.7z"/>
</g>
</svg>
