<?xml version="1.0" encoding="utf-8"?>
<!-- Generator: Adobe Illustrator 22.0.0, SVG Export Plug-In . SVG Version: 6.00 Build 0)  -->
<svg version="1.1" id="Layer_1" xmlns="http://www.w3.org/2000/svg" xmlns:xlink="http://www.w3.org/1999/xlink" x="0px" y="0px"
	 viewBox="0 0 39.8 40" style="enable-background:new 0 0 39.8 40;" xml:space="preserve">
<style type="text/css">
	.st0{fill:#00CC99;stroke:#FFFFFF;stroke-width:0.155;}
</style>
<g id="Group_9523">
	<g id="Group_9522">
		<path id="Path_30228" class="st0" d="M35.4,4.6h-0.9c-5,0-9.8-1.7-13.8-4.7C20.2-0.4,19.5-0.4,19,0c-3.9,3-8.7,4.7-13.7,4.7H4.4
			c-0.7,0-1.3,0.5-1.3,1.2v15c0,4.4,2.1,8.5,5.7,11l10.3,7.5c0.5,0.3,1.1,0.3,1.5,0l10.3-7.5c3.5-2.6,5.6-6.6,5.7-11v-15
			C36.7,5.1,36.1,4.6,35.4,4.6L35.4,4.6z M32.8,25.9c-1.1,2-2.5,3.3-3.3,3.9L20,36.7l-9.5-6.9c-2.9-2.1-4.6-5.4-4.6-9V7
			c5.1-0.1,10-1.7,14.2-4.7c4.1,3,9.1,4.6,14.2,4.7v13.8C34.2,21.9,33.9,23.8,32.8,25.9z"/>
		<path id="Path_30229" class="st0" d="M8.7,19.8c0.2,6.4,5.6,11.4,12,11.2c6.1-0.2,11-5.1,11.2-11.2c-0.2-6.4-5.6-11.4-12-11.2
			C13.8,8.7,8.9,13.6,8.7,19.8z M20.3,11c4.9-0.1,8.9,3.8,9,8.8c-0.2,5-4.3,8.9-9.3,8.7c-4.8-0.1-8.6-4-8.7-8.7
			C11.4,14.8,15.4,10.9,20.3,11z"/>
		<path id="Path_30230" class="st0" d="M19,26L19,26c0.5,0,0.8-0.3,1-0.6l6.4-10l-2.2-1.3l-5.6,8.7l-2.7-2.6L14.1,22
			C14.1,22,18.7,26,19,26z"/>
	</g>
</g>
</svg>
