<?xml version="1.0" encoding="utf-8"?>
<!-- Generator: Adobe Illustrator 22.0.0, SVG Export Plug-In . SVG Version: 6.00 Build 0)  -->
<svg version="1.1" id="Group_9516" xmlns="http://www.w3.org/2000/svg" xmlns:xlink="http://www.w3.org/1999/xlink" x="0px" y="0px"
	 viewBox="0 0 54.7 40" style="enable-background:new 0 0 54.7 40;" xml:space="preserve">
<style type="text/css">
	.st0{fill:#00CC99;}
</style>
<g id="router">
	<path id="XMLID_697_" class="st0" d="M48.2,19.7H6.5C2.9,19.9,0,22.9,0,26.6v11.3c0,0.9,0.7,1.6,1.6,1.6c0,0,0,0,0,0h51.5
		c0.9,0,1.6-0.7,1.6-1.6c0,0,0,0,0,0V26.6C54.7,22.9,51.8,19.9,48.2,19.7z M9.4,30.8v-2.4c0-0.9,0.7-1.6,1.6-1.6
		c0.9,0,1.6,0.7,1.6,1.6c0,0,0,0,0,0v2.4c0,0.9-0.7,1.6-1.6,1.6C10.1,32.4,9.4,31.7,9.4,30.8z M15.2,30.8v-2.4
		c0-0.9,0.7-1.6,1.6-1.6c0.9,0,1.6,0.7,1.6,1.6c0,0,0,0,0,0v2.4c0,0.9-0.7,1.6-1.6,1.6C15.9,32.4,15.2,31.7,15.2,30.8z M30.1,28.4
		v2.4c0,0.9-0.7,1.6-1.6,1.6c-0.9,0-1.6-0.7-1.6-1.6v-2.4c0-0.9,0.7-1.6,1.6-1.6C29.4,26.8,30.1,27.5,30.1,28.4z M22.7,26.8
		c0.9,0,1.6,0.7,1.6,1.6c0,0,0,0,0,0v2.4c0,0.9-0.7,1.6-1.6,1.6c-0.9,0-1.6-0.7-1.6-1.6v-2.4C21,27.6,21.7,26.8,22.7,26.8
		C22.6,26.8,22.6,26.8,22.7,26.8L22.7,26.8z M34.2,29.6c0-0.9,0.7-1.6,1.6-1.6c0,0,0,0,0,0h8.7c0.9,0,1.6,0.7,1.6,1.6
		c0,0.9-0.7,1.6-1.6,1.6l0,0h-8.7C34.9,31.2,34.2,30.5,34.2,29.6C34.2,29.6,34.2,29.6,34.2,29.6L34.2,29.6z"/>
	<path id="XMLID_703_" class="st0" d="M8.2,0.8C8-0.1,7-0.5,6.2-0.2C5.4,0,5,0.8,5.1,1.5l3.5,14.9h3.3L8.2,0.8z"/>
	<path id="XMLID_706_" class="st0" d="M22.5,1.1c0-0.9-0.8-1.6-1.7-1.5c-0.9,0-1.6,0.8-1.5,1.7c0,0,0,0,0,0l0.9,15.2h3.2L22.5,1.1z"
		/>
	<path id="XMLID_707_" class="st0" d="M35.5,1.3c0.1-0.9-0.6-1.7-1.5-1.7c-0.9-0.1-1.7,0.6-1.7,1.5c0,0,0,0,0,0l-0.9,15.4h3.2
		L35.5,1.3z"/>
	<path id="XMLID_720_" class="st0" d="M49.6,1.6c0.1-0.9-0.5-1.7-1.4-1.8c-0.8-0.1-1.5,0.4-1.8,1.1l-3.7,15.7h3.3L49.6,1.6z"/>
</g>
</svg>
