<?xml version="1.0" encoding="utf-8"?>
<!-- Generator: Adobe Illustrator 22.0.0, SVG Export Plug-In . SVG Version: 6.00 Build 0)  -->
<svg version="1.1" id="Group_9515" xmlns="http://www.w3.org/2000/svg" xmlns:xlink="http://www.w3.org/1999/xlink" x="0px" y="0px"
	 viewBox="0 0 27.6 42.9" style="enable-background:new 0 0 27.6 42.9;" xml:space="preserve">
<style type="text/css">
	.st0{fill:#00CC99;}
</style>
<g id="Group_6017">
	<path id="Path_2682" class="st0" d="M23.9,1.4H3.8C2.4,1.4,1.3,2.6,1.3,4v34.9c0,1.4,1.1,2.5,2.5,2.5h20.1c1.4,0,2.5-1.1,2.5-2.5V4
		C26.3,2.6,25.2,1.4,23.9,1.4z M2.5,7.8h22.5v26.5H2.5V7.8z M3.8,2.7h20.1c0.7,0,1.2,0.6,1.2,1.3v3H2.5V4C2.5,3.3,3.1,2.7,3.8,2.7
		L3.8,2.7z M23.9,40.2H3.8c-0.7,0-1.2-0.6-1.2-1.3v-3.8h22.5v3.8C25.1,39.6,24.5,40.2,23.9,40.2L23.9,40.2z"/>
	<path id="Path_2683" class="st0" d="M13.8,35.7c-1.1,0-2,0.9-2,2.1c0,1.1,0.9,2.1,2,2.1c1.1,0,2-0.9,2-2.1l0,0
		C15.8,36.6,14.9,35.7,13.8,35.7z M13.8,39c-0.7,0-1.2-0.6-1.2-1.2c0-0.7,0.5-1.2,1.2-1.2c0.7,0,1.2,0.6,1.2,1.2
		C15,38.4,14.5,39,13.8,39L13.8,39z"/>
	<path id="Path_2684" class="st0" d="M11,5.5h5.6C16.8,5.5,17,5.3,17,5c0-0.2-0.2-0.4-0.4-0.4H11c-0.2,0-0.4,0.2-0.4,0.4
		C10.6,5.3,10.8,5.5,11,5.5z"/>
	<path id="Path_2685" class="st0" d="M9.5,5.5c0.2,0,0.4-0.2,0.4-0.4c0-0.2-0.2-0.4-0.4-0.4c-0.2,0-0.4,0.2-0.4,0.4
		c0,0.1,0,0.2,0.1,0.3C9.3,5.4,9.4,5.5,9.5,5.5z"/>
</g>
</svg>
