<?xml version="1.0" encoding="utf-8"?>
<!-- Generator: Adobe Illustrator 22.0.0, SVG Export Plug-In . SVG Version: 6.00 Build 0)  -->
<svg version="1.1" id="Layer_1" xmlns="http://www.w3.org/2000/svg" xmlns:xlink="http://www.w3.org/1999/xlink" x="0px" y="0px"
	 viewBox="0 0 44.9 41.1" style="enable-background:new 0 0 44.9 41.1;" xml:space="preserve">
<style type="text/css">
	.st0{fill:none;stroke:#00CC99;stroke-width:2;stroke-miterlimit:10;}
	.st1{fill:#00CC99;stroke:#00CC99;}
	.st2{fill:#00CC99;}
</style>
<g id="Group_5840" transform="translate(-22485.152 -16130.293)">
	<path id="Path_2564" class="st0" d="M22511.9,16154.7l-10.1-14.9l3.9-5.6c0.6-0.8,0.4-1.9-0.5-2.5c-0.3-0.2-0.6-0.3-1-0.3h-9.2
		c-1,0-1.8,0.8-1.8,1.8c0,0.4,0.1,0.7,0.3,1l3.9,5.6l-10.1,14.9c-0.8,1.1-1.2,2.5-1.2,3.9l0,0c0,3.8,3.1,6.9,6.9,6.9h13.1
		c3.8,0,6.9-3.1,6.9-6.9l0,0C22513.1,16157.2,22512.7,16155.8,22511.9,16154.7z"/>
	<path id="Path_2566" class="st1" d="M22502,16139.1h-4.6l-7-4.1c-0.3-0.2-0.6-0.1-0.8,0.2c-0.2,0.3-0.1,0.6,0.2,0.8l5.3,3.1h-5.6
		c-0.3,0-0.6,0.3-0.6,0.6c0,0.3,0.3,0.6,0.6,0.6h12.5c0.3,0,0.6-0.3,0.6-0.6C22502.5,16139.4,22502.3,16139.1,22502,16139.1z"/>
</g>
<path id="Path_2570" class="st2" d="M20.1,41.1h22.1c1.5,0,2.7-1.2,2.7-2.7l0,0v-1c0,1.5-1.2,2.7-2.7,2.7c0,0,0,0,0,0H20.1
	c-1.5,0-2.7-1.2-2.7-2.7c0,0,0,0,0,0v1C17.5,39.9,18.7,41.1,20.1,41.1z"/>
<path class="st2" d="M42.3,23H20.1c-1.5,0-2.7,1.2-2.7,2.7v1v11.7c0,1.5,1.2,2.7,2.7,2.7h22.1c1.5,0,2.7-1.2,2.7-2.7V26.7v-1
	C44.9,24.2,43.7,23,42.3,23z M24.3,26.3L24.3,26.3c0-0.4-0.3-0.7-0.7-0.7h-1.3c-0.4,0-0.7,0.3-0.7,0.7v0.1h-1.1v-0.4
	c0-0.6,0.5-1,1-1h2.7c0.6,0,1,0.5,1,1v0.4H24.3z M25.3,26.8v1.5h-1.1v-1.5H25.3z M23.7,26.2v2.7c0,0.1-0.1,0.1-0.1,0.1h-1.3
	c-0.1,0-0.1-0.1-0.1-0.1v-2.7c0-0.1,0.1-0.1,0.1-0.1h1.3C23.7,26.1,23.7,26.2,23.7,26.2z M21.6,26.8v1.5h-1.1v-1.5H21.6z M20.5,28.9
	h1.1v0.1c0,0.4,0.3,0.7,0.7,0.7h1.3c0.4,0,0.7-0.3,0.7-0.7v-0.1h1.1v0.4c0,0.6-0.5,1-1,1.1h-2.7c-0.6,0-1-0.5-1-1V28.9z M21.4,31.8
	h3.1c0.5,0,0.8,0.4,0.8,0.8c0,0.5-0.4,0.8-0.8,0.8h-3.1c-0.5,0-0.8-0.4-0.8-0.8C20.6,32.1,20.9,31.8,21.4,31.8z M27.3,37.9h-5.9
	c-0.5,0-0.8-0.4-0.8-0.8c0-0.5,0.4-0.8,0.8-0.8h5.9c0.5,0,0.8,0.4,0.8,0.8C28.2,37.5,27.8,37.9,27.3,37.9z M30,33.4h-3.1
	c-0.5,0-0.8-0.4-0.8-0.8c0-0.5,0.4-0.8,0.8-0.8H30c0.5,0,0.8,0.4,0.8,0.8C30.8,33.1,30.5,33.4,30,33.4z M31.6,32.6
	c0-0.5,0.4-0.8,0.8-0.8h3.1c0.5,0,0.8,0.4,0.8,0.8c0,0.5-0.4,0.8-0.8,0.8c0,0,0,0,0,0h-3.1C31.9,33.4,31.6,33.1,31.6,32.6z M41,38.8
	c-0.4,0.3-0.8,0.4-1.3,0.4c-0.5,0-0.9-0.2-1.3-0.4c-1,0.7-2.3,0.5-3-0.4c-0.7-1-0.5-2.3,0.4-3c0.8-0.6,1.8-0.6,2.6,0
	c1-0.7,2.3-0.5,3,0.4C42.1,36.7,42,38,41,38.8z M41,33.4h-3.1c-0.5,0-0.8-0.4-0.8-0.8c0-0.5,0.4-0.8,0.8-0.8H41
	c0.5,0,0.8,0.4,0.8,0.8C41.9,33.1,41.5,33.4,41,33.4z"/>
</svg>
